<svg width="100" height="23" viewBox="0 0 100 23" fill="none" xmlns="http://www.w3.org/2000/svg">
<path fill-rule="evenodd" clip-rule="evenodd" d="M17.5623 2.21995L12.1052 10.5274C11.8338 10.9452 11.3589 11.1635 10.8839 11.135C10.661 11.1255 10.4283 11.0496 10.2248 10.9262C9.59472 10.5274 9.41057 9.7109 9.81767 9.09377L15.2166 0.871727C14.0729 0.387521 12.8322 0.0932339 11.5236 0.01728C5.50432 -0.315018 0.357382 4.18522 0.0181299 10.0716C-0.321123 15.9676 4.27329 21.009 10.2829 21.3413C16.2925 21.6736 21.4492 17.1734 21.7885 11.2869C22.0114 7.64115 20.3151 4.30868 17.5623 2.21995ZM28.5053 8.59075C27.2646 9.76804 26.654 11.2207 26.654 12.9296C26.654 14.6481 27.2646 16.0817 28.4859 17.24C29.7072 18.3888 31.2291 18.9679 33.0416 18.9679C34.1466 18.9679 35.2419 18.6926 36.3469 18.1325V14.6291C35.6975 15.3982 35.1256 15.9203 34.6506 16.1861C34.1563 16.4615 33.5747 16.6039 32.9253 16.6039C31.9076 16.6039 31.0642 16.2526 30.4051 15.5691C29.7557 14.876 29.4261 13.993 29.4261 12.9106C29.4261 11.8568 29.7654 10.9833 30.4342 10.2808C31.1127 9.57818 31.956 9.22691 32.9738 9.22691C33.6232 9.22691 34.1951 9.36927 34.67 9.6541C35.1644 9.92943 35.7168 10.4422 36.3372 11.1732V7.64133C35.3097 7.10016 34.2144 6.82484 33.061 6.82484C31.2581 6.81534 29.746 7.40397 28.5053 8.59075ZM42.7161 8.08713C43.6757 7.24214 44.7419 6.81488 45.905 6.81488C47.233 6.81488 48.2895 7.24213 49.094 8.07763C49.7629 8.80868 50.1021 9.97648 50.1021 11.581V18.6257H47.3881V11.8279C47.3881 10.9069 47.2136 10.2423 46.884 9.82453C46.5545 9.41628 46.0117 9.20744 45.275 9.20744C44.3348 9.20744 43.666 9.50174 43.2783 10.0714C42.9003 10.66 42.7161 11.657 42.7161 13.0716V18.6352H40.0021V1.10883H42.7161V8.08713ZM71.6387 7.10944C71.251 7.29932 70.8148 7.6506 70.3108 8.16329V7.13795H67.5967V18.6355H70.3108V12.673C70.3108 10.4894 71.0474 9.38808 72.5304 9.38808C73.0248 9.38808 73.5191 9.56848 74.0328 9.92926L75.2736 7.49873C74.4981 7.04301 73.7518 6.81512 73.0345 6.81512C72.5014 6.81512 72.0264 6.91955 71.6387 7.10944ZM80.5657 8.16329C81.0697 7.6506 81.5059 7.29932 81.8936 7.10944C82.291 6.91955 82.7563 6.81512 83.2894 6.81512C84.0067 6.81512 84.753 7.04301 85.5285 7.49873L84.2878 9.92926C83.7741 9.56848 83.2797 9.38808 82.7854 9.38808C81.3024 9.38808 80.5657 10.4894 80.5657 12.673V18.6355H77.8517V7.13795H80.5657V8.16329ZM96.938 7.13741L93.594 13.7454L89.9979 7.13741H86.8574L92.1303 16.4987L88.8735 22.4801H91.9268L100.001 7.13741H96.938ZM54.7245 8.47661C55.7617 7.36579 57.1284 6.81512 58.844 6.81512C60.5791 6.81512 61.9361 7.35631 62.9441 8.43865C63.9425 9.5115 64.4369 10.9926 64.4369 12.8915L64.4272 13.5181H56.0137C56.0913 14.458 56.4014 15.208 56.9539 15.7682C57.5064 16.3188 58.214 16.5942 59.0863 16.5942C59.7649 16.5942 60.3173 16.4328 60.7632 16.1195C61.0734 15.8916 61.4126 15.5214 61.7907 15.0182L64.1654 16.167C63.9231 16.5278 63.6711 16.86 63.4094 17.1354C63.012 17.5531 62.5855 17.8949 62.1396 18.1703C61.6937 18.4456 61.2091 18.645 60.6856 18.7684C60.1622 18.8918 59.6 18.9583 58.9894 18.9583C57.235 18.9583 55.8295 18.4076 54.773 17.3062C53.7165 16.1954 53.1833 14.7238 53.1833 12.8915C53.1833 11.0781 53.6971 9.60643 54.7245 8.47661ZM56.5856 10.4514C56.4111 10.7078 56.2851 11.0021 56.1979 11.3344H61.6453C61.2673 9.91975 60.3561 9.20769 58.9119 9.20769C58.5823 9.20769 58.2721 9.26463 57.9813 9.35957C57.7002 9.46401 57.4288 9.59694 57.1962 9.78682C56.9539 9.96721 56.7503 10.1951 56.5856 10.4514Z" fill="#EA1E26"/>
</svg>
