<svg width="111" height="23" viewBox="0 0 111 23" fill="none" xmlns="http://www.w3.org/2000/svg">
<path d="M30.1709 9.58464C29.4649 9.18618 28.7099 9.05335 27.913 9.12326C27.4935 9.15821 27.0741 9.22812 26.6407 9.28405C26.4799 7.73913 25.662 6.70451 24.3827 5.93555C23.1873 7.62028 23.0685 9.31201 24.1171 11.1156C23.7885 11.2834 23.5089 11.4581 23.2083 11.577C22.0618 12.0453 20.8524 12.1362 19.6291 12.1362C13.5333 12.1432 7.44449 12.1432 1.34869 12.1362C1.02013 12.1362 0.747509 12.1082 0.726538 12.5976C0.593716 16.5752 2.31338 20.7836 7.82897 21.8042C8.59094 21.944 9.36692 22.0209 10.1429 22.1328C10.5763 22.1328 11.0097 22.1328 11.4431 22.1328C12.0163 22.0629 12.5966 22.0069 13.1698 21.93C19.0699 21.1681 23.2992 18.0922 25.8647 12.7374C26.0045 12.4438 26.1793 12.3809 26.4659 12.3389C27.1859 12.2271 27.913 12.1152 28.598 11.8915C29.395 11.6259 29.9962 11.0736 30.3876 10.3117C30.5484 9.98311 30.5065 9.7664 30.1709 9.58464Z" fill="#0D70BA"/>
<path d="M57.992 7.94531C54.294 7.94531 51.281 10.9513 51.281 14.6563C51.281 18.3543 54.287 21.3673 57.992 21.3673C61.69 21.3673 64.703 18.3543 64.703 14.6563C64.696 10.9513 61.69 7.94531 57.992 7.94531ZM57.992 18.8506C55.6781 18.8506 53.7976 16.9702 53.7976 14.6493C53.7976 12.3354 55.6781 10.4549 57.992 10.4549C60.3059 10.4549 62.1863 12.3354 62.1863 14.6493C62.1863 16.9632 60.3059 18.8506 57.992 18.8506Z" fill="#0D70BA"/>
<path d="M73.0965 10.4549C74.201 10.4549 75.2496 10.8814 76.0395 11.6643C76.2772 11.895 76.5918 12.0278 76.9203 12.0278H76.9273C77.2629 12.0278 77.5774 11.895 77.8151 11.6503C78.0528 11.4127 78.1786 11.0981 78.1786 10.7625C78.1786 10.427 78.0458 10.1124 77.8012 9.87471C76.5359 8.63039 74.8651 7.94531 73.0965 7.94531C69.3984 7.94531 66.3855 10.9513 66.3855 14.6563C66.3855 18.3543 69.3915 21.3673 73.0965 21.3673C74.7602 21.3673 76.3541 20.7521 77.5914 19.6266C77.8431 19.4029 77.9829 19.0953 78.0039 18.7598C78.0178 18.4242 77.906 18.1026 77.6823 17.858C77.2209 17.3477 76.424 17.3057 75.9067 17.7671C75.1307 18.4662 74.1311 18.8576 73.0965 18.8576C70.7826 18.8576 68.9021 16.9772 68.9021 14.6563C68.9021 12.3354 70.7826 10.4549 73.0965 10.4549Z" fill="#0D70BA"/>
<path d="M100.408 10.7625C100.408 10.427 100.268 10.1054 100.03 9.87471C98.7651 8.63039 97.0943 7.94531 95.3257 7.94531C91.6277 7.94531 88.6147 10.9513 88.6147 14.6563C88.6147 18.3543 91.6277 21.3673 95.3257 21.3673C96.9895 21.3673 98.5833 20.7521 99.8207 19.6266C100.072 19.4029 100.212 19.0953 100.233 18.7598C100.247 18.4242 100.135 18.1026 99.9115 17.858C99.4502 17.3477 98.6532 17.3057 98.1359 17.7671C97.36 18.4662 96.3603 18.8576 95.3257 18.8576C94.6266 18.8576 93.9486 18.6899 93.3404 18.3613L100.037 11.6643C100.275 11.4196 100.408 11.0981 100.408 10.7625ZM91.5857 16.5577C91.2852 15.9705 91.1244 15.3204 91.1244 14.6493C91.1244 12.3354 93.0048 10.4549 95.3187 10.4549C95.9898 10.4549 96.64 10.6157 97.2272 10.9093L91.5857 16.5577Z" fill="#0D70BA"/>
<path d="M48.3403 4.12305C47.6482 4.12305 47.082 4.68929 47.082 5.38136V9.42192C45.8936 8.46421 44.4255 7.93992 42.8876 7.93992C39.1896 7.93992 36.1766 10.9459 36.1766 14.6509C36.1766 18.3489 39.1826 21.3619 42.8876 21.3619C46.5856 21.3619 49.5986 18.3489 49.5986 14.6509V5.38835C49.5986 4.68929 49.0323 4.12305 48.3403 4.12305ZM42.8876 18.8452C40.5737 18.8452 38.6933 16.9648 38.6933 14.6439C38.6933 12.33 40.5737 10.4495 42.8876 10.4495C45.2015 10.4495 47.082 12.33 47.082 14.6439C47.089 16.9578 45.2015 18.8452 42.8876 18.8452Z" fill="#0D70BA"/>
<path d="M86.7113 8.33139C86.3757 8.33139 86.0612 8.46421 85.8235 8.70189L82.5799 11.9455V5.38136C82.5799 4.68929 82.0136 4.12305 81.3215 4.12305C80.6295 4.12305 80.0632 4.68929 80.0632 5.38136V20.0966C80.0632 20.7886 80.6295 21.3549 81.3215 21.3549C82.0136 21.3549 82.5799 20.7886 82.5799 20.0966V18.2021L85.3341 20.9564C85.5718 21.1941 85.8864 21.3269 86.2219 21.3269C86.5575 21.3269 86.8721 21.1941 87.1097 20.9564C87.3474 20.7187 87.4802 20.4042 87.4802 20.0686C87.4802 19.7331 87.3474 19.4185 87.1097 19.1808L83.0063 15.0773L87.6061 10.4775C87.8438 10.2398 87.9766 9.92525 87.9766 9.5897C87.9766 9.25415 87.8438 8.93957 87.6061 8.70189C87.3614 8.46421 87.0468 8.33139 86.7113 8.33139Z" fill="#0D70BA"/>
<path d="M109.103 8.76172C105.076 8.76172 101.804 12.0333 101.804 16.0599V20.1005C101.804 20.7925 102.371 21.3588 103.063 21.3588C103.755 21.3588 104.321 20.7925 104.321 20.1005V16.0599C104.321 13.4175 106.467 11.2713 109.11 11.2713C109.802 11.2713 110.368 10.7051 110.368 10.013C110.368 9.32096 109.795 8.76172 109.103 8.76172Z" fill="#0D70BA"/>
<path d="M5.48637 7.96875H2.46643V10.9887H5.48637V7.96875Z" fill="#0D70BA"/>
<path d="M9.18618 7.96875H6.16626V10.9887H9.18618V7.96875Z" fill="#0D70BA"/>
<path d="M12.8936 7.96875H9.87366V10.9887H12.8936V7.96875Z" fill="#0D70BA"/>
<path d="M16.5858 7.96875H13.5659V10.9887H16.5858V7.96875Z" fill="#0D70BA"/>
<path d="M9.18618 4.10352H6.16626V7.12346H9.18618V4.10352Z" fill="#0D70BA"/>
<path d="M12.8936 4.10352H9.87366V7.12346H12.8936V4.10352Z" fill="#0D70BA"/>
<path d="M16.5858 4.10352H13.5659V7.12346H16.5858V4.10352Z" fill="#0D70BA"/>
<path d="M16.5858 0.240234H13.5659V3.26018H16.5858V0.240234Z" fill="#0D70BA"/>
<path d="M20.2933 7.96875H17.2733V10.9887H20.2933V7.96875Z" fill="#0D70BA"/>
</svg>
