<svg width="101" height="58" viewBox="0 0 101 58" fill="none" xmlns="http://www.w3.org/2000/svg">
<path fill-rule="evenodd" clip-rule="evenodd" d="M92.6946 18.753C91.7624 18.5503 90.8054 18.4861 89.8546 18.5628V17.9229C89.7098 16.1268 89.1411 14.3905 88.195 12.857C87.2489 11.3234 85.9525 10.0362 84.4122 9.10113C82.8719 8.16602 81.1317 7.60967 79.3347 7.47784C77.5375 7.34601 75.7348 7.6425 74.0746 8.34283C73.3414 6.37249 72.1346 4.61295 70.5607 3.21929C68.9867 1.82563 67.0939 0.840779 65.0493 0.351616C63.0047 -0.13755 60.8712 -0.116035 58.8369 0.414361C56.8026 0.944752 54.9301 1.96769 53.3846 3.39288C53.1901 3.57219 53.0747 3.82124 53.0634 4.0855C53.0522 4.34976 53.1461 4.60761 53.3246 4.80279C53.4135 4.90055 53.5209 4.97971 53.6407 5.0357C53.7604 5.09168 53.89 5.12338 54.022 5.12896C54.1541 5.13454 54.286 5.11385 54.41 5.06817C54.534 5.02248 54.6477 4.95276 54.7446 4.86285C56.1123 3.60159 57.7825 2.71461 59.5934 2.2879C61.4044 1.86118 63.2947 1.90916 65.0817 2.42706C66.8687 2.94495 68.4918 3.91528 69.794 5.24419C71.0961 6.57311 72.0332 8.21558 72.5146 10.0127C72.5546 10.1589 72.6273 10.2941 72.7272 10.408C72.8272 10.5219 72.9516 10.6117 73.0913 10.6705C73.2309 10.7292 73.3821 10.7554 73.5334 10.7471C73.6847 10.7389 73.8321 10.6964 73.9645 10.6229C75.1274 9.97437 76.4171 9.58556 77.7446 9.48296C80.2264 9.28388 82.6859 10.0774 84.5832 11.6898C86.4805 13.3021 87.6606 15.6013 87.8646 18.0828C87.9044 18.6054 87.9044 19.1303 87.8646 19.6529C87.8514 19.8073 87.8745 19.9627 87.9318 20.1067C87.989 20.2508 88.079 20.3797 88.1946 20.483C88.3115 20.5866 88.4511 20.6613 88.6022 20.7012C88.7533 20.7412 88.9117 20.7453 89.0646 20.7129C89.3949 20.6425 89.7287 20.5889 90.0646 20.5528C90.8245 20.4977 91.5885 20.5483 92.3346 20.7029C94.1174 21.0816 95.7134 22.0671 96.8503 23.4915C97.9873 24.9159 98.5946 26.6909 98.5687 28.5132C98.5427 30.3356 97.8851 32.0925 96.708 33.4839C95.5309 34.8754 93.9074 35.8152 92.1146 36.1429C91.8494 36.1667 91.6045 36.2949 91.4338 36.4993C91.2632 36.7037 91.1807 36.9678 91.2046 37.233C91.2285 37.4982 91.3567 37.743 91.5611 37.9136C91.7655 38.0843 92.0294 38.1667 92.2946 38.1429H92.4746C94.7208 37.7293 96.7541 36.5494 98.2278 34.8045C99.7015 33.0595 100.524 30.8576 100.556 28.5738C100.588 26.29 99.8268 24.0657 98.4024 22.2803C96.9779 20.495 94.9784 19.2589 92.7446 18.7828L92.6946 18.753ZM76.1218 25.1835C74.9889 24.9409 73.8264 24.8668 72.6718 24.9635H72.3919V23.9635C72.2153 21.7531 71.5113 19.617 70.339 17.7347C69.1666 15.8525 67.5601 14.2789 65.6541 13.1456C63.7481 12.0124 61.598 11.3527 59.3844 11.2218C57.1708 11.0909 54.9581 11.4927 52.9318 12.3934C51.79 9.15014 49.6118 6.37315 46.7339 4.49157C43.856 2.61 40.4385 1.72859 37.0096 1.98352C33.5807 2.23844 30.3311 3.61552 27.7631 5.90197C25.1951 8.18842 23.4515 11.2569 22.8018 14.6334C21.1807 14.3553 19.5313 14.2814 17.8918 14.4134L17.4717 14.4635H17.2518C14.6945 14.7556 12.2205 15.5519 9.97309 16.8068C7.72577 18.0616 5.74964 19.7497 4.15918 21.7736C2.56879 23.7974 1.39576 26.1167 0.70783 28.597C0.0199633 31.0774 -0.169063 33.6696 0.151738 36.2235C0.764531 40.8211 2.98786 45.0522 6.42646 48.1649C9.86512 51.2776 14.2961 53.0701 18.9318 53.2235C21.8928 53.3095 24.8332 52.707 27.5217 51.4635C32.8231 55.2611 39.1806 57.3032 45.7018 57.3033H45.7054C46.5443 57.3033 47.383 57.3033 48.2318 57.2035C55.8875 56.5959 63.0475 53.1761 68.3318 47.6034C69.8573 48.3646 71.5275 48.7921 73.2312 48.8573C74.9348 48.9225 76.6328 48.6238 78.212 47.9813C79.7912 47.3388 81.2154 46.3672 82.3897 45.1312C83.564 43.8952 84.4614 42.4231 85.0221 40.8131C85.5829 39.2031 85.7942 37.4921 85.6419 35.7941C85.4896 34.096 84.9772 32.4497 84.1389 30.9652C83.3005 29.4807 82.1555 28.192 80.7799 27.1847C79.4044 26.1774 77.8301 25.4746 76.1617 25.1234L76.1218 25.1835ZM75.4418 46.7633C73.0873 47.2 70.6542 46.7702 68.5918 45.5533C68.3934 45.4362 68.1607 45.3913 67.933 45.4259C67.7052 45.4605 67.4963 45.5727 67.3418 45.7435C62.4639 51.1415 55.7472 54.5248 48.5062 55.2313C41.2652 55.9379 34.0211 53.9166 28.1918 49.5634C28.0187 49.4335 27.8081 49.3634 27.5917 49.3634C27.4386 49.3659 27.2881 49.4036 27.1517 49.4735C24.6097 50.7443 21.7926 51.3659 18.9518 51.2833C14.7896 51.1462 10.8113 49.5361 7.72541 46.7396C4.63959 43.9432 2.64673 40.1419 2.10175 36.0133C1.81299 33.7229 1.98151 31.398 2.5976 29.1732C3.21375 26.9484 4.26514 24.8682 5.69098 23.0526C7.11689 21.237 8.8888 19.7225 10.9041 18.5966C12.9195 17.4707 15.1382 16.7559 17.4318 16.4935H17.7318H18.0118C19.8051 16.3514 21.6096 16.4862 23.3618 16.8934C23.4991 16.9254 23.6415 16.928 23.7799 16.901C23.9182 16.874 24.0493 16.8179 24.1644 16.7367C24.2797 16.6555 24.3764 16.551 24.4483 16.4298C24.5203 16.3086 24.5657 16.1733 24.5818 16.0333C24.9648 12.8888 26.4296 9.97533 28.7251 7.79235C31.0206 5.60938 34.004 4.29284 37.1638 4.06823C40.3237 3.84363 43.4632 4.72506 46.0444 6.56139C48.6256 8.39774 50.4878 11.0747 51.3118 14.1334C51.3519 14.2803 51.4249 14.4163 51.5254 14.5306C51.6259 14.645 51.7513 14.7347 51.8918 14.7933C52.0275 14.8589 52.1762 14.8929 52.3268 14.8929C52.4775 14.8929 52.6262 14.8589 52.7618 14.7933C54.2388 13.9787 55.871 13.4847 57.5518 13.3434C60.6939 13.0918 63.8076 14.0971 66.2092 16.1388C68.6108 18.1805 70.1043 21.0918 70.3618 24.2335C70.4169 24.899 70.4169 25.568 70.3618 26.2335C70.3499 26.3888 70.3745 26.5445 70.4335 26.6886C70.4926 26.8327 70.5844 26.961 70.7018 27.0634C70.8188 27.167 70.9584 27.2419 71.1095 27.2819C71.2606 27.3218 71.4189 27.3256 71.5718 27.2933C71.9928 27.1945 72.4207 27.1277 72.8518 27.0934C75.419 26.8678 77.9742 27.6422 79.9844 29.2548C81.9946 30.8674 83.3046 33.1939 83.6412 35.7489C83.9779 38.3039 83.3152 40.8901 81.7913 42.9684C80.2673 45.0466 77.9998 46.4564 75.4618 46.9034L75.4418 46.7633ZM34.4739 22.0414C34.6761 21.873 34.9365 21.7909 35.1988 21.8132C35.3314 21.8268 35.4598 21.8668 35.5768 21.9308C35.6937 21.9948 35.7966 22.0816 35.8796 22.186C35.9625 22.2903 36.0237 22.4102 36.0596 22.5385C36.0955 22.6668 36.1054 22.801 36.0887 22.9333C36.0887 22.9397 36.0845 22.9927 36.0768 23.0867L36.0762 23.0933L36.0756 23.1013L36.0754 23.1031L36.0752 23.1049C35.9709 24.3872 35.3125 32.4776 36.0887 35.5732C36.1522 35.8304 36.111 36.1024 35.9741 36.3293C35.8372 36.5561 35.6159 36.7193 35.3588 36.7831C35.2794 36.7978 35.1981 36.7978 35.1188 36.7831C34.8917 36.7903 34.6689 36.72 34.4871 36.5837C34.3054 36.4473 34.1754 36.2532 34.1188 36.0331C33.3437 32.8639 33.9036 25.571 34.074 23.3522C34.0866 23.1878 34.0971 23.0512 34.1047 22.9462C34.1137 22.823 34.1188 22.7433 34.1188 22.7133C34.1441 22.4514 34.2717 22.2099 34.4739 22.0414ZM48.5008 20.3825C48.2825 20.5191 48.1253 20.7347 48.062 20.9843C47.9987 21.2339 48.034 21.4984 48.1608 21.7226C48.5208 22.7226 48.3908 29.6026 48.0508 35.7226C48.0372 35.9863 48.1283 36.2447 48.3044 36.4414C48.4805 36.6381 48.7272 36.7569 48.9908 36.7724C49.246 36.7729 49.4916 36.6759 49.6775 36.5012C49.8634 36.3264 49.9755 36.0872 49.9908 35.8325C50.3408 29.6025 50.5908 21.9326 49.8408 20.7226C49.7042 20.5043 49.4887 20.347 49.239 20.2836C48.9894 20.2203 48.725 20.2557 48.5008 20.3825ZM37.5025 42.7128C37.7325 42.6128 43.0625 41.1228 47.1825 42.7128V42.7726C47.3984 42.8579 47.5779 43.0158 47.6902 43.2189C47.8025 43.4221 47.8406 43.658 47.798 43.8862C47.7554 44.1143 47.6348 44.3207 47.4569 44.4697C47.2788 44.6186 47.0546 44.7011 46.8225 44.7028C46.699 44.7039 46.5765 44.68 46.4625 44.6327C42.9625 43.2627 38.0525 44.6327 38.0525 44.6327C37.8029 44.6902 37.5408 44.6498 37.3202 44.5197C37.0996 44.3896 36.9373 44.1797 36.8668 43.9335C36.7963 43.6873 36.8229 43.4236 36.9412 43.1965C37.0594 42.9693 37.2603 42.7962 37.5025 42.7128Z" fill="white"/>
</svg>
