<svg width="82" height="82" viewBox="0 0 82 82" fill="none" xmlns="http://www.w3.org/2000/svg">
<path fill-rule="evenodd" clip-rule="evenodd" d="M40.5547 12.23C40.8199 12.23 41.0742 12.1245 41.2618 11.937C41.4493 11.7495 41.5547 11.4952 41.5547 11.23V1C41.5547 0.734784 41.4493 0.480261 41.2618 0.292725C41.0742 0.105188 40.8199 0 40.5547 0C40.2895 0 40.0351 0.105188 39.8476 0.292725C39.6601 0.480261 39.5547 0.734784 39.5547 1V11.23C39.5547 11.4952 39.6601 11.7495 39.8476 11.937C40.0351 12.1245 40.2895 12.23 40.5547 12.23ZM28.1294 21.98C31.8081 19.5219 36.1332 18.21 40.5575 18.21C46.488 18.2179 52.1733 20.5773 56.3667 24.7708C60.5602 28.9642 62.9196 34.6494 62.9275 40.5798C62.9275 45.0042 61.6155 49.3293 59.1575 53.0081C56.6995 56.6868 53.2057 59.5539 49.1181 61.2471C45.0305 62.9402 40.5327 63.3832 36.1933 62.52C31.854 61.6569 27.868 59.5265 24.7395 56.3979C21.611 53.2694 19.4805 49.2834 18.6173 44.9441C17.7542 40.6047 18.1972 36.1069 19.8903 32.0193C21.5835 27.9317 24.4507 24.438 28.1294 21.98ZM29.2406 57.5168C32.5904 59.7551 36.5287 60.95 40.5575 60.95C45.9584 60.9447 51.1365 58.7968 54.9555 54.9778C58.7744 51.1588 60.9222 45.9807 60.9275 40.5798C60.9275 36.551 59.7328 32.6128 57.4945 29.2629C55.2562 25.9131 52.0749 23.3023 48.3528 21.7605C44.6307 20.2187 40.5349 19.8153 36.5835 20.6013C32.6321 21.3873 29.0026 23.3272 26.1538 26.176C23.305 29.0248 21.3649 32.6546 20.5789 36.606C19.793 40.5574 20.1964 44.6531 21.7381 48.3752C23.2799 52.0974 25.8907 55.2786 29.2406 57.5168ZM33.0558 43.6075C32.8683 43.7951 32.6139 43.9005 32.3487 43.9005V43.9505C32.0834 43.9505 31.8291 43.8451 31.6416 43.6576C31.454 43.47 31.3487 43.2158 31.3487 42.9505C31.3387 42.5505 31.1387 33.1206 32.7687 28.0106C32.8483 27.7573 33.0252 27.546 33.2605 27.4232C33.4959 27.3004 33.7704 27.276 34.0237 27.3556C34.277 27.4351 34.4883 27.6119 34.6111 27.8473C34.734 28.0826 34.7582 28.3572 34.6787 28.6105C33.1933 33.2704 33.3385 42.2658 33.3482 42.8692L33.3487 42.9005C33.3487 43.1657 33.2434 43.42 33.0558 43.6075ZM45.9358 27.3303C45.8104 27.2899 45.6783 27.2748 45.547 27.2856C45.4157 27.2965 45.2878 27.3331 45.1707 27.3935C45.0537 27.4539 44.9496 27.537 44.8647 27.6377C44.7798 27.7384 44.7156 27.8548 44.6758 27.9804C42.9458 33.4904 43.2658 43.7104 43.2858 44.1504C43.2858 44.4156 43.3912 44.6699 43.5787 44.8574C43.7662 45.0449 44.0206 45.1504 44.2858 45.1504C44.551 45.1504 44.8054 45.0449 44.993 44.8574C45.1805 44.6699 45.2858 44.4156 45.2858 44.1504L45.2846 44.099C45.2642 43.306 45.0158 33.6495 46.5858 28.6504C46.6357 28.5214 46.6583 28.3835 46.6522 28.2453C46.6461 28.1072 46.6114 27.9719 46.5503 27.8479C46.4892 27.7238 46.4031 27.6137 46.2973 27.5246C46.1916 27.4356 46.0685 27.3694 45.9358 27.3303ZM31.954 49.9197C34.354 47.2297 41.094 49.6796 43.874 50.8496C44.0852 50.9395 44.259 51.0994 44.3662 51.3022C44.4735 51.5051 44.5078 51.7387 44.4632 51.9639C44.4187 52.189 44.298 52.3921 44.1216 52.5388C43.9451 52.6855 43.7235 52.7671 43.494 52.7698C43.3596 52.7733 43.2262 52.7458 43.104 52.6897C38.444 50.7197 34.444 50.1298 33.444 51.2498C33.3591 51.3556 33.2534 51.4431 33.1336 51.5068C33.0137 51.5706 32.8821 51.6091 32.7469 51.6204C32.6116 51.6316 32.4755 51.6151 32.3468 51.572C32.2181 51.5289 32.0994 51.4603 31.9981 51.3699C31.8969 51.2795 31.8151 51.1694 31.7577 51.0464C31.7004 50.9234 31.6687 50.79 31.6645 50.6543C31.6604 50.5186 31.6839 50.3834 31.7337 50.2571C31.7834 50.1308 31.8584 50.0161 31.954 49.9197ZM60.6396 19.0904L65.6396 14.0904C65.8283 13.9054 66.0824 13.8028 66.3466 13.8047C66.6108 13.8066 66.8635 13.9128 67.0496 14.1004C67.2358 14.2877 67.3404 14.5413 67.3404 14.8054C67.3404 15.0696 67.2358 15.3232 67.0496 15.5105L62.0496 20.5105C61.8633 20.6953 61.6119 20.7992 61.3495 20.8003C61.2179 20.8011 61.0875 20.7759 60.9656 20.7261C60.8438 20.6763 60.733 20.6032 60.6396 20.5105C60.5459 20.4176 60.4714 20.3069 60.4207 20.1851C60.3699 20.0632 60.3438 19.9323 60.3438 19.8003C60.3438 19.6683 60.3699 19.5377 60.4207 19.4158C60.4714 19.2939 60.5459 19.1833 60.6396 19.0904ZM80.1363 39.5801H69.9062C69.641 39.5801 69.3867 39.6855 69.1992 39.873C69.0116 40.0606 68.9062 40.3149 68.9062 40.5801C68.9062 40.8453 69.0116 41.0998 69.1992 41.2874C69.3867 41.4749 69.641 41.5801 69.9062 41.5801H80.1363C80.4015 41.5801 80.6558 41.4749 80.8434 41.2874C81.0309 41.0998 81.1363 40.8453 81.1363 40.5801C81.1363 40.3149 81.0309 40.0606 80.8434 39.873C80.6558 39.6855 80.4015 39.5801 80.1363 39.5801ZM61.2899 60.3389C61.554 60.3389 61.8075 60.4434 61.9949 60.6296L66.9949 65.6296C67.0886 65.7226 67.163 65.8332 67.2137 65.9551C67.2645 66.0769 67.2906 66.2076 67.2906 66.3396C67.2906 66.4716 67.2645 66.6025 67.2137 66.7244C67.163 66.8462 67.0886 66.9566 66.9949 67.0496C66.8086 67.2343 66.5572 67.3385 66.2949 67.3396C66.1633 67.3404 66.0328 67.3151 65.9109 67.2654C65.7891 67.2156 65.6783 67.1422 65.5849 67.0496L60.5849 62.0496C60.4912 61.9566 60.4167 61.8462 60.366 61.7244C60.3152 61.6025 60.2891 61.4716 60.2891 61.3396C60.2891 61.2076 60.3152 61.0769 60.366 60.9551C60.4167 60.8332 60.4912 60.7226 60.5849 60.6296C60.7723 60.4434 61.0257 60.3389 61.2899 60.3389ZM40.5547 68.9404C40.2895 68.9404 40.0351 69.0459 39.8476 69.2334C39.6601 69.4209 39.5547 69.6752 39.5547 69.9404V80.1604C39.5547 80.4256 39.6601 80.6799 39.8476 80.8674C40.0351 81.055 40.2895 81.1604 40.5547 81.1604C40.8199 81.1604 41.0742 81.055 41.2618 80.8674C41.4493 80.6799 41.5547 80.4256 41.5547 80.1604V69.9404C41.5547 69.6752 41.4493 69.4209 41.2618 69.2334C41.0742 69.0459 40.8199 68.9404 40.5547 68.9404ZM14.1002 65.6296L19.1002 60.6296C19.2876 60.4434 19.5411 60.3389 19.8052 60.3389C20.0694 60.3389 20.3229 60.4434 20.5103 60.6296C20.604 60.7226 20.6784 60.8332 20.7291 60.9551C20.7799 61.0769 20.806 61.2076 20.806 61.3396C20.806 61.4716 20.7799 61.6025 20.7291 61.7244C20.6784 61.8462 20.604 61.9566 20.5103 62.0496L15.5103 67.0496C15.322 67.2365 15.0671 67.3413 14.8017 67.3403C14.5363 67.3394 14.2822 67.233 14.0952 67.0447C13.9082 66.8564 13.8038 66.6015 13.8047 66.3362C13.8056 66.0708 13.9119 65.8166 14.1002 65.6296ZM11.21 39.5801H1C0.734784 39.5801 0.480444 39.6855 0.292908 39.873C0.105371 40.0606 0 40.3149 0 40.5801C0 40.8453 0.105371 41.0998 0.292908 41.2874C0.480444 41.4749 0.734784 41.5801 1 41.5801H11.23C11.4952 41.5801 11.7496 41.4749 11.9371 41.2874C12.1247 41.0998 12.23 40.8453 12.23 40.5801C12.23 40.3149 12.1247 40.0606 11.9371 39.873C11.7496 39.6855 11.4952 39.5801 11.23 39.5801H11.21ZM19.4259 20.7561C19.3041 20.7064 19.1932 20.633 19.0998 20.5403L14.0998 15.5305C13.936 15.3392 13.8504 15.093 13.8601 14.8413C13.8698 14.5896 13.9742 14.351 14.1523 14.1729C14.3304 13.9948 14.5691 13.8903 14.8208 13.8806C15.0724 13.8709 15.3185 13.9565 15.5098 14.1204L20.5098 19.1204C20.6503 19.2596 20.7462 19.4375 20.7856 19.6314C20.825 19.8252 20.806 20.0262 20.7311 20.2092C20.6562 20.3923 20.5287 20.5491 20.3647 20.6597C20.2007 20.7702 20.0076 20.8295 19.8098 20.8303C19.6782 20.8311 19.5478 20.8059 19.4259 20.7561Z" fill="white"/>
</svg>
