<svg width="44" height="44" viewBox="0 0 44 44" fill="none" xmlns="http://www.w3.org/2000/svg">
<path fill-rule="evenodd" clip-rule="evenodd" d="M1.5 22C1.5 33.3218 10.6782 42.5 22 42.5C33.3218 42.5 42.5 33.3218 42.5 22C42.5 10.6782 33.3218 1.5 22 1.5C10.6782 1.5 1.5 10.6782 1.5 22ZM22 0C9.84974 0 0 9.84974 0 22C0 34.1503 9.84974 44 22 44C34.1503 44 44 34.1503 44 22C44 9.84974 34.1503 0 22 0ZM11.8789 10.4745C12.1744 10.1843 12.6536 10.1843 12.9491 10.4745L23.2578 20.5973L32.4961 11.5255C32.7917 11.2353 33.2708 11.2353 33.5664 11.5255C33.8619 11.8157 33.8619 12.2862 33.5664 12.5765L24.328 21.6483L33.5718 30.7255C33.8673 31.0157 33.8673 31.4862 33.5718 31.7764C33.2762 32.0667 32.7971 32.0667 32.5015 31.7764L23.2578 22.6993L12.9437 32.8274C12.6482 33.1176 12.169 33.1176 11.8735 32.8274C11.5779 32.5372 11.5779 32.0667 11.8735 31.7764L22.1875 21.6483L11.8789 11.5255C11.5833 11.2353 11.5833 10.7647 11.8789 10.4745Z" fill="white"/>
</svg>
