<svg width="18" height="19" viewBox="0 0 18 19" fill="none" xmlns="http://www.w3.org/2000/svg">
<path d="M9.00161 2.37891C8.0167 2.37891 7.04142 2.5729 6.13148 2.94981C5.22154 3.32672 4.39475 3.87917 3.69831 4.57561C2.29178 5.98213 1.50161 7.88978 1.50161 9.87891C1.49505 11.6108 2.0947 13.2903 3.19661 14.6264L1.69661 16.1264C1.59254 16.2319 1.52204 16.3658 1.49401 16.5113C1.46598 16.6568 1.48167 16.8073 1.53911 16.9439C1.6014 17.0789 1.70239 17.1922 1.82924 17.2697C1.9561 17.3471 2.10311 17.3852 2.25161 17.3789H9.00161C10.9907 17.3789 12.8984 16.5887 14.3049 15.1822C15.7114 13.7757 16.5016 11.868 16.5016 9.87891C16.5016 7.88978 15.7114 5.98213 14.3049 4.57561C12.8984 3.16908 10.9907 2.37891 9.00161 2.37891ZM9.00161 15.8789H4.05911L4.75661 15.1814C4.8963 15.0409 4.9747 14.8508 4.9747 14.6527C4.9747 14.4545 4.8963 14.2644 4.75661 14.1239C3.77455 13.1429 3.16299 11.8518 3.02613 10.4705C2.88926 9.08919 3.23557 7.70316 4.00603 6.54855C4.77649 5.39393 5.92345 4.54218 7.25149 4.13839C8.57954 3.7346 10.0065 3.80376 11.2893 4.33409C12.572 4.86442 13.6312 5.82311 14.2864 7.04682C14.9416 8.27054 15.1523 9.68356 14.8825 11.0452C14.6126 12.4068 13.8791 13.6327 12.8068 14.5141C11.7344 15.3955 10.3897 15.8778 9.00161 15.8789Z" fill="#888888"/>
</svg>
