<svg width="24" height="25" viewBox="0 0 24 25" fill="none" xmlns="http://www.w3.org/2000/svg">
<path d="M23.6646 9.96973H12.1875V14.6831H18.7454C18.4626 16.2069 17.6046 17.4966 16.3136 18.3613L20.2516 21.4183C22.5563 19.2964 23.8852 16.1731 23.8852 12.4611C23.8865 11.599 23.8094 10.7682 23.6646 9.96973Z" fill="#3E82F1"/>
<path d="M16.3141 18.3628C15.2234 19.0936 13.8268 19.5266 12.188 19.5266C9.01457 19.5266 6.32698 17.3831 5.36886 14.502L1.29688 17.6591C3.30242 21.6418 7.42312 24.3727 12.1866 24.3727C15.4764 24.3727 18.2358 23.282 20.2521 21.4199L16.3141 18.3628Z" fill="#32A753"/>
<path d="M5.36842 9.87001L1.29643 6.71289C0.470938 8.35847 0 10.2192 0 12.1855C0 14.1518 0.470938 16.0125 1.29643 17.6581L5.36842 14.5009C5.12483 13.7702 4.9868 12.9893 4.9868 12.1855C4.9868 11.3817 5.12483 10.6008 5.36842 9.87001Z" fill="#F9BB00"/>
<path d="M12.1866 0C7.42313 0 3.30107 2.73095 1.29688 6.71362L5.36886 9.87074C6.32698 6.99098 9.01322 4.84607 12.188 4.84607C13.977 4.84607 15.5833 5.46048 16.8459 6.66895L20.3414 3.17344C18.2303 1.20714 15.471 0 12.1866 0Z" fill="#E74133"/>
</svg>
