<svg width="18" height="19" viewBox="0 0 18 19" fill="none" xmlns="http://www.w3.org/2000/svg">
<g clip-path="url(#clip0_861_2878)">
<path d="M5.25 17.3789H3C2.60218 17.3789 2.22064 17.2209 1.93934 16.9396C1.65804 16.6583 1.5 16.2767 1.5 15.8789V10.6289C1.5 10.2311 1.65804 9.84955 1.93934 9.56825C2.22064 9.28694 2.60218 9.12891 3 9.12891H5.25M10.5 7.62891V4.62891C10.5 4.03217 10.2629 3.45987 9.84099 3.03792C9.41903 2.61596 8.84674 2.37891 8.25 2.37891L5.25 9.12891V17.3789H13.71C14.0717 17.383 14.4228 17.2562 14.6984 17.0219C14.9741 16.7876 15.1558 16.4616 15.21 16.1039L16.245 9.35391C16.2776 9.13892 16.2631 8.91942 16.2025 8.71059C16.1419 8.50177 16.0366 8.30863 15.8939 8.14454C15.7512 7.98046 15.5746 7.84935 15.3762 7.76032C15.1778 7.67128 14.9624 7.62644 14.745 7.62891H10.5Z" stroke="#888888" stroke-width="2" stroke-linecap="round" stroke-linejoin="round"/>
</g>
<defs>
<clipPath id="clip0_861_2878">
<rect width="18" height="18" fill="white" transform="translate(0 0.878906)"/>
</clipPath>
</defs>
</svg>
