<svg width="20" height="25" viewBox="0 0 20 25" fill="none" xmlns="http://www.w3.org/2000/svg">
<path fill-rule="evenodd" clip-rule="evenodd" d="M11.0127 1.86447C11.9131 0.817959 13.4194 0.0509042 14.6752 0.000151896C14.7783 -0.00387983 14.8698 0.072802 14.8813 0.176046C15.0269 1.49355 14.5455 2.96442 13.5934 4.11053C12.6888 5.19594 11.3643 5.87003 10.1364 5.87003C10.0502 5.86995 9.96369 5.86663 9.87893 5.86006C9.78517 5.85287 9.70932 5.78149 9.69698 5.68899C9.50005 4.21069 10.2475 2.7441 11.0127 1.86447ZM2.54797 21.023C0.276426 17.7683 -1.02943 12.4003 1.02471 8.86304C2.10496 6.99865 4.06438 5.82138 6.13804 5.79111C6.15867 5.79071 6.17963 5.79047 6.2009 5.79047C7.09274 5.79047 7.93519 6.12218 8.67845 6.41492L8.67907 6.41516C9.23463 6.63388 9.71439 6.82275 10.0841 6.82275C10.4133 6.82275 10.8906 6.63603 11.4431 6.41982C12.2436 6.10661 13.2399 5.7168 14.28 5.7168C14.4132 5.7168 14.5459 5.7232 14.6744 5.73593C15.5599 5.77372 17.7595 6.08779 19.1945 8.1718C19.2248 8.21575 19.236 8.27014 19.2253 8.3224C19.2146 8.37473 19.1831 8.4205 19.138 8.44936L19.1185 8.46137C18.7016 8.71735 16.6225 10.1296 16.6492 12.7966C16.6779 16.0792 19.4138 17.2836 19.7257 17.4101L19.7402 17.4163C19.8327 17.4584 19.8783 17.563 19.846 17.6587L19.8392 17.6801C19.6697 18.2188 19.1675 19.6284 18.1664 21.0802L18.1662 21.0805C17.2069 22.4709 16.1195 24.0468 14.3485 24.0796C13.5229 24.0949 12.9635 23.8548 12.421 23.6218L12.4164 23.6199L12.4161 23.6197C11.8643 23.3828 11.2936 23.1377 10.3994 23.1377C9.4594 23.1377 8.86009 23.3911 8.28061 23.6362L8.27998 23.6364C7.76403 23.8544 7.23034 24.08 6.49191 24.1092C6.46148 24.1104 6.43176 24.1109 6.40213 24.1109C4.82979 24.1109 3.68183 22.6503 2.54797 21.023Z" fill="black"/>
</svg>
