<svg width="400" height="106" viewBox="0 0 400 106" fill="none" xmlns="http://www.w3.org/2000/svg">
<path d="M234.387 0H156.312C148.917 0 142.92 5.99715 142.92 13.3918V91.46C142.92 98.8546 148.917 104.852 156.312 104.852H234.38C241.775 104.852 247.772 98.8546 247.772 91.46V13.3918C247.779 5.99715 241.782 0 234.387 0ZM245.644 91.46C245.644 97.6678 240.595 102.717 234.387 102.717H156.312C150.104 102.717 145.055 97.6678 145.055 91.46V13.3918C145.055 7.18394 150.104 2.13482 156.312 2.13482H234.38C240.588 2.13482 245.637 7.18394 245.637 13.3918V91.46H245.644Z" fill="#F9F9F9"/>
<path d="M85.2731 49.2545C83.6791 48.3626 81.9726 48.0607 80.1749 48.2152C79.2268 48.2994 78.2788 48.4539 77.3027 48.5803C76.9375 45.0902 75.1047 42.7588 72.2114 41.0312C69.5219 44.8234 69.248 48.6365 71.6075 52.7095C70.8772 53.0887 70.2382 53.475 69.557 53.7559C66.9727 54.8092 64.241 55.0129 61.4953 55.0199C47.7594 55.0339 34.0306 55.0269 20.2947 55.0269C19.5504 55.0269 18.9324 54.9637 18.8973 56.0592C18.6023 65.0268 22.4787 74.5071 34.9014 76.8175C36.6219 77.1405 38.3704 77.309 40.112 77.5548C41.0881 77.5548 42.0642 77.5548 43.0404 77.5548C44.3395 77.4003 45.6316 77.2599 46.9308 77.0984C60.2242 75.3779 69.7536 68.4468 75.5471 56.3822C75.8631 55.7292 76.2564 55.5817 76.9024 55.4834C78.5176 55.2235 80.1678 54.9848 81.7128 54.4721C83.5105 53.8823 84.8588 52.6323 85.7436 50.9118C86.1299 50.1604 86.0316 49.6758 85.2731 49.2545Z" fill="#F9F9F9"/>
<path d="M29.6433 45.623H22.8315V52.4348H29.6433V45.623Z" fill="#F9F9F9"/>
<path d="M37.9858 45.623H31.1741V52.4348H37.9858V45.623Z" fill="#F9F9F9"/>
<path d="M46.3216 45.623H39.5099V52.4348H46.3216V45.623Z" fill="#F9F9F9"/>
<path d="M54.6712 45.623H47.8595V52.4348H54.6712V45.623Z" fill="#F9F9F9"/>
<path d="M37.9858 36.916H31.1741V43.7278H37.9858V36.916Z" fill="#F9F9F9"/>
<path d="M46.3216 36.916H39.5099V43.7278H46.3216V36.916Z" fill="#F9F9F9"/>
<path d="M54.6712 36.916H47.8595V43.7278H54.6712V36.916Z" fill="#F9F9F9"/>
<path d="M54.6712 28.207H47.8595V35.0188H54.6712V28.207Z" fill="#F9F9F9"/>
<path d="M63.0139 45.623H56.2021V52.4348H63.0139V45.623Z" fill="#F9F9F9"/>
<path d="M91.4599 0.455078H13.3918C5.99715 0.455078 0 6.4522 0 13.8468V91.915C0 99.3096 5.99715 105.307 13.3918 105.307H91.4599C98.8545 105.307 104.852 99.3096 104.852 91.915V13.8468C104.852 6.44518 98.8545 0.455078 91.4599 0.455078ZM102.717 91.915C102.717 98.1228 97.6677 103.172 91.4599 103.172H13.3918C7.18394 103.172 2.13482 98.1228 2.13482 91.915V13.8468C2.13482 7.63899 7.18394 2.58988 13.3918 2.58988H91.4599C97.6677 2.58988 102.717 7.63899 102.717 13.8468V91.915Z" fill="#F9F9F9"/>
<path d="M386.604 0H308.536C301.141 0 295.144 5.99715 295.144 13.3918V91.46C295.144 98.8546 301.141 104.852 308.536 104.852H386.604C393.999 104.852 399.996 98.8546 399.996 91.46V13.3918C399.996 5.99715 394.006 0 386.604 0ZM397.861 91.46C397.861 97.6678 392.812 102.717 386.604 102.717H308.536C302.328 102.717 297.279 97.6678 297.279 91.46V13.3918C297.279 7.18394 302.328 2.13482 308.536 2.13482H386.604C392.812 2.13482 397.861 7.18394 397.861 13.3918V91.46Z" fill="#F9F9F9"/>
<path d="M353.945 50.5246C358.264 50.5246 361.768 47.0204 361.768 42.7016V31.2551C361.768 24.7523 356.494 19.4785 349.991 19.4785H341.41C335.743 19.4785 331.15 24.0712 331.15 29.7383V33.2073H346.459V36.4728H326.831C320.188 36.4728 314.809 41.859 314.809 48.4951V54.9417C314.809 61.5849 320.195 66.9641 326.831 66.9641H329.289V60.0189C329.289 54.7732 333.545 50.5176 338.79 50.5176H353.945V50.5246ZM337.913 30.1385C336.326 30.1385 335.033 28.8464 335.033 27.2593C335.033 25.6653 336.326 24.3802 337.913 24.3802C339.507 24.3802 340.792 25.6653 340.792 27.2593C340.792 28.8464 339.5 30.1385 337.913 30.1385Z" fill="#F9F9F9"/>
<path d="M368.323 37.8848H365.865V44.8299C365.865 50.0757 361.609 54.3313 356.363 54.3313H341.202C336.883 54.3313 333.379 57.8354 333.379 62.1542V73.6008C333.379 80.1035 338.653 85.3774 345.156 85.3774H353.737C359.404 85.3774 363.997 80.7847 363.997 75.1176V70.9463H348.688V67.6809H368.315C374.959 67.6809 380.338 62.2947 380.338 55.6585V49.9142C380.345 43.271 374.959 37.8848 368.323 37.8848ZM357.241 74.7173C358.828 74.7173 360.12 76.0095 360.12 77.5965C360.12 79.1906 358.828 80.4757 357.241 80.4757C355.647 80.4757 354.362 79.1906 354.362 77.5965C354.362 76.0095 355.647 74.7173 357.241 74.7173Z" fill="#F9F9F9"/>
<path d="M166.611 61.0377C166.014 61.5784 166.014 62.5124 166.604 63.0601L171.239 67.3087C171.723 67.7581 172.461 67.7862 172.987 67.3929L182.447 61.9084L174.399 54.9492L166.611 61.0377Z" fill="#F9F9F9"/>
<path d="M223.847 29.8476L222.984 29.4263L210.378 23.3379C210.378 23.3379 208.791 23.0078 207.548 23.9699C207.485 24.005 207.436 24.0471 207.401 24.0752L207.338 24.1314L207.253 24.2086L186.165 43.1902L195.336 50.0862L210.385 38.9978V65.5496V65.6058L172.549 36.8209C171.889 36.3012 170.94 36.3363 170.323 36.9122L166.172 40.7815C165.442 41.4627 165.449 42.6284 166.186 43.2956L207.52 80.8444C208.749 82.0101 210.392 81.4132 210.392 81.4132L223.208 75.1562L223.538 74.9947C224.493 74.5313 225.097 73.5551 225.097 72.4948V31.835C225.083 30.9853 224.606 30.2128 223.847 29.8476Z" fill="#F9F9F9"/>
</svg>
