<svg width="1440" height="1000" viewBox="0 0 1440 1000" fill="none" xmlns="http://www.w3.org/2000/svg">
<mask id="mask0_861_2396" style="mask-type:alpha" maskUnits="userSpaceOnUse" x="0" y="0" width="1440" height="1000">
<rect width="1440" height="1000" fill="white"/>
</mask>
<g mask="url(#mask0_861_2396)">
<path d="M503.377 88.1207C553.473 47.1994 613.459 20.1858 677.304 9.79505C741.149 -0.595728 806.605 6.00244 867.092 28.9264C927.579 51.8503 980.966 90.2923 1021.89 140.389C1062.81 190.485 1089.82 250.47 1100.21 314.315C1110.6 378.16 1104.01 443.616 1081.08 504.103C1058.16 564.59 1019.72 617.977 969.619 658.898C919.523 699.82 859.538 726.833 795.693 737.224C731.847 747.615 666.392 741.017 605.905 718.093L634.184 643.474C681.573 661.434 732.854 666.604 782.874 658.463C832.894 650.322 879.89 629.158 919.138 597.098C958.386 565.038 988.503 523.212 1006.46 475.823C1024.42 428.435 1029.59 377.153 1021.45 327.134C1013.31 277.114 992.147 230.118 960.087 190.87C928.027 151.622 886.201 121.505 838.812 103.545C791.423 85.585 740.142 80.4157 690.122 88.5564C640.103 96.697 593.107 117.861 553.859 149.921L503.377 88.1207Z" fill="#FFC700"/>
<path d="M1128 -35C1128 190.332 945.332 373 720 373C494.668 373 312 190.332 312 -35C312 -260.332 494.668 -443 720 -443C945.332 -443 1128 -260.332 1128 -35Z" fill="#0D70BA"/>
</g>
</svg>
