<svg width="310" height="310" viewBox="0 0 310 310" fill="none" xmlns="http://www.w3.org/2000/svg">
<path d="M0.000105103 155C0.000112587 69.3959 69.396 0.000101036 155 0.00010852C240.604 0.000116004 310 69.396 310 155C310 240.604 240.604 310 155 310C69.3959 310 9.76195e-05 240.604 0.000105103 155ZM276.521 155C276.521 87.8856 222.114 33.4787 155 33.4787C87.8857 33.4787 33.4787 87.8856 33.4787 155C33.4786 222.114 87.8856 276.521 155 276.521C222.114 276.521 276.521 222.114 276.521 155Z" fill="#FFC700"/>
<path d="M164.033 130.412C164.205 130.776 164.569 130.988 164.953 130.988C165.094 130.988 165.246 130.958 165.387 130.887C165.892 130.645 166.104 130.048 165.872 129.543C164.437 126.512 160.174 116.268 160.133 116.156C159.921 115.641 159.325 115.399 158.81 115.611C158.295 115.823 158.052 116.419 158.264 116.934C158.436 117.369 162.578 127.331 164.033 130.412Z" fill="#FFC700"/>
<path d="M138.152 143.35C138.333 143.693 138.687 143.895 139.051 143.895C139.212 143.895 139.364 143.855 139.515 143.784C140.011 143.532 140.202 142.915 139.94 142.42C138.253 139.167 132.403 128.539 132.352 128.438C132.079 127.953 131.463 127.771 130.978 128.033C130.493 128.306 130.311 128.912 130.584 129.407C130.645 129.519 136.474 140.127 138.152 143.35Z" fill="#FFC700"/>
<path d="M169.382 132.967C169.422 132.967 169.452 132.977 169.493 132.977C169.998 132.977 170.443 132.593 170.493 132.077L170.827 128.976C170.887 128.42 170.483 127.925 169.927 127.864C169.372 127.804 168.877 128.208 168.816 128.764L168.483 131.865C168.422 132.401 168.826 132.906 169.382 132.967Z" fill="#FFC700"/>
<path d="M172.668 130.355C172.678 130.355 172.688 130.355 172.698 130.355C173.244 130.355 173.688 129.921 173.708 129.375L173.769 127.365C173.789 126.809 173.345 126.344 172.789 126.324C172.779 126.324 172.769 126.324 172.759 126.324C172.213 126.324 171.768 126.759 171.748 127.304L171.688 129.315C171.678 129.87 172.112 130.335 172.668 130.355Z" fill="#FFC700"/>
<path d="M127.982 148.496C128.244 148.435 134.488 147.081 140.772 152.82C140.964 152.992 141.207 153.083 141.449 153.083C141.722 153.083 141.995 152.971 142.197 152.749C142.571 152.335 142.54 151.698 142.126 151.325C135.013 144.848 127.81 146.455 127.507 146.536C126.961 146.667 126.628 147.202 126.759 147.748C126.901 148.284 127.436 148.627 127.982 148.496Z" fill="#FFC700"/>
<path d="M143.969 155.981C144.131 156.365 144.505 156.597 144.899 156.597C145.03 156.597 145.161 156.567 145.293 156.516C145.808 156.304 146.05 155.708 145.828 155.193C145.515 154.435 144.828 153.718 144.747 153.637C144.363 153.233 143.717 153.223 143.323 153.607C142.918 153.991 142.908 154.637 143.292 155.031C143.494 155.254 143.848 155.678 143.969 155.981Z" fill="#FFC700"/>
<path d="M151.059 159.284C151.14 159.284 151.221 159.274 151.292 159.254C151.878 159.112 165.85 155.627 173.539 142.341C173.822 141.856 173.65 141.24 173.175 140.957C172.69 140.674 172.074 140.846 171.791 141.331C164.557 153.839 150.958 157.253 150.827 157.284C150.281 157.415 149.948 157.961 150.079 158.506C150.191 158.971 150.605 159.284 151.059 159.284Z" fill="#FFC700"/>
<path d="M173.03 138.31C172.807 138.815 173.04 139.411 173.545 139.643C174.05 139.866 174.848 140.421 174.929 140.886C175.02 141.371 175.444 141.715 175.919 141.715C175.98 141.715 176.04 141.704 176.101 141.694C176.647 141.593 177.01 141.068 176.909 140.522C176.596 138.805 174.575 137.885 174.343 137.784C173.848 137.562 173.252 137.795 173.03 138.31Z" fill="#FFC700"/>
<path d="M204.945 237.089C211.522 225.409 206.117 208.082 202.156 195.433L202.116 195.292C196.913 178.642 178.161 168.013 174.191 165.932L176.262 157.011C183.738 148.403 186.769 135.986 184.354 123.488C184.526 123.498 184.698 123.518 184.87 123.518C185.587 123.518 186.294 123.428 186.991 123.256C189.275 122.69 191.194 121.255 192.386 119.204C193.649 117.052 193.973 114.496 193.286 112.011C192.871 110.495 192.114 109.142 191.073 108.01L191.285 107.475C192.033 105.626 191.417 103.504 189.8 102.332C188.557 101.433 187.8 100.554 187.668 99.8466C187.557 99.2303 188.719 98.6949 189.214 98.4928C191.124 97.725 192.316 95.967 192.235 94.0272L192.093 90.4001C192.013 88.2886 190.174 86.6013 187.992 86.6013C187.971 86.6013 187.951 86.6013 187.921 86.6013C186.537 86.6215 185.264 86.5912 184.142 86.5205C185.011 86.2679 185.86 85.9951 186.577 85.6819C187.81 85.1566 188.588 83.9644 188.567 82.6611L188.446 75.6292C188.426 74.73 188.042 73.9117 187.365 73.2954C186.658 72.669 185.718 72.3659 184.759 72.4568C182.142 72.7094 178.404 72.6892 175.423 71.1535C175.009 70.9414 174.443 70.6181 173.736 70.224C169.513 67.8296 160.733 62.8588 150.963 61.3635C138.839 59.5045 129.312 63.5458 122.614 73.3863C120.037 73.3459 110.025 73.8309 100.427 83.1763C95.133 88.3391 92.8294 94.1181 90.9806 98.7656C89.3236 102.928 88.0203 106.222 85.2723 107.879C84.5549 108.313 84.0599 109 83.878 109.808C83.686 110.627 83.8376 111.475 84.3023 112.183L85.4541 113.961C86.2826 115.244 87.9496 115.769 89.4045 115.224C91.9303 114.274 93.5973 113.435 94.7187 112.738C94.4258 114.213 93.9105 116.022 93.0416 117.446C91.4251 120.114 87.3333 129.873 88.4649 133.773C88.6669 134.48 89.1721 135.066 89.849 135.4C90.5562 135.743 91.3847 135.774 92.1121 135.481L96.0726 133.905C96.9617 133.551 97.5982 132.763 97.7295 131.833C97.7699 131.54 97.8204 131.247 97.871 130.985C98.5984 133.096 99.2147 136.37 97.5679 139.3C94.062 145.543 98.2953 148.948 100.831 150.989C101.013 151.131 101.286 151.221 101.538 151.221C101.619 151.221 101.7 151.211 101.771 151.191L106.529 150.019C108.348 152.131 110.924 153.333 113.571 153.333C114.279 153.333 114.996 153.252 115.703 153.07C117.168 152.707 118.471 151.979 119.542 150.969C120.088 151.706 120.664 152.414 121.25 153.121C120.714 153.474 120.179 153.858 119.653 154.293C114.268 158.738 110.409 174.206 108.702 182.36C107.53 181.955 106.287 181.774 105.559 182.38C105.378 182.531 105.145 182.804 105.064 183.228C104.751 184.734 97.9215 217.61 103.66 236.482C104.913 240.594 106.772 243.454 109.217 245.04C108.328 247.01 108.186 249.738 111.046 252.9C113.4 255.497 116.4 256.456 119.603 256.456C125.594 256.456 132.252 253.092 136.516 250.94C140.87 248.748 143.608 248.232 144.881 248.121C144.972 250.677 144.952 252.496 144.952 252.536C144.942 253.072 145.346 253.516 145.881 253.557C146.053 253.567 147.336 253.668 149.64 253.668C155.783 253.668 169.22 252.981 188.658 248.192C196.377 246.303 201.853 242.565 204.945 237.089ZM101.74 149.14C98.7701 146.705 96.9516 144.553 99.3359 140.31C102.589 134.521 98.7903 128.014 98.6287 127.742C98.4569 127.449 98.1437 127.267 97.8002 127.247C97.4365 127.247 97.1334 127.388 96.9313 127.671C96.406 128.408 95.9917 129.722 95.7291 131.561C95.6988 131.773 95.5472 131.955 95.3249 132.046L91.3645 133.622C91.1624 133.702 90.93 133.692 90.7381 133.601C90.6471 133.551 90.4754 133.44 90.4148 133.228C89.5661 130.278 93.0315 121.377 94.7794 118.507C96.8303 115.143 97.1233 110.314 97.1334 110.101C97.1637 109.606 96.8202 109.162 96.3353 109.061C95.8503 108.96 95.3553 109.222 95.1835 109.687C94.9309 110.344 93.082 111.688 88.6972 113.345C88.1214 113.567 87.4747 113.365 87.1615 112.87L86.0098 111.092C85.8481 110.839 85.7976 110.546 85.8582 110.263C85.9189 109.99 86.0906 109.758 86.3331 109.606C89.657 107.586 91.1523 103.847 92.8699 99.5132C94.7389 94.8152 96.8606 89.4807 101.852 84.6211C112.036 74.6896 122.967 75.407 123.068 75.4171C123.452 75.4474 123.786 75.2756 123.988 74.9624C138.678 52.6849 164.32 67.2032 172.746 71.982C173.483 72.3962 174.069 72.7296 174.504 72.9519C177.909 74.7098 182.061 74.7503 184.961 74.4674C185.355 74.427 185.739 74.5583 186.032 74.8109C186.284 75.0433 186.426 75.3464 186.436 75.6697L186.557 82.6914C186.567 83.1763 186.264 83.6209 185.789 83.8229C183.415 84.8434 179.101 85.6011 179.06 85.6112C178.616 85.692 178.282 86.0456 178.232 86.4902C178.181 86.9347 178.424 87.3591 178.828 87.5409C181.081 88.5209 185.041 88.6725 187.961 88.6321C187.971 88.6321 187.981 88.6321 188.002 88.6321C189.113 88.6321 190.053 89.4605 190.093 90.4911L190.235 94.1181C190.275 95.1992 189.588 96.1893 188.477 96.6338C185.678 97.7654 185.537 99.3718 185.698 100.231C185.931 101.483 186.921 102.746 188.638 103.989C189.507 104.615 189.83 105.747 189.436 106.727L189.426 106.737C186.476 105.009 183.536 104.726 181.414 106.02C180.02 106.868 179.273 108.253 179.454 109.637C179.606 110.768 179.151 112.102 178.737 113.011C178.505 113.526 177.979 113.89 177.363 113.961L173.574 114.365C173.069 114.415 172.574 114.264 172.2 113.931C171.867 113.627 171.675 113.223 171.675 112.799C171.645 107.858 170.22 104.292 167.452 102.191C163.208 98.9879 157.46 100.524 157.217 100.594C156.793 100.716 156.49 101.089 156.48 101.534C156.439 102.625 157.025 104.161 160.016 105.252C160.339 105.373 160.551 105.666 160.551 105.989L160.541 109.051C160.541 109.334 160.369 109.606 160.087 109.748C151.277 114.335 143.093 109.344 137.678 106.04C136.516 105.333 135.505 104.716 134.596 104.242C132.636 103.231 131.161 103.575 130.272 104.039C127.837 105.312 126.897 108.859 126.604 110.384C125.049 110.95 123.361 112.486 123.806 115.173C125.554 125.549 124.786 130.651 123.826 133.106C123.675 133.49 123.361 133.804 122.947 133.965C122.472 134.147 121.947 134.127 121.492 133.915L117.4 131.924C116.744 131.601 116.39 130.924 116.542 130.257C117.451 126.317 117.289 123.619 116.087 122.256C115.865 122.003 115.541 121.882 115.208 121.922C114.875 121.963 114.592 122.165 114.44 122.468C114.238 122.852 109.682 131.965 115.43 139.482C115.845 140.027 115.905 140.744 115.582 141.361L115.471 141.583C115.218 142.068 114.743 142.432 114.178 142.583C113.602 142.735 112.995 142.634 112.521 142.321C107.792 139.199 105.428 140.936 104.438 142.25C104.125 142.664 104.196 143.23 104.559 143.583C104.185 145.574 104.741 147.231 105.297 148.281L101.74 149.14ZM118.603 145.978C118.32 145.503 117.693 145.341 117.219 145.634C116.744 145.917 116.582 146.544 116.875 147.019C117.34 147.786 117.835 148.554 118.36 149.312C117.501 150.191 116.441 150.827 115.228 151.131C112.49 151.807 109.581 150.726 107.722 148.312C107.722 148.312 107.722 148.312 107.711 148.302C107.691 148.271 107.671 148.251 107.651 148.231C107.631 148.211 105.57 145.877 106.873 142.775C107.924 142.31 109.429 142.725 111.369 144.008C112.329 144.634 113.521 144.836 114.652 144.543C115.764 144.26 116.703 143.523 117.229 142.523L117.34 142.3C118.027 140.987 117.896 139.441 116.996 138.259C115.319 136.067 114.683 133.672 114.572 131.449C114.824 132.419 115.511 133.278 116.491 133.753L120.583 135.743C121.543 136.208 122.664 136.249 123.654 135.865C124.604 135.491 125.321 134.773 125.685 133.854C127.201 129.934 127.231 123.549 125.766 114.85C125.412 112.728 127.271 112.263 127.635 112.193C128.069 112.112 128.403 111.768 128.463 111.334C128.635 110.112 129.443 106.737 131.181 105.838C131.868 105.484 132.677 105.555 133.646 106.05C134.495 106.484 135.475 107.081 136.607 107.768C142.416 111.304 151.186 116.658 160.996 111.546C161.946 111.051 162.532 110.101 162.542 109.061L162.552 106.01C162.562 104.838 161.804 103.777 160.683 103.363C159.854 103.059 159.218 102.696 158.844 102.332C160.521 102.09 163.754 101.948 166.209 103.807C168.452 105.504 169.604 108.535 169.624 112.809C169.634 113.809 170.068 114.769 170.826 115.436C171.614 116.143 172.685 116.487 173.756 116.365L177.545 115.961C178.868 115.82 180.02 115.001 180.546 113.829C181.071 112.668 181.637 110.95 181.425 109.354C181.344 108.788 181.738 108.151 182.435 107.737C183.051 107.363 185.365 106.353 189.164 108.97C190.194 109.94 190.952 111.152 191.326 112.536C191.861 114.486 191.619 116.487 190.629 118.174C189.709 119.74 188.234 120.851 186.486 121.286C185.627 121.498 184.738 121.538 183.859 121.407C183.758 121.013 183.688 120.609 183.576 120.215C183.435 119.679 182.879 119.356 182.334 119.507C181.798 119.649 181.475 120.205 181.627 120.75C185.617 135.481 181.505 150.555 171.16 159.163C170.735 159.516 170.675 160.153 171.028 160.587C171.23 160.83 171.513 160.951 171.806 160.951C172.029 160.951 172.261 160.87 172.453 160.718C172.827 160.405 173.17 160.072 173.524 159.749L170.745 171.751C170.25 173.731 163.703 178.571 155.823 177.187C151.6 176.449 150.337 175.257 149.973 174.62C149.7 174.146 149.812 173.792 149.812 173.792C149.842 173.721 149.862 173.651 149.882 173.58L150.973 168.144C151.186 168.144 151.398 168.165 151.61 168.165C151.943 168.165 152.267 168.165 152.6 168.154C153.156 168.134 153.6 167.669 153.58 167.114C153.56 166.568 153.115 166.134 152.57 166.134C152.56 166.134 152.55 166.134 152.539 166.134C149.508 166.215 146.579 165.881 143.608 165.134C143.224 160.355 141.305 155.071 139.102 153.454C136.223 151.343 129.666 148.867 123.038 152.131C121.401 150.201 119.876 148.089 118.603 145.978ZM147.084 171.115C147.599 170.933 148.043 170.801 148.407 170.69L147.922 173.095C147.801 173.449 147.579 174.398 148.165 175.5C149.094 177.247 151.549 178.48 155.49 179.167C156.581 179.359 157.652 179.45 158.702 179.45C166.027 179.45 171.998 175.166 172.736 172.216L173.716 167.962C173.807 168.013 173.908 168.064 174.009 168.124C174.201 173.034 173.837 177.268 169.008 179.601C163.572 182.228 149.559 181.854 146.316 178.207C143.608 175.186 146.366 171.883 147.084 171.115ZM143.265 170.387C143.416 169.832 143.537 169.235 143.608 168.589C143.659 168.144 143.679 167.68 143.689 167.215C145.447 167.629 147.185 167.912 148.943 168.043L148.852 168.478C148.256 168.619 146.134 169.175 143.265 170.387ZM120.947 155.869C127.655 150.322 134.98 152.919 137.91 155.071C139.9 156.526 142.123 163.497 141.588 168.367C141.466 169.448 141.163 170.741 140.476 171.67C139.506 172.165 138.486 172.721 137.435 173.358C134.626 174.196 132.626 173.762 131.868 172.044C131.595 171.428 131.464 170.367 131.343 169.337C131.131 167.639 130.949 166.174 130.11 165.447C129.686 165.083 129.049 165.134 128.686 165.548C128.322 165.972 128.373 166.609 128.787 166.972C129.049 167.265 129.231 168.71 129.342 169.579C129.484 170.751 129.635 171.963 130.029 172.852C130.221 173.277 130.636 174.004 131.403 174.641C131.121 175.176 130.454 176.045 128.908 176.853C128.595 177.015 128.221 177.177 127.807 177.358C124.927 178.611 120.068 180.733 119.189 189.361C119.189 189.381 119.189 189.402 119.179 189.412C119.007 191.079 118.997 192.998 119.169 195.201C115.804 193.493 112.197 190.048 109.803 187.31C110.449 183.744 114.764 160.981 120.947 155.869ZM122.29 189.806C121.906 189.523 121.563 189.27 121.26 189.068C122.149 182.046 126.049 180.339 128.615 179.217C129.08 179.015 129.494 178.834 129.848 178.652C131.798 177.631 132.737 176.449 133.192 175.58C133.424 175.651 133.667 175.702 133.929 175.742C129.615 178.955 125.281 183.501 122.29 189.806ZM124.917 195.665C124.897 195.756 124.604 196.049 123.523 196.211C122.826 196.322 122.068 196.241 121.27 196.039C121.098 194.322 121.028 192.796 121.068 191.432C123.351 193.14 125.069 194.978 124.917 195.665ZM108.297 184.38C108.237 184.693 108.176 184.986 108.126 185.259C107.772 184.794 107.499 184.39 107.307 184.077C107.6 184.148 107.944 184.259 108.297 184.38ZM141.598 246.737L141.8 244.05C141.84 243.494 141.426 243.009 140.87 242.969C140.325 242.928 139.83 243.343 139.789 243.898L139.516 247.434C138.365 247.859 137.071 248.414 135.606 249.162C129.545 252.213 118.279 257.901 112.541 251.567C110.763 249.596 110.257 247.758 111.025 245.969C111.551 246.161 112.086 246.303 112.652 246.404C113.187 246.495 113.723 246.535 114.268 246.535C119.957 246.535 126.008 241.908 129.009 238.048C134.96 237.26 141.385 236.634 143.679 236.422C144.315 239.402 144.629 243.05 144.79 246.131C144.063 246.171 143.002 246.343 141.598 246.737ZM146.973 251.607C146.962 248.849 146.821 240.898 145.528 235.351C150.842 234.533 173.089 230.946 183.688 226.652C183.779 226.632 183.869 226.591 183.95 226.551C185.577 225.874 186.931 225.187 187.86 224.49C188.305 224.157 188.396 223.52 188.062 223.076C187.729 222.631 187.092 222.54 186.648 222.873C186.304 223.126 185.89 223.379 185.435 223.631C187.113 219.155 189.8 208.88 187.143 193.251C187.052 192.705 186.527 192.331 185.981 192.422C185.435 192.513 185.062 193.039 185.153 193.584C188.315 212.124 183.597 223.035 182.698 224.894C171.129 229.501 144.427 233.472 144.123 233.522C143.83 233.563 143.578 233.724 143.426 233.977C143.335 234.108 143.295 234.26 143.275 234.421C141.032 234.634 135.728 235.149 130.434 235.816C130.504 235.664 130.565 235.523 130.626 235.381C132.616 230.047 133.111 208.668 133.141 207.769C133.151 207.213 132.717 206.749 132.151 206.739C132.141 206.739 132.131 206.739 132.131 206.739C131.585 206.739 131.131 207.173 131.121 207.729C131.121 207.951 130.605 229.673 128.736 234.684C128.615 235.007 128.342 235.573 127.756 236.381C125.018 240.16 118.431 245.323 112.995 244.413C112.369 244.312 111.783 244.1 111.207 243.827C111.187 243.817 111.177 243.787 111.157 243.777C111.046 243.706 110.934 243.666 110.813 243.646C108.54 242.403 106.792 239.827 105.61 235.937C100.963 220.651 104.984 194.958 106.529 186.492C109.106 189.977 114.764 195.878 119.936 197.727C119.977 197.747 120.017 197.757 120.068 197.777C121.048 198.11 122.008 198.302 122.927 198.302C123.24 198.302 123.553 198.282 123.856 198.232C124.24 198.171 124.584 198.09 124.897 197.989C124.442 204.496 123.169 224.076 124.048 227.097C124.18 227.541 124.584 227.824 125.018 227.824C125.109 227.824 125.21 227.814 125.301 227.784C125.837 227.632 126.15 227.066 125.988 226.531C125.311 224.197 126.251 207.163 127.049 196.282C127.059 196.11 127.019 195.948 126.948 195.797C127.039 194.281 125.544 192.533 123.937 191.119C127.504 183.35 133.343 178.318 138.546 175.156C139.042 174.984 139.567 174.792 140.123 174.55C140.729 174.287 141.254 173.893 141.709 173.408C142.456 173.034 143.164 172.701 143.841 172.408C142.901 174.489 142.658 177.136 144.831 179.571C147.195 182.228 152.964 183.36 158.601 183.36C163.037 183.36 167.391 182.653 169.917 181.44C175.332 178.823 176.161 174.156 176.09 169.337C182.546 173.226 196.104 182.723 200.216 195.898L200.257 196.039C204.096 208.335 209.36 225.187 203.207 236.099C200.368 241.14 195.448 244.464 188.184 246.252C165.421 251.849 150.691 251.748 146.973 251.607Z" fill="#FFC700"/>
<path d="M99.4975 227.448C99.4975 226.892 99.0429 226.438 98.4872 226.438H69.0767C68.5211 226.438 68.0664 226.892 68.0664 227.448C68.0664 228.003 68.5211 228.458 69.0767 228.458H98.4973C99.053 228.458 99.4975 228.003 99.4975 227.448Z" fill="#FFC700"/>
<path d="M240.352 226.438H212.76C212.205 226.438 211.75 226.892 211.75 227.448C211.75 228.003 212.205 228.458 212.76 228.458H240.352C240.908 228.458 241.363 228.003 241.363 227.448C241.363 226.892 240.908 226.438 240.352 226.438Z" fill="#FFC700"/>
<path d="M101.566 236.399C101.566 235.843 101.112 235.389 100.556 235.389H78.6119C78.0562 235.389 77.6016 235.843 77.6016 236.399C77.6016 236.955 78.0562 237.409 78.6119 237.409H100.556C101.112 237.409 101.566 236.965 101.566 236.399Z" fill="#FFC700"/>
<path d="M230.816 235.389H211.6C211.044 235.389 210.59 235.843 210.59 236.399C210.59 236.955 211.044 237.409 211.6 237.409H230.816C231.372 237.409 231.827 236.955 231.827 236.399C231.827 235.843 231.382 235.389 230.816 235.389Z" fill="#FFC700"/>
<path d="M104.436 245.362C104.436 244.806 103.981 244.352 103.426 244.352H89.7056C89.15 244.352 88.6953 244.806 88.6953 245.362C88.6953 245.918 89.15 246.372 89.7056 246.372H103.426C103.981 246.372 104.436 245.918 104.436 245.362Z" fill="#FFC700"/>
<path d="M219.725 244.352H203.479C202.923 244.352 202.469 244.806 202.469 245.362C202.469 245.918 202.923 246.372 203.479 246.372H219.725C220.281 246.372 220.735 245.918 220.735 245.362C220.735 244.806 220.291 244.352 219.725 244.352Z" fill="#FFC700"/>
<path d="M107.319 253.315H96.6705C96.1148 253.315 95.6602 253.77 95.6602 254.326C95.6602 254.881 96.1148 255.336 96.6705 255.336H107.319C107.875 255.336 108.33 254.881 108.33 254.326C108.33 253.77 107.875 253.315 107.319 253.315Z" fill="#FFC700"/>
<path d="M212.768 253.315H173.678C173.123 253.315 172.668 253.77 172.668 254.326C172.668 254.881 173.123 255.336 173.678 255.336H212.768C213.323 255.336 213.778 254.881 213.778 254.326C213.778 253.77 213.323 253.315 212.768 253.315Z" fill="#FFC700"/>
</svg>
