<svg width="401" height="400" viewBox="0 0 401 400" fill="none" xmlns="http://www.w3.org/2000/svg">
<path d="M0.296892 200C0.296902 89.5431 89.84 3.38941e-05 200.297 4.35506e-05C310.754 5.32071e-05 400.297 89.5431 400.297 200C400.297 310.457 310.754 400 200.297 400C89.8399 400 0.296883 310.457 0.296892 200ZM357.099 200C357.099 113.401 286.896 43.1982 200.297 43.1982C113.698 43.1982 43.4951 113.401 43.495 200C43.495 286.599 113.698 356.802 200.297 356.802C286.896 356.802 357.099 286.599 357.099 200Z" fill="#FFC700"/>
<path d="M65.1232 126.635C66.1009 125.645 66.6019 124.3 66.6019 122.614C66.6019 121.062 66.1619 119.73 65.3065 118.679C64.6832 117.909 63.7422 117.2 62.4468 116.516L61.5547 116.039V128.077L62.2391 127.991C63.4 127.844 64.3777 127.38 65.1232 126.635Z" fill="white"/>
<path d="M276.913 199.114C278.514 199.969 281.74 201.741 285.321 204.124C286.128 204.662 286.934 205.212 287.753 205.786C289.268 206.874 290.698 207.998 292.079 209.171L292.324 209.379C292.458 209.489 292.592 209.599 292.715 209.721C293.546 210.467 294.365 211.261 295.122 212.068C296.332 213.363 297.31 214.646 298.043 215.893L298.177 216.113C298.3 216.321 298.422 216.516 298.52 216.724C298.654 217.005 298.556 217.347 298.263 217.518L298.19 217.567C298.055 217.616 297.909 217.616 297.774 217.567C297.615 217.518 297.493 217.408 297.432 217.262C296.674 215.709 295.416 214.035 293.692 212.3L292.458 211.053L292.971 215.795C293.399 219.681 294.071 225.608 294.841 231.829C294.976 232.941 295.122 234.053 295.257 235.141C295.819 239.504 296.32 243.109 296.735 245.858C296.87 246.726 297.004 247.533 297.126 248.278C297.518 250.576 297.847 252.03 298.116 252.751C298.532 253.839 299.228 254.56 300.206 254.89C302.43 255.672 305.791 254.437 308.003 253.142C310.508 251.676 316.545 250.27 318.623 250.979C318.782 251.028 318.904 251.138 318.977 251.284C319.051 251.431 319.063 251.59 319.014 251.749C318.965 251.908 318.855 252.03 318.709 252.103C318.562 252.177 318.403 252.189 318.244 252.14C317.218 251.798 314.48 252.201 312.317 252.775L309.934 253.411L312.341 253.961C315.543 254.694 320.077 255.721 323.377 256.466C326.139 257.089 328.791 257.334 331.003 257.334C332.873 257.334 334.412 257.163 335.427 256.882L335.659 256.821C336.624 256.527 337.162 256.112 337.333 255.562C337.688 254.266 336.991 246.983 336.673 243.915C336.588 243.121 336.502 242.314 336.417 241.483C336.209 239.577 335.964 237.585 335.708 235.568L335.659 235.165C335.561 234.444 335.463 233.711 335.366 232.99L335.28 232.354C335.06 230.766 334.828 229.177 334.596 227.637C334.473 226.818 334.339 226.012 334.205 225.205C333.581 221.478 332.982 218.423 332.396 216.113C332.164 215.208 331.932 214.39 331.663 213.571L331.565 213.265C331.516 213.106 331.516 212.948 331.589 212.801C331.663 212.654 331.785 212.544 331.944 212.483C332.09 212.434 332.261 212.434 332.408 212.508C332.555 212.581 332.665 212.703 332.726 212.862C332.824 213.143 332.934 213.461 333.031 213.803C333.239 214.487 333.447 215.282 333.655 216.162C334.253 218.655 334.913 222.064 335.561 226.024C335.83 227.686 336.099 229.421 336.355 231.169L336.465 231.927L340.706 230.326L340.645 229.849C340.364 227.833 339.472 222.419 337.076 215.599C336.808 214.817 336.514 214.023 336.197 213.216C335.439 211.261 334.608 209.318 333.704 207.424L333.398 206.788C333.129 206.238 332.836 205.725 332.555 205.212C332.005 204.234 331.43 203.318 330.844 202.487C325.051 194.335 317.474 193.174 311.4 192.233L310.472 192.087C306.5 191.463 297.835 188.982 291.26 187.015C290.295 186.722 289.366 186.453 288.486 186.172C285.48 185.255 282.95 184.461 281.496 184.009L280.848 183.801L280.714 184.461C280.103 187.418 278.49 194.677 276.718 198.319L276.461 198.845L276.913 199.114Z" fill="white"/>
<path d="M69.0781 301.864V305.983L91.1979 304.37V300.593C91.1979 297.697 90.0614 295.033 88.0082 293.078C87.2628 292.369 86.4073 291.782 85.4907 291.318C86.5662 290.035 87.1772 288.446 87.1772 286.82C87.1772 284.987 86.4562 283.289 85.1608 282.03C83.8531 280.771 82.0933 280.099 80.2358 280.16C76.4229 280.295 73.3188 283.472 73.3188 287.26C73.3188 288.959 73.9298 290.548 75.0663 291.77C71.4001 293.86 69.0781 297.734 69.0781 301.864ZM87.5316 300.96L72.7444 302.035V301.864C72.7444 297.709 76.1662 294.141 80.3824 293.921C80.5169 293.909 80.6513 293.909 80.7735 293.909C82.5577 293.909 84.232 294.556 85.4785 295.742C86.7984 296.988 87.5194 298.711 87.5194 300.593V300.96H87.5316ZM80.468 283.839C81.2868 283.839 82.0445 284.144 82.6066 284.682C83.181 285.244 83.511 286.002 83.511 286.833C83.511 288.629 82.02 290.169 80.1991 290.267C79.307 290.316 78.5126 290.022 77.9016 289.448C77.315 288.886 76.985 288.116 76.985 287.285C76.985 285.452 78.5004 283.912 80.358 283.851L80.468 283.839Z" fill="white"/>
<path d="M181.777 145.9C180.848 145.497 179.773 145.912 179.357 146.829L175.532 155.457C174.664 155.677 173.943 156.386 173.589 157.327C173.442 157.706 173.369 158.109 173.344 158.549L167.405 163.254C167.026 163.559 166.782 163.987 166.721 164.476C166.66 164.965 166.806 165.441 167.1 165.82C167.454 166.26 167.979 166.517 168.542 166.517C168.957 166.517 169.36 166.37 169.678 166.126L175.116 161.824C175.422 161.958 175.752 162.044 176.094 162.044C177.61 162.032 178.844 160.529 178.844 158.695C178.844 158.268 178.77 157.864 178.648 157.498L182.718 148.332C182.913 147.88 182.926 147.391 182.754 146.927C182.559 146.462 182.217 146.096 181.777 145.9Z" fill="white"/>
<path d="M339.796 240.622C340.089 240.072 340.297 239.424 340.432 238.666C340.823 236.54 340.48 234.157 340.126 232.544L339.979 231.859L336.582 233.143L336.729 234.242C337.071 236.748 337.376 239.241 337.645 241.661L337.767 242.773L338.635 242.064C339.112 241.685 339.503 241.196 339.796 240.622Z" fill="white"/>
<path d="M91.1498 284.336V281.843L93.6185 281.77L93.5207 278.715L91.1498 278.788V276.393H88.0946V278.886L85.6016 278.971L85.6993 282.014L88.0946 281.941V284.336H91.1498Z" fill="white"/>
<path d="M314.727 183.251C314.226 184.363 313.945 185.267 313.896 185.927C313.884 186.098 313.884 186.232 313.884 186.342C314.031 188.616 314.385 189.715 316.939 190.009C317.061 190.021 317.196 190.033 317.33 190.033C319.457 190.033 324.027 188.554 327.559 185.829C328.586 185.035 329.514 184.143 330.309 183.153C331.543 181.625 332.374 179.988 332.777 178.277C333.095 176.92 333.278 175.649 333.303 174.525C333.327 173.559 333.242 172.692 333.058 171.922C332.704 170.468 331.934 169.392 331.018 169.05C330.846 168.989 330.688 168.842 330.626 168.708C330.614 168.683 329.71 166.569 328.023 164.223C327.082 162.915 326.08 161.779 325.042 160.862C323.685 159.664 322.267 158.809 320.813 158.332C319.408 157.868 317.929 157.746 316.438 157.978C314.996 158.198 313.505 158.76 312.026 159.615C311.721 159.787 311.44 160.006 311.159 160.239C310.56 160.776 309.668 162.17 309.191 163.709C308.824 164.907 308.8 165.909 309.105 166.691C310.156 169.417 314.862 170.174 314.91 170.186C315.13 170.223 315.314 170.382 315.399 170.59C315.473 170.798 315.424 171.042 315.277 171.201C314.984 171.519 314.69 171.91 314.446 172.313C314.177 172.753 314.031 173.107 313.982 173.376L313.921 173.841L314.764 174.195C315.656 174.562 316.572 174.928 317.184 175.454C317.513 175.735 317.733 176.04 317.843 176.395C318.027 176.981 317.905 177.605 317.465 178.301C316.255 180.208 315.338 181.87 314.727 183.251Z" fill="white"/>
<path d="M306.957 184.364C307.311 184.669 307.653 184.926 308.02 185.158C308.167 185.256 308.264 185.402 308.301 185.574C308.326 185.708 308.362 185.989 308.399 186.331C308.484 187.101 308.607 188.58 308.399 189.826L308.301 190.401L308.875 190.523C309.523 190.657 310.11 190.767 310.611 190.853L311.527 191C312.212 191.11 312.921 191.22 313.642 191.342L315.951 191.733L315.89 191.684L318.31 192.356C322.147 193.432 325.337 195.143 328.074 197.587C328.759 198.198 329.321 198.748 329.846 199.334L329.993 199.505C330.115 199.64 330.25 199.786 330.372 199.933L330.995 200.666L331.386 199.786C331.961 198.491 332.938 197.672 333.977 197.587C334.662 197.538 335.285 197.77 335.823 198.271C336.666 199.053 337.167 200.41 337.167 201.901C337.167 203.147 336.825 204.333 336.201 205.237L335.847 205.75L336.372 206.092C337.876 207.082 339 209.099 339.452 211.641C339.623 212.606 339.403 213.694 338.914 214.354C338.804 214.5 338.67 214.623 338.511 214.745L338.132 215.014L338.279 215.441C341.285 224.069 341.896 230.388 341.908 230.656C341.933 230.901 341.799 231.133 341.554 231.255L341.114 231.463L341.224 231.94C341.652 233.699 342.458 238.136 340.87 241.191C340.283 242.315 339.403 243.171 338.267 243.72L337.876 243.904L337.925 244.332C338.67 251.725 338.694 255.171 338.462 255.941C338.242 256.662 337.668 257.225 336.715 257.664L336.324 257.848L336.531 260.353L341.884 259.363C343.839 258.997 345.954 256.064 345.954 251.97V190.291C345.954 188.042 345.22 185.94 344.035 184.828C343.448 184.278 342.801 184.046 342.018 183.997L330.726 184.571L330.555 184.755C327.085 188.507 321.817 190.706 318.383 191.171L315.695 191.537L314.13 190.279C313.067 189.423 312.774 188.128 312.664 186.441C312.664 186.392 312.664 186.343 312.664 186.295V186.148C312.676 185.525 312.847 184.755 313.177 183.863C313.776 182.225 314.827 180.196 316.416 177.679C316.538 177.483 316.685 177.202 316.685 176.958V176.811L316.611 176.677C316.416 176.31 315.915 176.017 314.277 175.357L313.862 175.186C313.617 175.088 313.397 174.929 313.202 174.746C312.982 174.514 312.835 174.257 312.762 173.964C312.688 173.658 312.713 173.292 312.823 172.901C312.921 172.571 313.067 172.216 313.263 171.862L313.629 171.202L312.908 170.97C311.808 170.615 310.855 170.175 310.061 169.638L309.609 169.332L309.254 169.748C308.729 170.359 307.934 171.348 307.152 172.558C306.59 173.426 306.114 174.281 305.722 175.125C304.843 177.043 304.476 178.803 304.659 180.343C304.867 181.883 305.637 183.239 306.957 184.364Z" fill="white"/>
<path d="M90.1946 171.644C88.887 170.373 87.1516 169.701 85.3185 169.738C81.6523 169.836 78.7681 172.793 78.7681 176.471V179.062C77.1794 179.796 76.1406 181.396 76.1406 183.156V191.32C76.1406 192.579 76.6661 193.788 77.5949 194.644C78.4382 195.426 79.5503 195.854 80.6868 195.854C80.7968 195.854 80.9068 195.854 81.0168 195.842L90.4635 195.145C92.8221 194.974 94.6675 192.982 94.6675 190.623V182.753C94.6675 181.054 93.7265 179.527 92.2355 178.745V176.459C92.2355 174.638 91.5023 172.927 90.1946 171.644ZM85.4285 173.404C86.2962 173.404 87.0539 173.71 87.6405 174.272C88.2393 174.858 88.5693 175.628 88.5693 176.471V178.292L82.4344 178.549V176.471C82.4344 174.797 83.742 173.453 85.404 173.404C85.404 173.404 85.4163 173.404 85.4285 173.404Z" fill="white"/>
<path d="M288.834 363.327C288.895 364.684 289.958 365.784 291.302 365.881C293.942 366.077 297.975 366.37 301.507 366.59C301.556 366.59 301.605 366.59 301.666 366.59C302.362 366.59 303.022 366.333 303.523 365.845C304.061 365.319 304.354 364.623 304.342 363.865C304.159 355.506 304.012 335.036 306.689 325.406C306.982 324.33 307.312 323.426 307.666 322.68L307.727 322.558C307.776 322.448 307.837 322.326 307.886 322.228C312.726 313.368 320.828 288.755 321.341 284.356C321.366 284.197 321.439 284.05 321.574 283.94C321.696 283.843 321.928 283.794 321.928 283.794L322.075 283.843C322.38 283.916 322.588 284.197 322.551 284.49C322.441 285.407 322.062 287.057 321.451 289.269C320.29 293.46 318.36 299.388 316.306 305.119L316.258 305.254L316.27 305.4C316.844 309.983 317.504 314.615 318.25 319.185C318.384 320.004 318.518 320.811 318.653 321.617C322.246 342.772 326.767 358.035 329.456 363.266C329.969 364.268 331.081 364.745 332.157 364.439C334.833 363.682 337.998 362.362 340.174 361.384C341.213 360.92 341.75 359.82 341.481 358.695C339.636 350.996 338.414 336.783 337.864 316.326L337.803 313.918C337.717 310.264 337.656 306.818 337.607 303.714L337.534 297.982C337.497 295 337.473 292.642 337.424 291.126L337.412 290.65C337.375 289.647 337.314 288.425 337.241 287.044C337.131 285.028 336.984 282.682 336.813 280.201L336.642 277.757C336.251 272.233 335.799 266.428 335.481 262.444L335.139 258.166L334.479 258.276C330.923 258.875 325.631 258.215 323.077 257.641C318.176 256.541 310.538 254.794 308.619 254.354L308.4 254.305L308.192 254.415C307.129 254.989 304.367 256.333 301.764 256.333C301.678 256.333 301.58 256.321 301.495 256.309L300.823 256.26L300.676 256.712C300.163 258.252 299.099 261.576 297.78 266.648C297.56 267.479 297.34 268.346 297.12 269.263C296.447 271.988 295.788 274.848 295.177 277.793C295.005 278.636 294.822 279.516 294.639 280.396C293.93 283.94 293.27 287.631 292.671 291.358C292.231 294.133 291.816 296.931 291.449 299.693C290.985 303.139 290.606 306.451 290.264 309.812L289.946 313.16C289.873 314.016 289.799 314.884 289.726 315.751C289.408 319.528 289.139 323.414 288.944 327.349C288.895 328.192 288.858 329.023 288.822 329.879C288.296 340.939 288.308 352.169 288.834 363.327Z" fill="white"/>
<path d="M331.896 369.852C331.822 369.888 331.737 369.9 331.663 369.9C330.319 369.925 327.887 370.096 327.105 370.475C326.408 370.817 324.514 372.748 324.27 374.385C324.184 374.984 324.331 375.449 324.722 375.815C325.895 376.915 331.761 378.638 336.808 378.638C337.468 378.638 338.104 378.614 338.727 378.541C341 378.308 342.601 377.624 343.371 376.549C344.727 374.642 344.471 372.577 344.019 371.184C343.383 369.228 342.161 367.872 341.538 367.468L341.257 367.285L340.951 367.432C340.609 367.591 340.145 367.847 339.607 368.141C337.542 369.265 335.892 370.12 334.731 369.974C334.291 369.925 333.924 369.852 333.606 369.79C332.751 369.644 332.458 369.607 331.896 369.852Z" fill="white"/>
<path d="M152.66 18.2354C152.147 18.1499 151.646 18.2721 151.267 18.602C150.827 18.9687 150.57 19.5553 150.57 20.203C150.57 21.3884 151.389 22.4638 152.452 22.6471C152.562 22.6716 152.66 22.6716 152.77 22.6716C153.161 22.6716 153.54 22.5371 153.845 22.2805C154.285 21.9139 154.53 21.3273 154.53 20.6796C154.53 19.4942 153.711 18.4187 152.66 18.2354Z" fill="white"/>
<path d="M253.723 73.8276L276.723 76.6384C277.382 76.7239 277.981 76.5162 278.531 76.0396C279.423 75.2574 279.949 73.8398 279.949 72.2511V44.9497C279.949 41.8822 278.177 39.658 276.539 39.3647L245.572 33.682C244.789 33.5354 244.056 33.7309 243.433 34.2564C242.492 35.0385 241.93 36.4806 241.93 38.106V87.8572L253.173 74.0476C253.307 73.8887 253.515 73.8032 253.723 73.8276ZM252.269 53.7976V51.3045L253.808 51.5489V54.042L252.269 53.7976ZM255.654 49.5692V47.0883L257.169 47.3327V49.8014L255.654 49.5692ZM255.654 54.3109V51.83L257.169 52.0744V54.5431L255.654 54.3109ZM259.002 50.0947V47.6383L260.481 47.8827V50.3268L259.002 50.0947ZM259.002 54.8241V52.3677L260.481 52.5999V55.0563L259.002 54.8241ZM265.589 55.8385V53.4187L267.019 53.6509V56.0584L265.589 55.8385ZM262.314 55.3374V52.8932L263.768 53.1254V55.5574L262.314 55.3374ZM262.314 50.6324V48.1882L263.768 48.4326V50.8646L262.314 50.6324ZM262.314 45.9273V43.4832L263.768 43.7398V46.1718L262.314 45.9273ZM271.516 57.195C271.223 56.4617 271.052 55.7285 270.979 55.0319C270.881 54.0787 271.003 53.1865 271.333 52.3311C272.03 53.2476 272.409 54.2986 272.519 55.6063L272.653 56.1806L273.557 56.1562C273.777 56.144 273.985 56.144 274.205 56.144C274.523 56.1562 274.828 56.2418 275.146 56.4128C275.378 56.5351 275.574 56.6695 275.806 56.9139C275.806 56.9139 275.806 56.9506 275.769 57.0728C275.623 57.4394 275.439 57.7449 275.232 57.9649C275.048 58.1604 274.853 58.2949 274.633 58.356C274.156 58.5026 273.631 58.5393 273.068 58.5759L272.934 58.5882C272.567 58.6126 272.127 58.7348 271.883 59.3947C269.72 65.3219 266.261 68.316 261.3 68.5359C260.958 68.5482 260.615 68.5604 260.273 68.5726L259.87 68.5848L258.807 68.4504L258.135 68.2427C257.67 68.1082 257.218 67.9616 256.754 67.7905C251.132 65.6274 250.607 59.077 250.655 56.2173L251.633 56.364C256.815 57.1461 261.923 57.916 266.946 58.6615C267.985 58.8204 269.194 58.9059 270.38 58.4171C270.563 58.3437 270.747 58.2338 271.003 58.0871L271.7 57.6838L271.516 57.195Z" fill="white"/>
<path d="M333.806 368.606L334.258 368.679C334.442 368.716 334.649 368.741 334.882 368.777C334.918 368.777 334.955 368.777 335.004 368.777C335.48 368.777 336.373 368.508 339.012 367.079C339.342 366.895 339.648 366.736 339.929 366.59L340.308 366.394L340.247 365.966C340.149 365.306 340.063 364.475 339.978 363.706L339.892 362.887L339.135 363.217C337.167 364.06 335.371 364.744 333.806 365.258L333.293 365.429L333.403 365.954C333.513 366.529 333.672 367.372 333.757 368.166L333.806 368.606Z" fill="white"/>
<path d="M301.812 367.835L301.311 367.798C299.05 367.664 296.618 367.493 294.455 367.334L293.734 367.285L293.796 368.006C293.918 369.363 294.089 371.245 294.125 372.43L294.138 372.809L295.091 373.225C296.13 373.689 297.303 374.202 298.244 374.349C298.354 374.361 298.464 374.373 298.574 374.373C299.588 374.373 300.871 373.799 302.008 373.212L302.375 373.029L302.338 372.626C302.228 371.33 301.971 369.192 301.861 368.336L301.812 367.835Z" fill="white"/>
<path d="M161.557 51.9287C161.642 51.941 161.716 51.9409 161.801 51.9409C162.205 51.9409 162.596 51.7943 162.913 51.5254C163.341 51.1466 163.598 50.5722 163.598 49.9245C163.598 48.7391 162.779 47.7003 161.74 47.5537C161.239 47.4803 160.763 47.627 160.384 47.957C159.956 48.3358 159.699 48.9224 159.699 49.5579C159.687 50.7433 160.506 51.7821 161.557 51.9287Z" fill="white"/>
<path d="M278.924 385.927C279.168 387.369 283.14 388.139 290.216 388.139C290.912 388.139 291.634 388.126 292.391 388.114C303.121 387.906 304.123 386.611 304.282 385.071C304.441 383.556 303.964 377.421 303.598 374.708L303.488 373.852L302.718 374.256C301.581 374.842 299.687 375.82 298.086 375.588C296.986 375.429 295.728 374.867 294.615 374.378C294.102 374.146 293.406 373.84 292.978 373.706L292.611 373.596L292.355 373.877C289.397 377.03 285.376 380.562 282.945 380.989C280.012 381.478 278.716 384.656 278.924 385.927Z" fill="white"/>
<path d="M276.321 193.702L276.981 194.057L277.201 193.336C278.179 190.085 278.973 186.504 279.364 184.659L279.462 184.17L279.01 183.974C276.346 182.813 267.449 178.866 264.638 176.96C262.243 175.334 252.65 166.596 248.36 162.49C247.101 161.28 246.674 160.828 246.527 160.657L246.331 160.437C243.582 157.211 240.612 154.107 238.156 151.907C234.636 148.754 233.658 148.754 233.341 148.754L232.998 148.778L232.852 148.925C232.546 149.231 232.546 149.426 232.558 149.634C232.62 149.915 232.839 150.22 233.719 151.259C234.123 151.736 234.514 152.212 234.831 152.713C235.247 153.373 235.443 153.948 235.443 154.534C235.443 154.852 235.43 155.219 235.418 155.598L235.406 156.062C235.369 157.394 235.394 158.812 235.785 160.07C236.164 161.305 236.823 162.197 237.801 162.796C239.133 163.614 240.698 164.58 242.445 165.826C243.154 166.328 243.887 166.89 244.645 167.489C247.101 169.432 249.13 171.411 250.865 173.513C254.275 177.668 259.469 182.435 265.127 186.59C266.679 187.726 268.317 188.851 270.003 189.938C272.044 191.295 274.183 192.554 276.321 193.702Z" fill="white"/>
<path d="M135.718 54.3847L167.566 58.491C167.724 58.5154 167.871 58.601 167.969 58.7232L182.047 77.3356V23.1604C182.047 20.0074 179.884 16.9278 177.318 16.4389L135.522 8.50759C134.264 8.26317 133.042 8.55647 132.088 9.35083C130.964 10.2796 130.316 11.8194 130.316 13.5792V47.4433C130.316 50.8162 132.797 54.0059 135.718 54.3847ZM149.931 22.6716V21.254C149.931 19.7752 150.469 18.4798 151.397 17.6977C152.143 17.0744 153.108 16.83 154.098 17.0133L158.143 17.7588C160.893 18.2598 163.117 21.3395 163.117 24.6147V30.8962C163.117 31.9717 162.738 32.9127 162.066 33.4871C161.541 33.9392 160.893 34.1103 160.196 34.0003L153.059 32.8516C150.823 32.4972 148.831 33.8292 148.11 36.1757C147.914 36.8111 147.817 37.4222 147.817 38.0454V41.2229L147.328 41.1495C145.519 40.8807 143.845 39.5486 142.855 37.5688C142.476 36.8111 142.22 36.0046 142.097 35.1613C142.048 34.8191 142 34.4647 142 34.0981V30.4563C142 28.672 142.647 27.1078 143.784 26.1423C144.517 25.5191 145.421 25.1891 146.387 25.1891C146.631 25.1891 146.876 25.2135 147.132 25.2502L157.202 26.9733V23.9181L149.931 22.6716ZM164.144 47.0644V48.8243C164.144 50.2908 163.606 51.6106 162.69 52.4172C161.956 53.0527 161.052 53.3338 160.086 53.1993L156.066 52.6616C153.279 52.2828 151.006 49.2764 151.006 45.9401V39.5486C151.006 39.4753 151.019 39.3897 151.031 39.3164L151.043 39.1575C151.116 38.3632 151.385 37.6788 151.825 37.1778C152.314 36.6278 152.937 36.3345 153.622 36.3345C153.756 36.3345 153.878 36.3467 154.013 36.3712L161.125 37.4955C162.347 37.691 163.533 37.3611 164.474 36.5667C165.586 35.6135 166.221 34.0981 166.221 32.3872V29.3075L166.637 29.3808C169.374 29.8452 171.599 32.9127 171.599 36.2245V39.3409C171.599 39.5486 171.586 39.7441 171.574 39.9397C171.513 40.7218 171.317 41.4551 171 42.0905C170.169 43.8015 168.568 44.7058 166.832 44.4492L157.031 43.0071V46.0501L164.144 47.0644Z" fill="white"/>
<path d="M39.3467 141.973C45.8482 147.399 53.6207 150.149 61.3199 150.149C67.6869 150.149 74.0051 148.255 79.4923 144.43C79.6145 144.344 79.7734 144.307 79.92 144.32L95.7705 146.507L91.5665 128.872C91.5421 128.762 91.5421 128.64 91.591 128.518C96.5404 114.892 92.642 98.9069 81.8631 88.7513C74.9095 82.2009 65.5116 78.6447 56.346 79.1702C47.5836 79.659 39.6034 83.6552 33.884 90.4256C27.908 97.4893 25.0727 106.643 25.9038 116.212C26.7714 126.184 31.672 135.57 39.3467 141.973ZM38.4668 124.045C35.6438 117.531 35.546 110.162 38.1857 103.844C40.6421 97.9659 45.1883 93.493 50.981 91.2444C53.6085 90.2301 56.3337 89.7412 59.0346 89.7412C68.6524 89.7412 78.038 95.8761 82.0709 105.751C87.2037 118.338 82.0831 132.307 70.4366 137.562C64.8884 140.055 58.5579 140.189 52.7164 137.928C46.3371 135.472 41.2776 130.535 38.4668 124.045Z" fill="white"/>
<path d="M60.0437 101.311L59.3104 101.469C58.345 101.677 57.5384 102.117 56.9396 102.801C56.023 103.84 55.5586 105.185 55.5586 106.798C55.5586 108.313 56.0474 109.609 57.0251 110.66C57.5262 111.197 58.2105 111.723 59.1149 112.273L60.0437 112.835V101.311Z" fill="white"/>
<path d="M80.9289 106.213C77.2138 97.0958 68.4148 90.9609 59.0291 90.9609C56.4017 90.9609 53.8475 91.4376 51.4155 92.3786C45.9406 94.505 41.6388 98.7456 39.3047 104.306C36.7872 110.319 36.8849 117.334 39.5735 123.542C42.2499 129.738 47.0649 134.443 53.1387 136.789C55.7662 137.804 58.4914 138.317 61.1922 138.317C64.1864 138.317 67.1438 137.694 69.9179 136.447C80.9778 131.473 85.8051 118.189 80.9289 106.213ZM59.5302 129.946C57.6848 129.628 56.0106 128.846 54.5685 127.599C52.8209 126.096 51.9533 124.067 51.9166 121.403L54.8374 121.513C54.9352 123.517 55.534 125.082 56.6338 126.169C57.3549 126.89 58.2348 127.416 59.2491 127.734L60.0435 127.978V115.439L59.6768 115.28C57.526 114.352 55.8395 113.276 54.6418 112.091C53.212 110.661 52.5276 108.865 52.5276 106.591C52.5276 104.269 53.2853 102.473 54.8618 101.08C56.0839 99.9922 57.636 99.3933 59.4813 99.2711L60.0557 99.2345V96.0204L61.5589 96.1181V99.3078L62.0599 99.3934C64.0764 99.7478 65.7506 100.664 67.0338 102.106C68.4759 103.732 69.2091 105.638 69.258 107.924L66.4839 107.777C66.3861 106.078 65.885 104.648 64.9929 103.487C64.2963 102.595 63.4042 101.972 62.3532 101.63L61.5589 101.373V113.508L61.9377 113.667C64.3941 114.669 66.2883 115.879 67.5471 117.285C68.8547 118.727 69.478 120.511 69.478 122.723C69.478 125.069 68.7447 126.866 67.2171 128.186C65.9217 129.322 64.2475 129.933 62.121 130.043L61.5466 130.08V133.282L60.0435 133.245V130.019L59.5302 129.946Z" fill="white"/>
<path d="M268.804 190.656C267.521 189.813 266.237 188.933 264.991 188.028L264.82 187.906L174.996 192.477C171.012 192.685 167.762 196.815 167.762 201.691V283.082C167.762 285.673 168.69 287.946 170.328 289.303C171.33 290.134 172.503 290.562 173.762 290.562C174.117 290.562 174.483 290.525 174.862 290.464L264.575 273.758C267.557 273.208 269.977 269.346 269.977 265.154V195.129C269.977 193.601 269.647 192.147 269.036 190.925L268.963 190.778L268.804 190.656ZM234.891 251.271C234.989 251.149 235.135 251.064 235.294 251.039L244.105 249.768L247.967 238.33C248.028 238.158 248.151 238.024 248.322 237.963L256.351 234.7L260.983 223.347C261.044 223.2 261.166 223.078 261.313 223.017C261.459 222.956 261.63 222.956 261.777 223.017C262.095 223.139 262.241 223.506 262.107 223.811L257.377 235.397C257.316 235.543 257.194 235.665 257.047 235.727L249.043 238.99L245.157 250.526C245.083 250.746 244.9 250.905 244.668 250.929L235.734 252.225L228.108 262.221L261.459 256.905C261.789 256.856 262.107 257.076 262.156 257.419C262.18 257.577 262.144 257.736 262.046 257.871C261.948 258.005 261.814 258.091 261.642 258.115L226.679 263.676C226.617 263.676 226.544 263.663 226.422 263.602L226.336 263.566L226.239 263.456C226.202 263.419 226.165 263.37 226.129 263.26C226.116 263.211 226.092 263.15 226.092 263.101L226.08 224.569C226.08 224.227 226.349 223.958 226.691 223.958C227.033 223.958 227.302 224.227 227.302 224.569V261.268L234.891 251.271ZM213.236 248.326C212.906 252.628 211.549 256.759 209.3 260.266C208.176 262.014 206.856 263.566 205.365 264.873C202.225 267.623 198.656 269.09 195.039 269.09C191.629 269.09 188.452 267.782 185.836 265.301C178.76 258.592 178.162 245.528 184.504 236.179C187.767 231.364 192.399 228.357 197.226 227.93C197.63 227.893 198.033 227.881 198.424 227.881C202.005 227.881 205.39 229.335 208.042 232.048C211.842 235.922 213.737 241.849 213.236 248.326ZM264.6 197.5V209.391L176.695 216.967V203.28L264.6 197.5Z" fill="white"/>
<path d="M341.117 279.201L340.995 278.59L337.977 279.25L338.013 279.775C338.111 281.181 338.197 282.549 338.282 283.845L338.392 285.617L341.618 280.887L341.508 280.594C341.337 280.142 341.215 279.678 341.117 279.201Z" fill="white"/>
<path d="M338.614 290.621C338.663 292.088 338.699 294.654 338.736 297.954L338.785 301.376L342.916 300.3C343.576 300.129 344.187 298.907 344.187 297.746V283.9L343.869 283.729C343.466 283.497 343.075 283.179 342.732 282.763L342.219 282.152L338.504 287.603L338.516 287.811C338.541 288.874 338.589 289.815 338.614 290.621Z" fill="white"/>
<path d="M167.172 59.6619L135.581 55.5923C132.013 55.128 129.116 51.4739 129.116 47.4288V35.1957L116.541 33.2648C114.415 32.9348 112.313 33.5092 110.724 34.878C108.891 36.4544 107.84 38.9475 107.84 41.7217V63.0471L175.531 70.734L167.172 59.6619Z" fill="white"/>
<path d="M110.602 375.808C111.665 376.615 112.948 377.031 114.341 377.031C115.026 377.031 115.735 376.933 116.468 376.725L146.226 368.354V68.6246L107.84 64.2617V369.441C107.828 372.154 108.842 374.476 110.602 375.808ZM132.037 333.695L116.822 337.19C116.517 337.264 116.162 337.056 116.089 336.726C116.016 336.396 116.223 336.066 116.553 335.993L131.756 332.498C131.805 332.485 131.854 332.485 131.903 332.485C132.184 332.485 132.441 332.669 132.502 332.962C132.575 333.292 132.367 333.622 132.037 333.695ZM116.822 329.051C116.48 329.125 116.162 328.905 116.089 328.587C116.052 328.428 116.089 328.269 116.175 328.123C116.26 327.976 116.395 327.89 116.553 327.854L137.94 323.149C137.989 323.136 138.025 323.136 138.074 323.136C138.184 323.136 138.294 323.173 138.392 323.234C138.527 323.32 138.624 323.466 138.661 323.625C138.734 323.955 138.527 324.285 138.197 324.359L116.822 329.051ZM116.175 344.413C116.26 344.279 116.395 344.181 116.553 344.132L137.928 338.987C137.977 338.975 138.025 338.975 138.074 338.975C138.355 338.975 138.6 339.158 138.673 339.439C138.747 339.769 138.551 340.099 138.221 340.172L116.835 345.317C116.529 345.391 116.187 345.183 116.101 344.865C116.052 344.719 116.089 344.56 116.175 344.413ZM116.248 219.32C116.358 219.198 116.505 219.125 116.663 219.112L138.013 217.353C138.025 217.353 138.05 217.353 138.062 217.353C138.392 217.353 138.649 217.585 138.673 217.915C138.685 218.074 138.637 218.232 138.527 218.355C138.417 218.477 138.27 218.55 138.111 218.562L116.7 220.322C116.382 220.322 116.113 220.078 116.089 219.76C116.089 219.601 116.138 219.442 116.248 219.32ZM118.142 212.611V201.673C118.142 201.355 118.399 201.087 118.717 201.062L120.916 200.928C120.929 200.928 120.941 200.928 120.953 200.928C121.112 200.928 121.258 200.989 121.381 201.099C121.503 201.209 121.576 201.38 121.576 201.539V212.452C121.576 212.77 121.332 213.039 121.014 213.063L118.765 213.222C118.607 213.222 118.46 213.161 118.35 213.063C118.203 212.941 118.142 212.782 118.142 212.611ZM125.841 212.049V196.699C125.841 196.369 126.098 196.113 126.416 196.088L128.579 195.966C128.591 195.966 128.603 195.966 128.615 195.966C128.762 195.966 128.921 196.027 129.031 196.137C129.153 196.247 129.226 196.418 129.226 196.577V211.878C129.226 212.195 128.982 212.464 128.664 212.489L126.465 212.648C126.306 212.648 126.159 212.586 126.049 212.489C125.915 212.379 125.841 212.22 125.841 212.049ZM136.742 211.34C136.742 211.658 136.498 211.927 136.18 211.951L134.017 212.11C133.858 212.11 133.712 212.049 133.602 211.951C133.479 211.841 133.406 211.67 133.406 211.499V203.897C133.406 203.58 133.663 203.311 133.98 203.286L136.107 203.152C136.119 203.152 136.131 203.152 136.143 203.152C136.29 203.152 136.449 203.213 136.559 203.311C136.681 203.421 136.755 203.592 136.755 203.763V211.34H136.742ZM138.685 162.848C138.685 164.155 137.72 165.218 136.547 165.243L118.313 165.475C117.763 165.475 117.238 165.255 116.822 164.852C116.358 164.4 116.101 163.752 116.101 163.08V149.221C116.101 148.549 116.358 147.901 116.822 147.437C117.238 147.021 117.763 146.814 118.325 146.814H118.338L127.442 146.899C128.64 146.911 129.618 147.987 129.618 149.307C129.618 149.954 130.045 150.48 130.571 150.48L136.535 150.504C137.72 150.504 138.673 151.58 138.673 152.887V162.848H138.685ZM130.326 254.076C132.098 253.991 133.773 254.565 135.105 255.726C136.718 257.144 137.696 259.331 137.818 261.788L130.326 262.839V254.076ZM125.829 254.651V268.436L137.818 266.7C137.5 273.63 132.477 279.923 126.342 280.913C123.483 281.378 120.733 280.632 118.582 278.811C116.089 276.697 114.659 273.312 114.659 269.523C114.671 262.35 119.621 255.848 125.829 254.651ZM126.843 109.271C119.719 108.404 114.256 101.132 114.671 93.0541C114.879 88.9357 116.651 85.2327 119.511 82.9108C121.979 80.9188 125.059 80.1 128.188 80.5888C129.471 80.7966 130.717 81.2121 131.891 81.8353L125.682 92.2597C125.022 93.3596 125.304 94.8506 126.318 95.6694C126.648 95.926 127.027 96.0971 127.418 96.1582C128.261 96.2804 129.055 95.8771 129.508 95.1194L135.655 84.7439C138.563 87.8969 140.164 92.3086 139.944 96.7204C139.749 100.753 138.038 104.395 135.264 106.741C132.881 108.746 129.899 109.638 126.843 109.271Z" fill="white"/>
<path d="M240.719 52.3811L183.281 43.5332V71.6046L240.719 78.1305V52.3811Z" fill="white"/>
<path d="M276.578 77.8489L253.909 75.0748L250.523 79.2421L355.427 91.1575V76.7735C355.427 72.7528 353.338 69.7343 351.382 69.4288L281.173 58.6133V72.2518C281.173 74.2071 280.501 75.9303 279.34 76.9568C278.558 77.6534 277.58 77.9711 276.578 77.8489ZM346.14 84.1916V74.5249L351.773 75.3314V84.8882L346.14 84.1916ZM340.799 73.7549V83.5316L334.884 82.7984V72.9117L340.799 73.7549ZM329.36 72.1173V82.114L323.152 81.3441V71.2252L329.36 72.1173Z" fill="white"/>
<path d="M183.375 259.839L183.607 260.291C184.426 261.88 185.465 263.261 186.675 264.41C189.094 266.707 192.015 267.844 195.034 267.844C197.979 267.844 201.034 266.744 203.808 264.556L204.199 264.251L196.879 249.354L183.375 259.839Z" fill="white"/>
<path d="M315.348 307.822L314.492 310.059C312.733 314.678 311.107 318.54 309.775 321.241L309.164 322.475L317.169 320.226L317.083 319.689C316.582 316.621 316.106 313.432 315.666 310.205L315.348 307.822Z" fill="white"/>
<path d="M136.551 151.716L130.587 151.692C129.389 151.692 128.411 150.604 128.411 149.296C128.411 148.649 127.972 148.111 127.446 148.111L118.341 148.025C118.183 148.025 117.938 148.074 117.706 148.294C117.474 148.526 117.352 148.856 117.352 149.211V163.069C117.352 163.424 117.486 163.754 117.706 163.974C117.877 164.145 118.109 164.242 118.341 164.242L136.551 164.01C137.064 163.998 137.479 163.473 137.479 162.837V152.877C137.479 152.242 137.064 151.716 136.551 151.716Z" fill="white"/>
<path d="M289.626 267.841C290.249 268.355 290.958 268.623 291.703 268.623C291.899 268.623 292.095 268.599 292.302 268.562L296.225 267.829L296.323 267.45C297.741 261.902 298.914 258.187 299.476 256.464L299.635 255.975L299.183 255.73C298.168 255.193 297.423 254.325 296.983 253.176C296.677 252.382 296.286 250.561 295.822 247.775L295.773 247.494L295.516 247.347C295.37 247.261 295.223 247.164 295.089 247.054C294.233 246.32 293.744 245.062 293.744 243.619V236.605C293.744 236.091 293.818 235.578 293.952 235.028L293.977 234.918L293.964 234.796C292.608 224.164 291.361 212.42 291.129 210.171L291.105 209.927L290.921 209.768C290.139 209.12 289.333 208.46 288.489 207.837L287.512 207.104V262.305C287.512 264.676 288.306 266.754 289.626 267.841Z" fill="white"/>
<path d="M261.336 307.347L270.599 305.147V300.662L261.336 302.776V307.347Z" fill="white"/>
<path d="M282.1 292.371L291.608 290.269L291.669 289.866C292.17 286.835 292.696 283.914 293.233 281.201L293.405 280.297L175.082 304.384C171.11 305.191 167.762 309.957 167.762 314.796V337.051C167.762 339.605 168.678 341.78 170.267 343.014C171.159 343.711 172.198 344.053 173.322 344.053C173.811 344.053 174.312 343.992 174.825 343.858L288.602 314.381L288.638 313.953C288.675 313.489 288.724 313.037 288.773 312.584L288.919 311.008L282.394 312.646C282.222 312.694 282.015 312.646 281.868 312.536C281.721 312.426 281.636 312.242 281.636 312.047V292.945C281.624 292.677 281.819 292.432 282.1 292.371ZM271.822 299.887V314.845C271.822 315.126 271.627 315.371 271.358 315.432L260.873 318.072C260.689 318.12 260.494 318.072 260.347 317.962C260.2 317.852 260.115 317.668 260.115 317.473V302.27C260.115 301.989 260.31 301.732 260.591 301.671L271.077 299.276C271.126 299.264 271.175 299.264 271.211 299.264C271.346 299.264 271.48 299.313 271.59 299.398C271.737 299.533 271.822 299.704 271.822 299.887ZM249.532 308.686V320.455C249.532 320.736 249.336 320.98 249.067 321.041L237.824 323.877C237.641 323.925 237.445 323.877 237.299 323.767C237.152 323.657 237.066 323.473 237.066 323.278V311.313C237.066 311.032 237.262 310.788 237.543 310.715L248.786 308.087C248.835 308.075 248.884 308.075 248.921 308.075C249.055 308.075 249.189 308.124 249.299 308.209C249.446 308.332 249.532 308.503 249.532 308.686ZM225.628 316.581V326.467C225.628 326.748 225.432 326.993 225.163 327.054L213.089 330.097C212.918 330.146 212.71 330.097 212.563 329.987C212.417 329.877 212.331 329.694 212.331 329.51V319.44C212.331 319.159 212.527 318.915 212.796 318.842L224.87 315.982C224.919 315.97 224.968 315.97 225.004 315.97C225.139 315.97 225.273 316.018 225.383 316.104C225.542 316.214 225.628 316.397 225.628 316.581ZM199.927 327.812V332.944C199.927 333.225 199.732 333.47 199.463 333.531L186.447 336.806C186.264 336.855 186.069 336.806 185.922 336.696C185.775 336.586 185.69 336.403 185.69 336.207V330.977C185.69 330.696 185.885 330.451 186.154 330.39L199.169 327.213C199.218 327.201 199.267 327.201 199.316 327.201C199.45 327.201 199.585 327.249 199.695 327.335C199.841 327.445 199.927 327.616 199.927 327.812Z" fill="white"/>
<path d="M147.426 68.7695V368.01L287.184 328.671L287.611 328.549L287.636 328.109C287.819 324.296 288.076 320.397 288.394 316.548L288.467 315.692L175.106 345.059C173.065 345.585 171.061 345.206 169.509 343.996C167.615 342.529 166.527 340.012 166.527 337.067V314.812C166.527 309.337 170.254 304.131 174.825 303.203L293.27 279.091L293.661 279.005L293.746 278.614C294.357 275.681 294.993 272.809 295.653 270.084L295.873 269.167L292.5 269.791C291.204 270.035 289.885 269.681 288.834 268.801C287.208 267.456 286.279 265.086 286.279 262.312V206.254L286.01 206.071C280.67 202.38 275.476 199.741 275.244 199.631C275.085 199.557 274.975 199.411 274.926 199.24C274.877 199.068 274.914 198.885 275.012 198.739C275.452 198.103 275.904 197.113 276.405 195.732L276.588 195.231L276.124 194.987C274.694 194.229 273.289 193.435 271.956 192.64L270.832 191.968L271.04 193.264C271.138 193.887 271.187 194.51 271.187 195.121V265.147C271.187 269.974 268.376 274.288 264.783 274.948L175.069 291.654C173.053 292.033 171.085 291.519 169.533 290.236C167.627 288.647 166.527 286.044 166.527 283.087V201.696C166.527 196.184 170.291 191.504 174.923 191.259L263.243 186.762L261.96 185.76C257.206 182.033 252.806 177.865 249.898 174.321C247.869 171.84 245.449 169.592 242.492 167.416L242.321 167.294L193.279 168.186C193.425 167.795 193.572 167.392 193.718 166.952L240.683 166.097L238.96 165.009C238.3 164.593 237.677 164.202 237.139 163.872C235.709 162.992 234.817 161.66 234.414 159.815L234.304 159.326L223.342 159.412V156.748L234.145 156.723L234.182 155.526C234.194 155.183 234.206 154.866 234.206 154.572C234.206 153.778 233.485 152.922 232.715 152.018L232.532 151.81L223.342 151.786V149.122L231.31 149.195L231.469 148.828C231.628 148.462 231.933 148.12 232.349 147.839C233.143 147.313 234.609 147.765 236.601 149.134L236.76 149.244H237.127V149.513L237.371 149.696C239.583 151.383 242.309 154.047 245.462 157.603L246.525 158.813V107.51C246.525 104.222 244.57 101.387 242.162 101.192L178.283 96.0099C177.049 95.9121 175.876 96.3276 174.923 97.2075C173.664 98.3685 172.943 100.177 172.943 102.181V136.278C172.54 136.351 172.136 136.437 171.721 136.546V102.181C171.721 99.835 172.589 97.6963 174.092 96.3032C175.289 95.1911 176.817 94.6533 178.381 94.7878L242.26 99.9694C245.327 100.214 247.735 103.526 247.735 107.51V160.231L247.918 160.414C250.668 163.176 262.669 174.211 265.308 175.995C267.875 177.731 275.867 181.312 279.191 182.766L279.582 182.937L279.998 182.497C280.144 182.411 280.328 182.387 280.511 182.448C280.988 182.595 285.351 183.988 290.667 185.589L290.862 185.65L291.046 185.589C291.485 185.442 291.925 185.344 292.353 185.32L305.332 184.66L304.696 183.756C304.012 182.778 303.596 181.678 303.462 180.493C303.291 179.051 303.547 177.438 304.195 175.702L304.513 174.847L273.704 175.849H273.533C272.201 175.849 270.93 175.299 269.855 174.26C268.18 172.647 267.227 170.093 267.227 167.282V110.809C267.227 107.986 268.192 105.493 269.867 103.941C270.979 102.915 272.36 102.426 273.741 102.524L342.043 108.06C344.927 108.292 347.176 111.86 347.176 116.187V165.718C347.176 170.056 344.903 173.527 342.007 173.625L334.527 173.869L334.515 174.456C334.491 175.727 334.307 177.12 333.953 178.599C333.647 179.882 333.146 181.104 332.389 182.338L331.79 183.328L341.945 182.815C342.96 182.754 343.999 183.157 344.866 183.988C346.308 185.357 347.164 187.728 347.164 190.343V252.022C347.164 256.311 344.94 260.087 342.092 260.613L336.617 261.627L336.666 262.177C336.972 266.088 337.424 271.856 337.815 277.404L337.864 278.113L340.858 277.465L340.846 276.695C340.846 271.856 343.363 267.261 346.345 266.674C347.31 266.479 348.215 266.723 349.034 267.395C350.573 268.654 351.49 271.184 351.49 274.154C351.49 278.981 349.07 283.466 346.027 284.162L345.404 284.272V297.85C345.404 299.622 344.451 301.272 343.229 301.589L338.817 302.738L338.829 303.215C338.878 306.294 338.927 309.729 339.012 313.383L339.037 314.165L351.331 310.706C353.311 310.144 355.449 306.954 355.449 302.763V92.3803L249.959 80.4038L249.629 80.3671L241.82 89.9605C241.661 90.1561 241.38 90.2294 241.135 90.1561C240.891 90.0705 240.732 89.8383 240.732 89.5817V79.365L183.306 72.8391V79.1695C183.306 79.4384 183.135 79.6705 182.891 79.7439C182.634 79.8294 182.353 79.7439 182.206 79.5361L176.573 72.0814L147.426 68.7695ZM186.887 145.309C189.783 148.89 191.384 153.607 191.384 158.617C191.384 161.22 190.944 163.762 190.089 166.182C189.808 166.976 189.466 167.759 189.05 168.577C188.402 169.848 187.681 170.997 186.887 171.987C186.19 172.855 185.433 173.637 184.614 174.333C183.795 175.03 182.915 175.629 182.011 176.118C180.618 176.875 179.139 177.376 177.611 177.609C177.086 177.694 176.56 177.743 176.047 177.755C175.766 177.768 175.485 177.755 175.216 177.731L174.849 177.719C174.642 177.706 174.446 177.706 174.238 177.682C174.006 177.658 173.774 177.621 173.432 177.56L173.248 177.535C173.065 177.499 172.87 177.474 172.686 177.425C172.466 177.376 172.246 177.315 172.039 177.242L171.709 177.144C171.538 177.095 171.354 177.046 171.183 176.985C170.975 176.912 170.768 176.826 170.572 176.741L170.23 176.594C170.071 176.521 169.9 176.46 169.741 176.374C169.546 176.277 169.35 176.167 169.154 176.057L168.812 175.861C168.666 175.775 168.507 175.69 168.36 175.604C168.165 175.482 167.981 175.348 167.798 175.213L167.468 174.981C167.334 174.883 167.187 174.786 167.053 174.676C166.869 174.529 166.698 174.382 166.527 174.223L166.209 173.942C166.087 173.832 165.953 173.722 165.83 173.6C165.659 173.441 165.513 173.27 165.354 173.099L165.048 172.769C164.938 172.647 164.816 172.525 164.706 172.403C164.547 172.219 164.401 172.024 164.254 171.828L163.973 171.462C163.875 171.327 163.765 171.205 163.68 171.058C163.533 170.85 163.411 170.643 163.276 170.435L163.02 170.032C162.934 169.897 162.836 169.751 162.751 169.604C162.629 169.384 162.506 169.152 162.396 168.92L162.164 168.467C162.091 168.321 162.018 168.186 161.944 168.027C161.834 167.795 161.736 167.539 161.639 167.294L161.431 166.793C161.37 166.647 161.309 166.5 161.26 166.353C161.162 166.097 161.089 165.815 161.015 165.547L160.857 165.021C160.808 164.874 160.759 164.728 160.722 164.581C160.649 164.288 160.588 163.995 160.527 163.701L160.417 163.151C160.38 163.017 160.355 162.87 160.331 162.724C160.258 162.333 160.221 161.917 160.16 161.404L160.123 161.123C160.111 161.013 160.087 160.903 160.087 160.793C160.026 160.133 160.001 159.461 160.001 158.801C160.001 158.141 160.026 157.469 160.087 156.809C160.099 156.699 160.111 156.589 160.123 156.479L160.184 156.027C160.233 155.636 160.27 155.257 160.331 154.878C160.355 154.719 160.392 154.572 160.429 154.413L160.551 153.827C160.6 153.558 160.661 153.289 160.722 153.02C160.771 152.849 160.82 152.69 160.869 152.519L161.052 151.933C161.125 151.7 161.186 151.468 161.272 151.236C161.333 151.065 161.406 150.894 161.48 150.723L161.7 150.173C161.785 149.965 161.859 149.757 161.956 149.55C162.042 149.366 162.127 149.195 162.213 149.024L162.47 148.511C162.567 148.327 162.653 148.144 162.751 147.961C162.849 147.79 162.946 147.631 163.056 147.472L163.362 146.995C163.46 146.824 163.57 146.653 163.68 146.494C163.79 146.335 163.912 146.177 164.034 146.018L164.364 145.59C164.474 145.431 164.596 145.284 164.718 145.138C164.841 144.991 164.975 144.844 165.109 144.698L165.464 144.319C165.586 144.185 165.72 144.038 165.855 143.903C165.989 143.769 166.136 143.647 166.283 143.525L166.674 143.182C166.808 143.06 166.943 142.938 167.089 142.828C167.236 142.706 167.395 142.596 167.554 142.486L167.945 142.205C168.091 142.095 168.238 141.985 168.397 141.887C168.556 141.789 168.727 141.691 168.886 141.606L169.289 141.374C169.448 141.276 169.607 141.19 169.778 141.105C169.949 141.019 170.12 140.946 170.291 140.873L170.719 140.689C170.89 140.616 171.061 140.543 171.305 140.457C171.464 140.396 171.623 140.359 171.782 140.311L171.978 140.249L172.185 140.188C172.369 140.127 172.552 140.078 172.747 140.029C172.919 139.993 173.102 139.956 173.285 139.932L173.896 139.834C174.031 139.809 174.177 139.785 174.312 139.761C174.495 139.736 174.678 139.736 174.862 139.724L175.338 139.699C175.57 139.687 175.815 139.675 176.047 139.675C178.125 139.724 180.129 140.249 182.011 141.252C182.915 141.728 183.795 142.327 184.614 143.011C185.433 143.671 186.19 144.453 186.887 145.309ZM196.26 136.656V125.89L204.571 126.232V136.852L196.26 136.656ZM218.417 149.061V159.448L210.473 159.51V148.987L218.417 149.061ZM209.654 136.974V134.225L226.055 134.713V137.365L209.654 136.974ZM234.756 127.479V130.082L209.654 129.19V126.452L234.756 127.479ZM179.053 114.256V104.784L241.502 109.098V117.653L179.053 114.256Z" fill="white"/>
<path d="M205.163 263.43L205.762 262.794C206.69 261.829 207.534 260.753 208.267 259.592C210.161 256.647 211.408 253.188 211.872 249.583L211.958 248.887L198.062 249.021L205.163 263.43Z" fill="white"/>
<path d="M335.963 201.872C335.963 200.503 335.475 199.562 335.01 199.134C334.68 198.829 334.375 198.768 334.167 198.768H334.069C333.091 198.853 332.212 200.283 332.114 201.957L332.102 202.165L332.224 202.336C332.334 202.495 332.432 202.654 332.529 202.825L332.725 203.13C333.079 203.693 333.421 204.291 333.764 204.902L334.094 205.514L334.167 205.465L335.536 208.495C336.061 209.644 336.574 210.866 337.1 212.198L338.261 211.819C337.968 210.206 337.369 208.801 336.55 207.848L334.375 205.294L334.644 205.098C335.255 204.67 335.963 203.558 335.963 201.872Z" fill="white"/>
<path d="M280.609 123.916L280.011 124.661C277.505 127.827 276.002 132.226 275.782 137.029L275.758 137.652L287.746 137.958L280.609 123.916Z" fill="white"/>
<path d="M300.102 146.272L300.248 145.808L288.59 139.221L275.758 138.891L275.794 139.551C276.063 145.27 278.116 150.439 281.416 153.715C283.579 155.878 286.084 157.014 288.651 157.014C288.687 157.014 288.724 157.014 288.761 157.014C293.649 156.978 298.11 152.761 300.102 146.272Z" fill="white"/>
<path d="M300.566 144.574L300.725 143.731C301.018 142.179 301.165 140.553 301.165 138.928C301.165 131.852 298.44 125.46 294.04 122.222L293.295 121.672L289.445 138.28L300.566 144.574Z" fill="white"/>
<path d="M292.184 121.107L291.707 120.912C290.73 120.508 289.728 120.276 288.725 120.215C286.33 120.069 283.972 120.936 281.894 122.708L281.527 123.026L288.542 136.836L292.184 121.107Z" fill="white"/>
<path d="M297.121 187.455C300.897 188.542 304.038 189.398 306.482 189.984L307.142 190.143L307.228 189.471C307.387 188.31 307.216 186.758 307.167 186.318L307.093 185.756L293.602 186.44L297.121 187.455Z" fill="white"/>
<path d="M206.838 232.545L206.435 232.19C203.856 229.917 200.691 228.854 197.342 229.147C192.882 229.551 188.58 232.361 185.525 236.859C181.406 242.933 180.258 251.194 182.592 257.891L182.873 258.697L196.56 248.065L206.838 232.545Z" fill="white"/>
<path d="M334.442 172.609L341.958 172.365C343.876 172.304 345.942 169.725 345.942 165.68V116.149C345.942 112.214 343.864 109.403 341.933 109.244L273.631 103.708C272.299 103.586 271.272 104.258 270.686 104.808C269.28 106.103 268.449 108.327 268.449 110.772V167.244C268.449 169.701 269.292 171.974 270.71 173.342C271.199 173.807 272.201 174.589 273.558 174.589C273.594 174.589 273.631 174.589 273.668 174.589L305.148 173.562L305.32 173.257C306.432 171.253 307.764 169.615 308.448 168.821L308.766 168.466L308.497 168.075C308.253 167.733 308.094 167.44 307.984 167.134C306.969 164.507 308.876 160.804 310.232 159.46L310.416 159.276V155.414H315.94V156.795L316.624 156.71C317.479 156.6 318.347 156.612 319.203 156.722L319.887 156.808V155.414L337.448 155.402V157.419L322.49 157.504L324.152 158.616C325.35 159.411 326.511 160.437 327.586 161.672L327.769 161.879L331.203 161.843V163.896L329.358 163.932L329.932 164.849C330.763 166.169 331.313 167.269 331.558 167.806L331.643 167.99L331.814 168.087C332.56 168.503 333.868 169.566 334.356 172.096L334.442 172.609ZM331.191 145.112V147.165L319.862 147.031V144.917L331.191 145.112ZM319.862 123.017V120.903L337.424 121.929V123.946L319.862 123.017ZM319.862 129.579V127.465L331.191 128.003V130.056L319.862 129.579ZM337.424 138.855V140.872L319.862 140.468V138.354L337.424 138.855ZM315.903 138.232V146.982L310.379 146.921V138.085L315.903 138.232ZM315.903 120.67V129.421L310.379 129.188V120.353L315.903 120.67ZM288.748 158.836L288.699 158.225C285.766 158.225 282.943 156.966 280.548 154.571C276.784 150.819 274.535 144.721 274.535 138.256C274.535 131.963 276.711 126.06 280.352 122.467C282.674 120.169 285.387 118.972 288.21 118.972C288.406 118.972 288.589 118.972 288.785 118.984C290.276 119.07 291.742 119.485 293.172 120.243C298.696 123.151 302.399 130.667 302.399 138.941C302.399 149.72 296.411 158.189 288.76 158.225L288.748 158.836Z" fill="white"/>
<path d="M198.238 247.8L212.06 247.678L212.085 247.092C212.243 242.069 210.875 237.462 208.235 234.113L207.709 233.453L198.238 247.8Z" fill="white"/>
<path d="M242.148 108.523L178.465 104.123V114.829L242.148 118.299V108.523Z" fill="#FFC700"/>
<path d="M176.086 217.637L265.213 209.95V196.85L176.086 202.716V217.637Z" fill="#FFC700"/>
<path d="M199.022 326.63L186.007 329.807C185.457 329.942 185.078 330.43 185.078 330.993V336.223C185.078 336.602 185.249 336.956 185.543 337.188C185.762 337.36 186.019 337.445 186.3 337.445C186.398 337.445 186.496 337.433 186.594 337.408L199.609 334.133C200.146 333.999 200.538 333.51 200.538 332.948V327.815C200.538 327.436 200.366 327.082 200.073 326.85C199.768 326.617 199.389 326.532 199.022 326.63Z" fill="#FFC700"/>
<path d="M224.746 315.4L212.671 318.259C212.122 318.394 211.73 318.883 211.73 319.445V329.515C211.73 329.894 211.902 330.248 212.195 330.48C212.415 330.651 212.671 330.737 212.953 330.737C213.05 330.737 213.148 330.725 213.246 330.7L225.32 327.657C225.858 327.523 226.249 327.034 226.249 326.472V316.585C226.249 316.206 226.078 315.864 225.784 315.632C225.491 315.4 225.1 315.314 224.746 315.4Z" fill="#FFC700"/>
<path d="M248.637 307.501L237.394 310.129C236.844 310.263 236.453 310.752 236.453 311.314V323.279C236.453 323.657 236.624 324.012 236.917 324.244C237.137 324.415 237.394 324.501 237.675 324.501C237.773 324.501 237.871 324.488 237.969 324.464L249.212 321.629C249.749 321.494 250.14 321.005 250.14 320.443V308.675C250.14 308.296 249.969 307.954 249.676 307.721C249.383 307.501 249.004 307.416 248.637 307.501Z" fill="#FFC700"/>
<path d="M288.47 309.23C289.106 303.144 289.851 297.498 290.658 292.341C290.731 291.901 290.792 291.473 290.866 291.045C290.939 290.605 291.012 290.178 291.073 289.75L281.969 291.766C281.407 291.889 281.016 292.39 281.016 292.964V312.065C281.016 312.444 281.187 312.799 281.48 313.031C281.7 313.202 281.957 313.287 282.238 313.287C282.335 313.287 282.433 313.275 282.531 313.251L288.214 311.821C288.25 311.393 288.299 310.953 288.336 310.525C288.385 310.098 288.421 309.658 288.47 309.23Z" fill="#FFC700"/>
<path d="M270.935 298.704L260.449 301.099C259.887 301.222 259.496 301.723 259.496 302.297V317.5C259.496 317.879 259.667 318.233 259.96 318.465C260.18 318.636 260.437 318.722 260.718 318.722C260.816 318.722 260.914 318.71 261.011 318.685L271.497 316.046C272.035 315.911 272.426 315.422 272.426 314.86V299.902C272.426 299.535 272.255 299.181 271.961 298.949C271.668 298.704 271.289 298.619 270.935 298.704ZM269.982 304.656L261.94 306.562V303.263L269.982 301.429V304.656Z" fill="#FFC700"/>
<path d="M343.52 281.35V281.973L343.581 281.961L345.023 281.631V279.162V277.06V276.938V273.932L345.047 273.919L347.479 281.081L348.958 280.751V268.75L347.479 269.043V276.718L347.442 276.742L345.023 269.557L343.52 269.862V276.315V277.097V279.321V281.35Z" fill="#FFC700"/>
<path d="M128.979 94.8061C128.649 95.3682 128.074 95.6249 127.5 95.5515C127.231 95.5149 126.95 95.3926 126.706 95.1971C125.936 94.5738 125.716 93.4006 126.217 92.5818L132.755 81.6197C131.386 80.8131 129.883 80.2632 128.294 80.0066C120.925 78.8211 114.509 84.6505 114.069 93.034C113.642 101.43 119.385 108.982 126.779 109.887C134.038 110.767 140.149 104.888 140.552 96.7736C140.796 91.7386 138.804 86.948 135.541 83.7706L128.979 94.8061Z" fill="#0D70BA"/>
<path d="M316.538 120.094L309.805 119.703V129.773L316.538 130.054V120.094Z" fill="#FFC700"/>
<path d="M316.538 137.639L309.805 137.443V147.513L316.538 147.599V137.639Z" fill="#FFC700"/>
<path d="M209.07 129.775L235.394 130.703V126.878L209.07 125.803V129.775Z" fill="#CBCBCB"/>
<path d="M226.693 134.119L209.07 133.594V137.566L226.693 137.993V134.119Z" fill="#CBCBCB"/>
<path d="M338.061 121.35L319.277 120.25V123.599L338.061 124.576V121.35Z" fill="#CBCBCB"/>
<path d="M331.828 127.413L319.277 126.826V130.162L331.828 130.688V127.413Z" fill="#CBCBCB"/>
<path d="M338.061 138.256L319.277 137.719V141.067L338.061 141.495V138.256Z" fill="#CBCBCB"/>
<path d="M331.828 144.513L319.277 144.293V147.641L331.828 147.788V144.513Z" fill="#CBCBCB"/>
<path d="M324.496 158.096L338.061 158.01V154.771L319.277 154.784V156.091C319.998 156.177 320.707 156.336 321.416 156.568C322.528 156.935 323.555 157.472 324.496 158.096Z" fill="#CBCBCB"/>
<path d="M331.827 164.486V161.211L328.051 161.26C329.016 162.36 329.823 163.496 330.47 164.511L331.827 164.486Z" fill="#CBCBCB"/>
<path d="M230.755 149.14C230.779 148.933 230.84 148.737 230.926 148.554L222.75 148.48V152.367L232.27 152.391C231.427 151.413 230.584 150.387 230.755 149.14Z" fill="#CBCBCB"/>
<path d="M237.75 148.616L236.969 148.604C237.225 148.787 237.494 148.97 237.75 149.177V148.616Z" fill="#CBCBCB"/>
<path d="M233.565 156.107L222.75 156.132V160.018L233.834 159.933C233.541 158.613 233.541 157.256 233.565 156.107Z" fill="#CBCBCB"/>
<path d="M109.495 377.257C110.888 378.308 112.55 378.845 114.334 378.845C115.19 378.845 116.07 378.723 116.962 378.467L286.93 330.622C286.502 340.729 286.465 351.678 287.003 363.398C287.113 365.684 288.897 367.529 291.17 367.7C291.402 367.712 291.671 367.737 291.928 367.761C292.05 369.093 292.185 370.657 292.258 371.782C291.891 371.831 291.574 371.965 291.292 372.258L291.28 372.271C289.032 374.727 284.693 378.772 282.603 379.139C278.705 379.835 276.725 383.844 277.116 386.202C277.556 388.83 281.357 389.942 290.095 389.942C290.828 389.942 291.61 389.93 292.417 389.918C302.548 389.722 305.75 388.622 306.104 385.225C306.116 385.115 305.921 373.053 304.589 372.099C304.442 371.99 304.283 371.928 304.124 371.892C304.002 370.609 303.794 368.971 303.672 367.932C304.076 367.724 304.467 367.48 304.797 367.162C305.701 366.295 306.202 365.073 306.177 363.814C306.006 356.445 305.762 332.87 308.915 324.438L316.895 322.189C320.647 344.285 325.315 359.182 327.845 364.107C328.566 365.525 330.02 366.368 331.548 366.368C331.572 366.368 331.609 366.368 331.634 366.368C331.731 366.869 331.829 367.419 331.902 367.944C331.744 367.981 331.585 368.006 331.426 368.067C330.448 368.091 327.576 368.213 326.318 368.824C325.205 369.374 322.835 371.733 322.48 374.116C322.297 375.326 322.651 376.377 323.494 377.159C325.205 378.748 331.756 380.459 336.95 380.459C337.634 380.459 338.306 380.434 338.929 380.361C341.789 380.068 343.793 379.139 344.881 377.599C347.24 374.287 346.176 370.083 344.074 367.407C343.622 366.832 342.901 366.05 342.082 365.684C341.985 364.938 341.85 363.753 341.74 362.592C343.036 361.614 343.683 359.928 343.292 358.278C341.007 348.733 340.103 330.891 339.712 315.773L351.847 312.364C354.902 311.508 357.297 307.243 357.297 302.66V76.7576C357.297 72.1137 354.841 68.093 351.7 67.6042L281.821 56.8498V44.9467C281.821 41.3049 279.67 38.0663 276.908 37.5531L245.941 31.8704C244.621 31.6259 243.338 31.9681 242.299 32.8358C240.93 33.9846 240.136 35.891 240.136 38.0908V50.4216L183.932 41.7693V23.1569C183.932 19.0384 181.195 15.2989 177.712 14.6389L135.88 6.69536C134.059 6.35317 132.311 6.79312 130.93 7.91744C129.378 9.20063 128.498 11.2537 128.498 13.5513V33.2269L116.815 31.4304C114.114 31.0149 111.536 31.7359 109.531 33.4591C107.295 35.3777 106.012 38.3841 106.012 41.6959V369.423C106 372.735 107.271 375.582 109.495 377.257ZM269.356 195.105V265.13C269.356 268.98 267.107 272.646 264.455 273.135L174.742 289.841C173.251 290.122 171.858 289.767 170.721 288.814C169.23 287.58 168.375 285.478 168.375 283.07V201.679C168.375 197.121 171.357 193.259 175.023 193.076L264.639 188.518C265.873 189.41 267.156 190.302 268.488 191.169C269.038 192.294 269.356 193.663 269.356 195.105ZM341.96 171.75L334.958 171.983C334.432 169.209 332.953 168.023 332.122 167.559C331.854 166.972 331.291 165.848 330.46 164.528C329.813 163.514 329.018 162.377 328.041 161.277C327.026 160.128 325.841 159.029 324.484 158.124C323.543 157.501 322.517 156.963 321.405 156.597C320.696 156.364 319.987 156.218 319.266 156.12C318.362 156.01 317.457 155.998 316.529 156.108V154.812H309.795V159.029C308.328 160.483 306.287 164.467 307.412 167.363C307.558 167.754 307.766 168.096 307.998 168.426C307.192 169.343 305.896 170.981 304.797 172.973L273.658 173.987C272.546 174.024 271.678 173.425 271.152 172.911C269.857 171.653 269.075 169.538 269.075 167.253V110.781C269.075 108.507 269.833 106.442 271.116 105.269C271.592 104.829 272.362 104.328 273.352 104.328C273.426 104.328 273.511 104.328 273.597 104.34L341.899 109.876C343.525 110.011 345.345 112.626 345.345 116.17V165.701C345.345 169.245 343.598 171.689 341.96 171.75ZM342.767 299.715L339.394 300.595C339.382 299.679 339.369 298.799 339.357 297.98C339.32 294.656 339.284 292.077 339.235 290.598C339.211 289.792 339.162 288.839 339.113 287.788L342.266 283.168C342.657 283.633 343.097 283.999 343.573 284.268V297.748C343.573 298.848 343.011 299.654 342.767 299.715ZM342.877 376.206C342.217 377.122 340.763 377.733 338.673 377.941C333.283 378.503 326.232 376.377 325.144 375.375C324.973 375.216 324.802 374.984 324.875 374.483C325.083 373.053 326.831 371.293 327.368 371.036C327.955 370.743 330.057 370.547 331.658 370.523C331.817 370.523 331.976 370.486 332.122 370.425C332.318 370.34 332.477 370.303 332.66 370.303C332.856 370.303 333.088 370.352 333.479 370.425C333.809 370.486 334.188 370.56 334.652 370.621C335.972 370.78 337.658 369.936 339.895 368.714C340.396 368.445 340.873 368.189 341.215 368.018C341.74 368.348 342.865 369.619 343.439 371.403C343.842 372.649 344.074 374.507 342.877 376.206ZM339.382 363.753C339.467 364.535 339.553 365.378 339.65 366.038C339.357 366.185 339.052 366.356 338.722 366.539C337.707 367.089 335.569 368.225 334.945 368.164C334.725 368.14 334.542 368.103 334.359 368.079C334.273 367.309 334.127 366.466 334.004 365.806C335.825 365.219 337.732 364.461 339.382 363.753ZM339.932 360.844C337.768 361.81 334.628 363.117 331.988 363.875C331.194 364.095 330.375 363.74 329.996 363.007C327.368 357.887 322.822 342.574 319.254 321.542C319.119 320.747 318.985 319.929 318.851 319.122C318.142 314.747 317.47 310.152 316.871 305.361C318.973 299.52 320.867 293.629 322.028 289.462C322.627 287.287 323.03 285.576 323.152 284.586C323.226 283.963 322.81 283.413 322.211 283.266C322.162 283.254 322.126 283.229 322.089 283.229C321.417 283.144 320.806 283.633 320.733 284.305C320.219 288.668 312.166 313.146 307.351 321.957C307.265 322.104 307.192 322.275 307.118 322.434C306.74 323.228 306.397 324.169 306.104 325.257C303.428 334.875 303.538 354.917 303.733 363.887C303.746 364.474 303.526 365.011 303.11 365.415C302.695 365.818 302.132 366.013 301.558 365.989C298.038 365.769 294.006 365.476 291.366 365.28C290.327 365.207 289.508 364.351 289.459 363.313C288.909 351.361 288.958 340.215 289.41 329.962C289.447 329.094 289.496 328.239 289.533 327.383C289.74 323.399 289.997 319.55 290.315 315.847C290.388 314.979 290.461 314.111 290.535 313.268C290.596 312.572 290.669 311.887 290.73 311.215C290.767 310.787 290.816 310.347 290.853 309.92C291.207 306.4 291.61 303.039 292.038 299.825C292.429 296.917 292.832 294.155 293.26 291.503C293.896 287.555 294.555 283.901 295.228 280.565C295.411 279.673 295.582 278.805 295.765 277.962C296.425 274.797 297.085 271.962 297.708 269.456C297.941 268.54 298.161 267.672 298.368 266.853C299.676 261.818 300.751 258.458 301.252 256.967C301.424 256.979 301.595 257.003 301.766 257.003C304.491 257.003 307.302 255.647 308.487 254.999C310.406 255.439 318.044 257.174 322.957 258.286C324.692 258.678 328.004 259.191 331.169 259.191C332.355 259.191 333.516 259.105 334.591 258.934C334.615 259.276 334.652 259.655 334.689 260.095C334.75 260.792 334.811 261.623 334.884 262.539C335.202 266.523 335.654 272.328 336.033 277.84C336.094 278.659 336.143 279.477 336.204 280.284C336.375 282.753 336.522 285.099 336.632 287.116C336.705 288.484 336.766 289.706 336.803 290.708C336.803 290.855 336.815 291.014 336.815 291.185C336.852 292.7 336.889 295.059 336.925 298.029C336.937 299.031 336.95 300.106 336.962 301.243C336.974 302.049 336.986 302.893 336.999 303.748C337.047 306.852 337.109 310.311 337.194 313.965C337.219 314.796 337.231 315.639 337.255 316.482C337.671 331.575 338.587 349.259 340.885 358.864C341.093 359.695 340.701 360.502 339.932 360.844ZM279.524 385.811C279.377 384.931 280.391 382.023 283.031 381.558C286.282 380.984 291.378 375.754 292.783 374.263C293.187 374.385 293.871 374.69 294.36 374.91C295.509 375.424 296.804 375.998 298.002 376.169C299.749 376.426 301.668 375.472 303 374.776C303.354 377.452 303.831 383.538 303.684 384.992C303.599 385.848 303.452 387.278 292.38 387.498C279.988 387.742 279.536 385.897 279.524 385.811ZM294.397 367.944C296.56 368.103 299.004 368.274 301.252 368.409C301.424 369.729 301.631 371.55 301.729 372.674C300.727 373.187 299.26 373.884 298.319 373.749C297.464 373.627 296.327 373.126 295.338 372.674C295.13 372.576 294.922 372.491 294.727 372.405C294.69 371.195 294.519 369.301 294.397 367.944ZM265.47 186.122C259.152 181.478 254.214 176.688 251.318 173.156C249.326 170.724 247.114 168.707 245.012 167.033C244.254 166.434 243.509 165.872 242.788 165.359C240.967 164.064 239.329 163.049 238.107 162.304C237.166 161.729 236.653 160.874 236.36 159.908C235.993 158.711 235.981 157.354 236.017 156.096C236.017 155.937 236.03 155.79 236.03 155.631C236.042 155.24 236.054 154.886 236.054 154.556C236.054 153.761 235.761 153.053 235.358 152.405C235.015 151.855 234.588 151.354 234.184 150.877C233.818 150.449 233.207 149.716 233.158 149.521C233.158 149.521 233.207 149.447 233.28 149.374C233.304 149.374 233.329 149.374 233.341 149.374C234.05 149.374 235.675 150.511 237.741 152.368C240.087 154.47 243.008 157.489 245.855 160.837C245.916 160.911 245.977 160.984 246.051 161.057C246.283 161.338 246.967 162.01 247.933 162.939C252.137 166.972 261.791 175.783 264.284 177.47C267.12 179.389 275.894 183.287 278.754 184.534C278.253 186.904 277.471 190.253 276.603 193.161C274.415 191.988 272.313 190.742 270.309 189.446C268.623 188.359 267.01 187.247 265.47 186.122ZM281.259 184.57C282.713 185.035 285.243 185.817 288.262 186.733C289.154 187.002 290.083 187.283 291.048 187.576C298.026 189.666 306.41 192.049 310.345 192.66L311.274 192.807C317.335 193.736 324.68 194.885 330.314 202.804C330.888 203.623 331.45 204.515 331.988 205.48C332.269 205.981 332.55 206.482 332.819 207.032C332.831 207.057 332.843 207.069 332.856 207.093C332.953 207.277 333.027 207.472 333.125 207.655C334.066 209.623 334.897 211.554 335.605 213.399C335.911 214.206 336.204 214.988 336.473 215.77C338.819 222.479 339.724 227.832 340.005 229.897L337.756 230.753L336.925 231.071C336.669 229.311 336.412 227.588 336.131 225.913C335.508 222.125 334.86 218.666 334.224 216.014C334.004 215.122 333.797 214.316 333.589 213.619C333.479 213.265 333.381 212.935 333.271 212.642C333.039 212.006 332.342 211.676 331.707 211.896C331.071 212.128 330.741 212.825 330.961 213.46C331.01 213.583 331.047 213.741 331.096 213.876C331.328 214.56 331.548 215.355 331.78 216.259C332.391 218.691 333.002 221.844 333.577 225.302C333.711 226.097 333.833 226.903 333.968 227.722C334.212 229.262 334.432 230.851 334.652 232.439C334.677 232.647 334.713 232.855 334.738 233.063C334.835 233.784 334.933 234.517 335.031 235.238C335.043 235.372 335.068 235.507 335.08 235.641C335.336 237.658 335.581 239.65 335.789 241.544C335.886 242.375 335.972 243.181 336.045 243.976C336.656 249.927 336.95 254.547 336.717 255.402C336.62 255.745 336.155 256.026 335.447 256.233C335.373 256.258 335.312 256.27 335.239 256.294C332.892 256.93 328.138 256.918 323.482 255.867C320.183 255.121 315.661 254.095 312.459 253.361C314.793 252.738 317.25 252.445 318.032 252.714C318.679 252.934 319.364 252.579 319.572 251.944C319.779 251.308 319.437 250.612 318.802 250.392C316.541 249.634 310.333 251.052 307.668 252.616C305.408 253.936 302.279 254.975 300.385 254.315C299.578 254.034 299.016 253.447 298.674 252.53C298.405 251.834 298.075 250.282 297.721 248.18C297.598 247.447 297.464 246.64 297.33 245.772C296.865 242.754 296.352 239.026 295.851 235.067C295.716 233.979 295.57 232.867 295.435 231.755C294.751 226.182 294.091 220.426 293.566 215.733C293.443 214.67 293.346 213.668 293.236 212.739C294.788 214.316 296.071 215.941 296.865 217.542C297.012 217.835 297.268 218.043 297.55 218.153C297.855 218.263 298.185 218.251 298.491 218.104C298.515 218.092 298.527 218.068 298.564 218.055C299.114 217.738 299.334 217.053 299.053 216.467C298.906 216.173 298.723 215.88 298.552 215.599C297.782 214.267 296.755 212.947 295.558 211.664C294.8 210.857 293.981 210.051 293.113 209.269C292.906 209.085 292.686 208.902 292.466 208.719C292.441 208.706 292.429 208.682 292.405 208.67C291.024 207.484 289.569 206.348 288.103 205.297C287.284 204.71 286.465 204.148 285.659 203.623C282.115 201.276 278.864 199.467 277.202 198.588C279.01 194.872 280.624 187.589 281.259 184.57ZM305.298 180.244C305.114 178.631 305.579 176.932 306.312 175.356C306.715 174.464 307.204 173.62 307.705 172.863C308.463 171.702 309.22 170.748 309.758 170.125C310.748 170.797 311.86 171.249 312.765 171.543C312.557 171.909 312.373 172.313 312.264 172.728C312.141 173.18 312.092 173.632 312.19 174.085C312.276 174.5 312.496 174.867 312.789 175.16C313.021 175.392 313.302 175.6 313.644 175.747L314.06 175.918C314.757 176.199 315.942 176.688 316.076 176.957C316.076 176.993 316.04 177.128 315.905 177.36C314.292 179.914 313.205 182.004 312.606 183.666C312.251 184.631 312.08 185.462 312.056 186.134C312.056 186.244 312.044 186.379 312.044 186.477C312.141 188.041 312.41 189.678 313.742 190.754C313.021 190.632 312.312 190.522 311.628 190.412L310.711 190.265C310.223 190.192 309.636 190.082 309.001 189.947C309.208 188.689 309.123 187.21 309.013 186.281C308.976 185.927 308.927 185.633 308.903 185.487C308.842 185.145 308.646 184.839 308.353 184.656C307.986 184.424 307.656 184.179 307.351 183.922C306.141 182.871 305.456 181.674 305.298 180.244ZM332.184 178.118C331.768 179.877 330.913 181.417 329.837 182.749C329.055 183.715 328.163 184.582 327.185 185.328C323.372 188.273 318.618 189.569 317.005 189.385C314.867 189.141 314.622 188.383 314.488 186.293C314.488 186.22 314.488 186.11 314.5 185.976C314.537 185.536 314.72 184.766 315.282 183.483C315.795 182.322 316.626 180.745 317.971 178.619C318.508 177.763 318.655 176.957 318.411 176.199C318.252 175.698 317.946 175.307 317.567 174.977C316.895 174.402 315.954 174.024 314.989 173.62L314.585 173.449C314.61 173.254 314.757 172.948 314.964 172.618C315.172 172.276 315.441 171.909 315.722 171.604C316.028 171.274 316.125 170.797 315.979 170.37C315.832 169.942 315.465 169.636 315.013 169.563C313.791 169.367 310.455 168.439 309.685 166.447C309.404 165.713 309.514 164.785 309.795 163.868C310.223 162.475 311.041 161.143 311.579 160.666C311.824 160.458 312.08 160.263 312.349 160.104C313.767 159.273 315.172 158.747 316.541 158.54C317.946 158.32 319.315 158.43 320.635 158.87C322.138 159.371 323.482 160.251 324.643 161.277C325.78 162.279 326.745 163.44 327.54 164.54C329.177 166.813 330.057 168.866 330.069 168.903C330.204 169.221 330.497 169.477 330.815 169.587C331.377 169.795 332.11 170.528 332.477 172.019C332.636 172.679 332.733 173.486 332.709 174.464C332.672 175.514 332.513 176.712 332.184 178.118ZM339.54 232.672C339.858 234.089 340.237 236.46 339.846 238.55C339.724 239.185 339.553 239.796 339.272 240.334C339.015 240.835 338.673 241.251 338.27 241.581C338.001 239.197 337.695 236.68 337.353 234.15C337.329 233.942 337.292 233.735 337.267 233.527L339.54 232.672ZM336.082 208.254C336.791 209.085 337.365 210.368 337.646 211.945C337.646 211.957 337.646 211.982 337.646 211.994C337.182 210.772 336.669 209.537 336.082 208.254ZM334.286 204.625C333.943 203.989 333.589 203.39 333.222 202.816C333.21 202.804 333.198 202.779 333.186 202.767C333.027 202.51 332.868 202.254 332.709 202.009C332.807 200.47 333.577 199.431 334.114 199.394C334.127 199.394 334.139 199.394 334.151 199.394C334.224 199.394 334.371 199.419 334.567 199.602C334.921 199.932 335.324 200.726 335.324 201.887C335.349 203.244 334.799 204.246 334.286 204.625ZM345.04 273.917L345.003 273.929V276.923V277.058V279.148V281.628L343.561 281.958L343.5 281.971V281.347V279.319V277.094V276.312V269.86L344.991 269.554L347.423 276.74L347.46 276.728V269.053L348.938 268.748V280.748L347.46 281.078L345.04 273.917ZM340.934 280.797L338.881 283.804C338.795 282.508 338.709 281.14 338.612 279.734L340.518 279.319C340.616 279.844 340.763 280.333 340.934 280.797ZM336.986 258.213C338.013 257.737 338.771 257.064 339.064 256.111C339.418 254.95 339.162 250.233 338.551 244.257C339.797 243.658 340.775 242.729 341.435 241.458C343.097 238.269 342.327 233.833 341.838 231.779C342.29 231.559 342.583 231.083 342.535 230.582C342.498 230.227 341.887 223.885 338.868 215.22C339.064 215.073 339.247 214.915 339.406 214.695C340.005 213.888 340.262 212.642 340.054 211.505C339.553 208.706 338.306 206.617 336.705 205.553C337.377 204.588 337.781 203.293 337.781 201.875C337.781 200.213 337.206 198.685 336.241 197.793C335.581 197.182 334.774 196.889 333.931 196.95C332.611 197.048 331.475 198.062 330.827 199.504C330.644 199.296 330.473 199.101 330.289 198.905C330.277 198.893 330.277 198.893 330.265 198.881C329.678 198.233 329.067 197.659 328.468 197.109C325.266 194.237 321.796 192.673 318.459 191.744C321.747 191.304 327.258 189.177 330.998 185.132L342.046 184.57C342.07 184.57 342.107 184.57 342.131 184.57C342.645 184.57 343.146 184.79 343.61 185.242C344.673 186.257 345.333 188.175 345.333 190.265V251.944C345.333 255.61 343.488 258.409 341.765 258.739L337.084 259.606C337.047 259.044 337.011 258.58 336.986 258.213ZM306.569 186.391C306.691 187.344 306.74 188.554 306.63 189.385C303.941 188.725 300.629 187.821 297.293 186.855L306.569 186.391ZM288.115 208.328C288.934 208.939 289.74 209.586 290.51 210.234C290.779 212.776 292.001 224.288 293.346 234.871C293.199 235.421 293.113 235.996 293.113 236.594V243.609C293.113 245.235 293.676 246.652 294.678 247.508C294.837 247.654 295.02 247.764 295.191 247.874C295.631 250.514 296.046 252.506 296.389 253.398C296.89 254.718 297.757 255.683 298.882 256.282C298.307 258.018 297.122 261.757 295.716 267.318L292.172 267.978C291.39 268.124 290.657 267.929 290.009 267.379C288.824 266.401 288.127 264.495 288.127 262.307V208.328H288.115ZM291.073 289.755C290.999 290.183 290.926 290.623 290.865 291.051C290.791 291.491 290.718 291.906 290.657 292.346C289.85 297.503 289.105 303.137 288.469 309.235C288.421 309.663 288.384 310.103 288.347 310.531C288.311 310.958 288.262 311.386 288.225 311.826C288.164 312.523 288.091 313.195 288.029 313.904L174.669 343.27C173.165 343.662 171.772 343.405 170.648 342.537C169.206 341.425 168.387 339.421 168.387 337.05V314.796C168.387 310.225 171.516 305.728 175.219 304.982L292.649 281.078C292.111 283.779 291.586 286.676 291.073 289.755ZM310.32 321.517C311.75 318.609 313.412 314.612 315.062 310.274C315.514 313.561 315.991 316.739 316.48 319.782L310.32 321.517ZM354.817 302.673C354.817 306.449 352.922 309.529 351.15 310.017L339.614 313.268C339.528 309.614 339.467 306.18 339.43 303.113L343.378 302.086C344.881 301.695 346.018 299.837 346.018 297.76V284.696C346.091 284.684 346.164 284.684 346.25 284.659C349.501 283.901 352.116 279.16 352.116 274.064C352.116 268.968 349.501 265.35 346.25 265.998C342.95 266.646 340.262 271.412 340.262 276.618C340.262 276.716 340.274 276.801 340.274 276.899L338.453 277.29C338.062 271.742 337.61 265.973 337.304 262.063L342.241 261.146C345.37 260.56 347.814 256.527 347.814 251.956V190.277C347.814 187.503 346.885 184.961 345.333 183.483C344.356 182.554 343.195 182.077 341.96 182.15L332.953 182.615C333.674 181.429 334.249 180.134 334.591 178.704C334.982 177.054 335.141 175.649 335.165 174.439L342.058 174.219C345.284 174.109 347.814 170.37 347.814 165.701V116.17C347.814 111.538 345.309 107.701 342.119 107.444L273.817 101.908C272.277 101.786 270.725 102.336 269.49 103.485C267.694 105.147 266.655 107.811 266.655 110.793V167.265C266.655 170.247 267.682 172.948 269.466 174.683C270.664 175.832 272.069 176.443 273.572 176.443C273.633 176.443 273.694 176.443 273.756 176.443L303.66 175.466C303.049 177.091 302.695 178.826 302.89 180.549C303.037 181.857 303.501 183.03 304.234 184.094L292.356 184.692C291.842 184.717 291.354 184.827 290.877 184.986C285.304 183.311 280.819 181.882 280.721 181.845C280.391 181.735 280.025 181.784 279.732 181.955C279.634 182.016 279.56 182.102 279.475 182.187C276.395 180.831 268.244 177.189 265.69 175.466C263.074 173.694 251 162.573 248.397 159.957V107.493C248.397 103.204 245.745 99.6229 242.36 99.3418L178.482 94.1602C176.746 94.0135 175.06 94.6123 173.728 95.8344C172.09 97.3376 171.149 99.6473 171.149 102.153V137.324C171.943 137.08 172.762 136.884 173.593 136.774V102.153C173.593 100.319 174.241 98.6697 175.377 97.6309C176.123 96.9343 177.015 96.5799 177.968 96.5799C178.066 96.5799 178.176 96.5799 178.274 96.5921L242.152 101.774C244.205 101.945 245.953 104.56 245.953 107.481V157.171C243.24 154.104 240.331 151.122 237.777 149.179C237.508 148.971 237.252 148.787 236.995 148.604C234.942 147.174 233.182 146.551 232.058 147.297C231.52 147.651 231.154 148.079 230.946 148.555C230.86 148.739 230.799 148.934 230.775 149.142C230.604 150.388 231.447 151.415 232.278 152.405C232.29 152.429 232.315 152.441 232.327 152.466C232.926 153.175 233.61 153.994 233.61 154.556C233.61 154.861 233.598 155.203 233.586 155.558C233.586 155.729 233.573 155.912 233.573 156.096C233.549 157.257 233.549 158.601 233.83 159.921C234.197 161.619 235.015 163.257 236.836 164.369C237.374 164.699 237.997 165.09 238.657 165.506L193.281 166.337C193.024 167.18 192.719 168.011 192.377 168.793L242.14 167.889C244.523 169.648 247.114 171.86 249.436 174.696C252.039 177.873 256.255 182.04 261.596 186.22L174.913 190.632C169.964 190.888 165.943 195.838 165.943 201.679V283.07C165.943 286.211 167.116 288.998 169.169 290.696C170.489 291.796 172.102 292.371 173.789 292.371C174.253 292.371 174.73 292.322 175.206 292.236L264.92 275.53C268.794 274.809 271.812 270.238 271.812 265.118V195.092C271.812 194.42 271.751 193.772 271.654 193.137C273.01 193.956 274.415 194.738 275.845 195.508C275.405 196.718 274.965 197.732 274.525 198.368C274.33 198.661 274.269 199.027 274.354 199.357C274.44 199.7 274.672 199.981 274.99 200.14C275.088 200.188 280.281 202.804 285.683 206.543V262.283C285.683 265.24 286.697 267.782 288.457 269.236C289.41 270.031 290.535 270.446 291.708 270.446C292.014 270.446 292.319 270.422 292.637 270.361L295.081 269.909C294.47 272.45 293.822 275.31 293.174 278.463L174.73 302.575C169.878 303.565 165.943 309.04 165.943 314.784V337.038C165.943 340.166 167.116 342.867 169.157 344.456C170.367 345.397 171.809 345.874 173.337 345.874C173.972 345.874 174.62 345.788 175.28 345.617L287.81 316.47C287.504 320.185 287.247 324.047 287.052 328.055L148.064 367.174V69.4373L176.221 72.6392L181.696 79.8862C181.928 80.1917 182.294 80.375 182.673 80.375C182.808 80.375 182.93 80.3506 183.064 80.3139C183.565 80.1428 183.895 79.6784 183.895 79.1529V73.5069L240.099 79.8862V89.5529C240.099 90.0662 240.429 90.5306 240.918 90.7016C241.052 90.7505 241.187 90.775 241.321 90.775C241.676 90.775 242.03 90.6161 242.275 90.3228L249.864 80.9861L354.817 92.9014V302.673ZM130.942 33.6179V13.5635C130.942 11.9992 131.505 10.6305 132.494 9.81168C133.118 9.2984 133.863 9.02954 134.67 9.02954C134.914 9.02954 135.171 9.05399 135.415 9.10287L177.211 17.0342C179.508 17.4742 181.439 20.2727 181.439 23.1569V41.4026V43.8713V70.7816V73.238V75.5111L179.557 73.018L177.528 70.3294L168.473 58.353C168.277 58.0963 167.984 57.9253 167.654 57.8764L135.806 53.7702C133.167 53.428 130.942 50.5316 130.942 47.4275V36.0866V33.6179ZM242.556 50.8005V38.0908C242.556 36.6487 243.032 35.39 243.839 34.7178C244.218 34.4001 244.645 34.2412 245.098 34.2412C245.22 34.2412 245.342 34.2534 245.476 34.2779L276.444 39.9606C277.85 40.2172 279.353 42.2825 279.353 44.9467V56.471V58.9396V72.2481C279.353 73.6657 278.9 74.9123 278.143 75.5844C277.74 75.9388 277.3 76.0977 276.823 76.0366L253.811 73.2258C253.396 73.1769 252.98 73.3358 252.711 73.6657L248.825 78.4319L246.992 80.6805L242.556 86.131V80.1795V77.7231V53.2813V50.8005ZM351.297 70.0239C352.959 70.2806 354.817 73.1158 354.817 76.7576V90.4572L251.697 78.7496L254.165 75.7189L276.505 78.4563C277.666 78.5908 278.827 78.2241 279.744 77.4053C281.039 76.2566 281.785 74.3746 281.785 72.2481V59.3184L351.297 70.0239ZM240.111 52.9025V77.442L183.908 71.0627V44.2501L240.111 52.9025ZM108.444 41.7082C108.444 39.1051 109.421 36.7831 111.12 35.3289C112.306 34.3145 113.784 33.7768 115.361 33.7768C115.715 33.7768 116.082 33.8013 116.448 33.8624L128.51 35.7199V47.4397C128.51 51.7782 131.651 55.7011 135.501 56.2021L166.847 60.235L174.192 69.9506L108.456 62.4836V41.7082H108.444ZM108.444 64.94L145.607 69.1562V367.871L116.29 376.12C114.285 376.682 112.391 376.389 110.961 375.301C109.36 374.091 108.444 371.953 108.444 369.435V64.94Z" fill="#0D70BA"/>
<path d="M352.399 74.7882L345.531 73.8105V84.7238L352.399 85.5793V74.7882Z" fill="#0D70BA"/>
<path d="M341.41 73.2136L334.273 72.1992V83.3324L341.41 84.2123V73.2136Z" fill="#0D70BA"/>
<path d="M329.973 71.5769L322.543 70.5137V81.8791L329.973 82.7956V71.5769Z" fill="#0D70BA"/>
<path d="M118.323 166.075C118.335 166.075 118.347 166.075 118.36 166.075L136.569 165.843C138.084 165.818 139.306 164.474 139.306 162.836V152.876C139.306 151.239 138.072 149.894 136.557 149.882L130.593 149.858C130.446 149.858 130.238 149.638 130.238 149.296C130.238 147.646 128.992 146.289 127.452 146.277L118.347 146.191C117.602 146.191 116.93 146.472 116.404 146.998C115.83 147.56 115.5 148.367 115.5 149.21V163.068C115.5 163.912 115.83 164.718 116.404 165.28C116.93 165.794 117.602 166.075 118.323 166.075ZM117.944 149.21C117.944 149.014 118.005 148.843 118.127 148.733C118.189 148.672 118.262 148.636 118.335 148.636L127.44 148.721C127.611 148.721 127.806 148.978 127.806 149.296C127.806 150.945 129.053 152.302 130.593 152.302L136.557 152.326C136.679 152.326 136.874 152.546 136.874 152.876V162.836C136.874 163.166 136.679 163.398 136.544 163.398L118.335 163.631C118.262 163.631 118.201 163.594 118.14 163.533C118.03 163.423 117.969 163.252 117.969 163.056V149.21H117.944Z" fill="#0D70BA"/>
<path d="M118.843 213.826L121.043 213.667C121.678 213.618 122.179 213.093 122.179 212.445V201.532C122.179 201.19 122.045 200.872 121.8 200.64C121.556 200.407 121.226 200.285 120.884 200.31L118.684 200.444C118.036 200.481 117.535 201.019 117.535 201.666V212.604C117.535 212.946 117.682 213.264 117.926 213.496C118.158 213.704 118.452 213.826 118.757 213.826C118.782 213.826 118.806 213.826 118.843 213.826Z" fill="#0D70BA"/>
<path d="M126.55 213.262L128.713 213.103C129.348 213.054 129.849 212.529 129.849 211.881V196.581C129.849 196.251 129.715 195.921 129.471 195.688C129.226 195.456 128.896 195.334 128.566 195.359L126.403 195.481C125.755 195.517 125.242 196.055 125.242 196.703V212.052C125.242 212.394 125.389 212.712 125.633 212.944C125.865 213.152 126.159 213.274 126.464 213.274C126.489 213.262 126.513 213.262 126.55 213.262Z" fill="#0D70BA"/>
<path d="M134.109 212.707L136.223 212.548C136.859 212.499 137.36 211.973 137.36 211.326V203.749C137.36 203.406 137.225 203.089 136.969 202.856C136.724 202.624 136.37 202.502 136.052 202.527L133.938 202.661C133.29 202.698 132.789 203.235 132.789 203.883V211.484C132.789 211.827 132.936 212.144 133.18 212.377C133.412 212.584 133.706 212.707 134.011 212.707C134.06 212.707 134.084 212.707 134.109 212.707Z" fill="#0D70BA"/>
<path d="M137.978 216.722L116.616 218.482C115.944 218.543 115.443 219.13 115.492 219.802C115.54 220.437 116.078 220.926 116.714 220.926C116.75 220.926 116.775 220.926 116.811 220.926L138.174 219.166C138.846 219.105 139.347 218.519 139.298 217.846C139.237 217.174 138.662 216.673 137.978 216.722Z" fill="#0D70BA"/>
<path d="M126.446 281.51C133.119 280.423 138.447 273.481 138.447 265.978L126.446 267.713V253.928C119.651 254.795 114.066 261.774 114.066 269.509C114.066 277.245 119.664 282.61 126.446 281.51Z" fill="#0D70BA"/>
<path d="M129.719 253.506V263.527L138.444 262.305C138.444 256.83 134.57 252.895 129.719 253.506Z" fill="#0D70BA"/>
<path d="M116.695 329.671C116.781 329.671 116.866 329.659 116.964 329.646L138.351 324.954C139.011 324.807 139.426 324.159 139.28 323.499C139.133 322.839 138.473 322.424 137.825 322.57L116.439 327.263C115.779 327.41 115.363 328.058 115.51 328.718C115.632 329.292 116.133 329.671 116.695 329.671Z" fill="#0D70BA"/>
<path d="M115.514 336.869C115.649 337.431 116.15 337.822 116.7 337.822C116.785 337.822 116.883 337.81 116.981 337.785L132.196 334.29C132.856 334.143 133.259 333.484 133.112 332.824C132.966 332.164 132.318 331.76 131.646 331.907L116.431 335.402C115.771 335.549 115.355 336.209 115.514 336.869Z" fill="#0D70BA"/>
<path d="M137.779 338.404L116.392 343.549C115.732 343.708 115.329 344.368 115.488 345.027C115.622 345.59 116.123 345.968 116.673 345.968C116.771 345.968 116.869 345.956 116.954 345.932L138.341 340.787C139.001 340.628 139.404 339.968 139.245 339.308C139.098 338.648 138.439 338.245 137.779 338.404Z" fill="#0D70BA"/>
<path d="M171.057 139.891C170.8 139.988 170.543 140.098 170.299 140.208C170.042 140.318 169.798 140.416 169.541 140.538C169.297 140.661 169.065 140.807 168.82 140.942C168.576 141.076 168.331 141.21 168.099 141.357C167.867 141.504 167.647 141.675 167.427 141.834C167.195 142.005 166.963 142.151 166.743 142.335C166.523 142.506 166.327 142.701 166.107 142.885C165.887 143.08 165.667 143.264 165.472 143.459C165.276 143.655 165.081 143.875 164.885 144.082C164.69 144.302 164.482 144.51 164.286 144.73C164.103 144.95 163.932 145.194 163.749 145.427C163.565 145.659 163.382 145.891 163.211 146.135C163.04 146.38 162.893 146.649 162.734 146.893C162.575 147.15 162.404 147.394 162.258 147.651C162.111 147.92 161.977 148.201 161.83 148.482C161.695 148.751 161.549 149.007 161.427 149.276C161.292 149.57 161.182 149.887 161.06 150.193C160.95 150.462 160.828 150.731 160.73 151.012C160.62 151.342 160.522 151.684 160.424 152.014C160.339 152.295 160.241 152.551 160.168 152.833C160.07 153.199 160.009 153.578 159.923 153.945C159.875 154.213 159.801 154.47 159.752 154.739C159.679 155.179 159.63 155.643 159.581 156.095C159.557 156.303 159.52 156.511 159.496 156.719C159.435 157.391 159.41 158.075 159.41 158.76C159.41 159.444 159.435 160.128 159.496 160.801C159.508 161.008 159.545 161.216 159.569 161.424C159.618 161.876 159.667 162.34 159.74 162.78C159.777 163.025 159.85 163.269 159.899 163.514C159.985 163.905 160.058 164.296 160.156 164.675C160.217 164.931 160.302 165.176 160.388 165.42C160.498 165.774 160.596 166.141 160.718 166.495C160.803 166.74 160.913 166.984 161.011 167.229C161.146 167.559 161.268 167.901 161.414 168.219C161.524 168.463 161.647 168.695 161.769 168.927C161.928 169.233 162.074 169.551 162.245 169.844C162.38 170.076 162.526 170.296 162.661 170.516C162.832 170.797 163.003 171.091 163.199 171.359C163.345 171.579 163.516 171.775 163.675 171.983C163.871 172.239 164.066 172.508 164.262 172.753C164.433 172.948 164.616 173.131 164.787 173.327C164.995 173.559 165.203 173.791 165.435 174.011C165.618 174.195 165.814 174.353 166.009 174.525C166.242 174.732 166.462 174.94 166.694 175.123C166.889 175.282 167.109 175.429 167.317 175.576C167.561 175.747 167.806 175.93 168.05 176.089C168.27 176.223 168.49 176.345 168.71 176.468C168.967 176.614 169.211 176.761 169.48 176.895C169.712 177.005 169.957 177.103 170.189 177.201C170.458 177.311 170.714 177.433 170.983 177.531C171.228 177.616 171.472 177.69 171.729 177.763C171.998 177.849 172.279 177.934 172.56 177.995C172.816 178.056 173.073 178.093 173.33 178.142C173.611 178.191 173.892 178.24 174.185 178.276C174.454 178.301 174.711 178.313 174.98 178.325C175.346 178.337 175.701 178.374 176.067 178.362C176.617 178.35 177.167 178.289 177.705 178.215C179.318 177.971 180.87 177.433 182.3 176.651C183.253 176.138 184.157 175.514 185.001 174.793C185.844 174.072 186.638 173.266 187.347 172.374C188.203 171.31 188.936 170.125 189.583 168.854C189.987 168.06 190.341 167.241 190.647 166.385C191.502 163.99 191.979 161.363 191.979 158.613C191.979 153.297 190.219 148.457 187.347 144.913C186.626 144.034 185.844 143.227 185.001 142.518C184.157 141.809 183.253 141.198 182.3 140.685C180.393 139.671 178.291 139.084 176.067 139.047C175.725 139.035 175.395 139.072 175.065 139.084C174.796 139.096 174.515 139.108 174.259 139.133C174.026 139.157 173.806 139.206 173.574 139.243C173.525 139.255 173.476 139.267 173.428 139.267C173.159 139.316 172.89 139.353 172.633 139.414C172.364 139.475 172.095 139.561 171.839 139.646C171.607 139.72 171.362 139.781 171.13 139.866C171.106 139.878 171.081 139.891 171.057 139.891ZM173.366 159.297C173.342 159.114 173.318 158.919 173.318 158.723C173.318 158.222 173.415 157.758 173.574 157.33C174.014 156.181 174.967 155.374 176.079 155.374C176.128 155.374 176.165 155.387 176.214 155.387L179.905 147.076C180.173 146.465 180.894 146.184 181.518 146.453C182.129 146.722 182.41 147.443 182.141 148.066L178.291 156.731C178.621 157.281 178.829 157.953 178.829 158.686C178.829 160.519 177.607 162.01 176.079 162.035C175.505 162.035 174.98 161.839 174.54 161.485L173.721 162.133L171.643 163.782L169.285 165.652C169.065 165.836 168.796 165.921 168.527 165.921C168.173 165.921 167.806 165.762 167.561 165.457C167.146 164.931 167.232 164.161 167.757 163.746L171.13 161.069L173.366 159.297Z" fill="#0D70BA"/>
<path d="M205.212 125.643L195.668 125.252V137.253L205.212 137.473V125.643Z" fill="#0D70BA"/>
<path d="M219.037 148.45L209.871 148.377V160.121L219.037 160.048V148.45Z" fill="#0D70BA"/>
<path d="M293.459 119.703C291.955 118.909 290.403 118.469 288.827 118.371C285.613 118.188 282.533 119.446 279.93 122.025C276.178 125.728 273.93 131.79 273.93 138.254C273.93 144.89 276.239 151.147 280.126 155.009C282.643 157.514 285.613 158.834 288.717 158.834C288.729 158.834 288.754 158.834 288.766 158.834C296.758 158.798 303.015 150.06 303.015 138.939C303.015 130.457 299.178 122.722 293.459 119.703ZM288.692 120.815C289.633 120.864 290.562 121.084 291.479 121.463L288.326 135.053L282.289 123.174C284.244 121.5 286.444 120.693 288.692 120.815ZM280.504 125.044L286.737 137.326L276.398 137.057C276.618 132.401 278.097 128.087 280.504 125.044ZM288.754 156.39C286.273 156.415 283.914 155.327 281.849 153.274C278.659 150.096 276.667 145.025 276.398 139.513L288.411 139.819L299.52 146.088C297.675 152.137 293.544 156.366 288.754 156.39ZM300.131 143.632L290.147 137.998L293.691 122.734C297.858 125.801 300.571 132.071 300.571 138.939C300.571 140.564 300.412 142.141 300.131 143.632Z" fill="#0D70BA"/>
<path d="M197.178 227.32C192.167 227.773 187.364 230.877 184.004 235.838C177.502 245.432 178.138 258.85 185.434 265.755C188.22 268.395 191.581 269.702 195.051 269.702C198.705 269.702 202.469 268.248 205.781 265.34C207.309 263.995 208.678 262.394 209.826 260.598C212.124 257.005 213.517 252.777 213.859 248.377C214.36 241.729 212.405 235.631 208.494 231.622C205.402 228.469 201.394 226.942 197.178 227.32ZM186.02 237.207C188.965 232.856 193.108 230.143 197.386 229.752C197.728 229.728 198.07 229.703 198.412 229.703C201.198 229.703 203.838 230.73 206.026 232.649L200.759 240.641L196.188 247.57L183.16 257.689C180.973 251.408 181.877 243.33 186.02 237.207ZM187.108 263.971C185.922 262.846 184.945 261.502 184.163 260.011L196.665 250.308L203.447 264.093C198.119 268.285 191.654 268.273 187.108 263.971ZM207.761 259.266C207.04 260.402 206.221 261.441 205.329 262.37L199.06 249.624L205.024 249.562L211.293 249.501C210.816 253.033 209.606 256.382 207.761 259.266ZM206.954 247.106L199.39 247.179L207.761 234.482C210.303 237.72 211.635 242.181 211.476 247.069L206.954 247.106Z" fill="#0D70BA"/>
<path d="M244.742 251.528C245.194 251.467 245.573 251.149 245.72 250.709L249.52 239.442L257.268 236.289C257.574 236.167 257.818 235.922 257.941 235.617L262.67 224.031C262.927 223.408 262.621 222.687 261.998 222.443C261.375 222.186 260.666 222.491 260.409 223.115L255.875 234.224L248.078 237.401C247.748 237.535 247.492 237.804 247.382 238.146L243.642 249.231L235.198 250.453C234.88 250.502 234.599 250.661 234.403 250.917L227.889 259.447V224.557C227.889 223.885 227.34 223.335 226.667 223.335C225.995 223.335 225.445 223.885 225.445 224.557V263.065C225.445 263.089 225.458 263.114 225.458 263.138C225.47 263.236 225.494 263.334 225.519 263.431C225.543 263.492 225.555 263.554 225.58 263.615C225.629 263.7 225.702 263.786 225.763 263.859C225.8 263.896 225.824 263.957 225.861 263.994C225.873 264.006 225.885 264.006 225.897 264.018C225.91 264.03 225.91 264.03 225.922 264.042C225.983 264.091 226.056 264.116 226.13 264.152C226.179 264.177 226.215 264.201 226.264 264.226C226.399 264.275 226.533 264.299 226.667 264.299C226.729 264.299 226.79 264.299 226.863 264.287L261.729 258.739C262.401 258.629 262.853 258.005 262.743 257.333C262.633 256.673 262.01 256.209 261.35 256.319L229.503 261.391L236.053 252.811L244.742 251.528Z" fill="#0D70BA"/>
<path d="M256.557 68.3471C257.253 68.6159 257.95 68.7992 258.646 69.0192C259.037 69.0681 259.428 69.117 259.807 69.1781C260.321 69.1659 260.834 69.1536 261.347 69.1292C266.565 68.897 270.256 65.6951 272.468 59.5847C272.59 59.2547 272.737 59.2058 272.981 59.1814C273.592 59.1325 274.228 59.1081 274.815 58.9248C275.144 58.827 275.426 58.6315 275.682 58.3626C275.951 58.0815 276.171 57.7149 276.342 57.2627C276.489 56.8961 276.452 56.6272 276.159 56.3584C275.927 56.1384 275.682 55.9795 275.426 55.8451C275.035 55.6374 274.643 55.5274 274.228 55.5151C273.947 55.5029 273.666 55.5274 273.372 55.5274C273.287 55.5274 273.214 55.5274 273.128 55.5274C273.128 55.5151 273.128 55.5029 273.116 55.4785C272.969 53.6331 272.273 52.2888 271.173 51.2012C270.501 52.411 270.232 53.682 270.366 55.063C270.439 55.8084 270.623 56.5784 270.941 57.3849C270.831 57.446 270.733 57.5071 270.623 57.5682C270.464 57.666 270.305 57.7516 270.146 57.8127C269.156 58.2282 268.093 58.1793 267.03 58.0204C261.653 57.2138 256.178 56.3951 250.605 55.5518C250.299 55.5029 250.043 55.4296 250.031 56.0406C249.945 60.9901 251.534 66.4162 256.557 68.3471Z" fill="#0D70BA"/>
<path d="M254.426 52.6351V51.022L251.664 50.582V52.2074V54.3216L254.426 54.7493V52.6351Z" fill="#0D70BA"/>
<path d="M257.784 53.1459V51.5571L255.047 51.1172V52.7303V54.8323L257.784 55.2601V53.1459Z" fill="#0D70BA"/>
<path d="M261.103 53.6571V52.0806L258.402 51.6406V53.2416V55.3435L261.103 55.7591V53.6571Z" fill="#0D70BA"/>
<path d="M264.387 54.1639V52.5996L261.711 52.1719V53.7606V55.8626L264.387 56.2659V54.1639Z" fill="#0D70BA"/>
<path d="M257.784 46.8116L255.047 46.3594V50.0745L257.784 50.5145V46.8116Z" fill="#0D70BA"/>
<path d="M261.103 47.3721L258.402 46.9199V50.6228L261.103 51.0506V47.3721Z" fill="#0D70BA"/>
<path d="M264.387 47.9151L261.711 47.4629V51.1414L264.387 51.5691V47.9151Z" fill="#0D70BA"/>
<path d="M264.387 43.2242L261.711 42.7598V46.4382L264.387 46.8904V43.2242Z" fill="#0D70BA"/>
<path d="M267.64 54.6629V53.1108L264.988 52.6953V54.2596V56.3616L267.64 56.7649V54.6629Z" fill="#0D70BA"/>
<path d="M38.1756 143.373C45.0315 149.08 53.2073 151.976 61.322 151.976C67.909 151.976 74.435 150.07 80.1421 146.196L96.4081 148.432C96.8114 148.481 97.2147 148.347 97.4835 148.041C97.7524 147.748 97.8624 147.332 97.7646 146.941L93.4384 128.793C98.449 114.556 94.3305 97.9723 83.124 87.4135C75.7548 80.4598 65.9292 76.7813 56.2503 77.3313C46.9747 77.8567 38.5423 82.0729 32.4929 89.2344C26.1992 96.6769 23.2173 106.307 24.085 116.365C24.9893 126.826 30.1221 136.664 38.1756 143.373ZM56.3847 79.7876C56.9713 79.751 57.5579 79.7388 58.1445 79.7388C66.6014 79.7388 74.9971 83.1362 81.4375 89.1977C92.033 99.1822 95.8826 114.91 91.0065 128.317C90.9209 128.537 90.9087 128.781 90.9698 129.013L94.966 145.768L79.9955 143.703C79.6899 143.666 79.3844 143.739 79.1278 143.911C67.2491 152.196 51.4108 151.219 39.7277 141.479C32.1752 135.185 27.3479 125.946 26.4925 116.145C25.6737 106.747 28.46 97.7401 34.3261 90.8109C39.9599 84.1872 47.7935 80.2643 56.3847 79.7876Z" fill="#0D70BA"/>
<path d="M52.497 138.513C55.3445 139.613 58.2897 140.163 61.2105 140.163C64.4612 140.163 67.6753 139.478 70.6817 138.122C82.6459 132.732 87.8887 118.41 82.6337 105.516C77.3543 92.5624 63.0436 85.902 50.7616 90.6681C44.8101 92.9779 40.1417 97.5729 37.6242 103.598C34.9234 110.063 35.0211 117.603 37.9053 124.276C40.7894 130.924 45.9711 135.983 52.497 138.513ZM39.8851 104.551C42.1459 99.1372 46.3255 95.0188 51.6538 92.9534C54.0613 92.0124 56.5665 91.5725 59.0474 91.5725C67.9442 91.5725 76.6454 97.2674 80.385 106.445C85.1389 118.116 80.4461 131.046 69.6918 135.898C64.5712 138.207 58.7907 138.317 53.3891 136.228C47.4742 133.942 42.7814 129.347 40.1661 123.31C37.5386 117.249 37.4409 110.405 39.8851 104.551Z" fill="#0D70BA"/>
<path d="M54.1761 128.05C55.7282 129.382 57.4757 130.213 59.4433 130.543V133.842L62.1686 133.904V130.653C64.3683 130.531 66.2015 129.883 67.6313 128.649C69.2811 127.206 70.0999 125.239 70.0999 122.721C70.0999 120.363 69.4033 118.42 68.0101 116.868C66.6658 115.377 64.7105 114.13 62.1808 113.104V102.215C63.0973 102.508 63.8917 103.046 64.5272 103.865C65.4437 105.038 65.9081 106.541 65.9081 108.35L69.8433 108.57L69.8799 108.447C69.9288 105.808 69.1467 103.571 67.5091 101.714C66.1281 100.149 64.3439 99.184 62.1808 98.8052V95.5666L59.4555 95.3711V98.6707C57.5002 98.7929 55.8259 99.4284 54.4694 100.626C52.7829 102.129 51.9275 104.121 51.9275 106.602C51.9275 109.022 52.6974 111.002 54.225 112.529C55.496 113.812 57.268 114.9 59.4433 115.841V127.145C58.5634 126.877 57.7568 126.424 57.0725 125.74C55.9848 124.652 55.4471 123.051 55.4471 120.925L51.3531 120.766L51.3164 120.9C51.2431 123.956 52.1963 126.351 54.1761 128.05ZM62.1563 117.051C63.3662 117.686 64.2583 118.359 64.8327 119.055C65.6026 120.008 65.9937 121.182 65.9937 122.599C65.9937 124.115 65.566 125.312 64.6983 126.18C64.0506 126.84 63.1951 127.231 62.1686 127.365V117.051H62.1563ZM57.4757 110.232C56.6081 109.303 56.1681 108.142 56.1681 106.785C56.1681 105.319 56.5836 104.121 57.4024 103.205C57.9401 102.606 58.6245 102.239 59.4433 102.068V111.747C58.6123 111.246 57.9524 110.745 57.4757 110.232Z" fill="#0D70BA"/>
<path d="M142.326 37.8442C143.365 39.8973 145.186 41.4494 147.251 41.7549L148.437 41.926V38.7852V38.0397C148.437 37.4287 148.547 36.8665 148.706 36.3532C149.317 34.3735 150.991 33.1392 152.983 33.4569L160.12 34.6057C162.124 34.9234 163.749 33.2614 163.749 30.9027V24.6212C163.749 21.0527 161.305 17.7164 158.274 17.1542L154.229 16.4088C151.541 15.9199 149.341 18.083 149.341 21.2482V23.1914L156.612 24.4501V26.2466L147.263 24.6457C144.049 24.0957 141.422 26.6865 141.422 30.4383V34.0802C141.422 34.4712 141.471 34.8501 141.52 35.2289C141.642 36.1577 141.923 37.0376 142.326 37.8442ZM152.567 22.0304C151.81 21.896 151.199 21.0649 151.199 20.185C151.199 19.2929 151.81 18.6941 152.567 18.8285C153.325 18.9629 153.936 19.794 153.936 20.6739C153.936 21.5538 153.325 22.1648 152.567 22.0304Z" fill="#0D70BA"/>
<path d="M161.242 36.8722L154.13 35.7479C153.042 35.5768 152.064 35.9801 151.38 36.7622C150.867 37.3488 150.525 38.1554 150.439 39.0964C150.427 39.243 150.402 39.3897 150.402 39.5363V45.9279C150.402 49.5575 152.92 52.8449 156 53.2604L160.02 53.7981C162.648 54.1525 164.774 51.9283 164.774 48.8242V46.5389L157.662 45.5001V43.6914L166.766 45.0357C168.844 45.3413 170.64 44.2292 171.569 42.3471C171.911 41.6505 172.131 40.844 172.204 39.9763C172.217 39.7685 172.229 39.5486 172.229 39.3286V36.2123C172.229 32.6071 169.797 29.283 166.766 28.7697L165.642 28.5742V32.3749C165.63 35.2468 163.674 37.2633 161.242 36.8722ZM161.646 48.1521C162.379 48.262 162.978 49.0442 162.978 49.9241C162.978 50.7918 162.379 51.4273 161.646 51.3173C160.9 51.2195 160.301 50.4251 160.301 49.5452C160.313 48.6776 160.912 48.0543 161.646 48.1521Z" fill="#0D70BA"/>
<path d="M80.229 290.867C82.3799 290.757 84.1152 288.936 84.1152 286.822C84.1152 285.832 83.7241 284.916 83.0276 284.231C82.3432 283.571 81.4389 283.217 80.4612 283.217C80.4123 283.217 80.3634 283.217 80.3268 283.217C78.1392 283.29 76.3672 285.111 76.3672 287.262C76.3672 288.264 76.7583 289.193 77.4671 289.877C78.2126 290.574 79.2024 290.928 80.229 290.867Z" fill="#0D70BA"/>
<path d="M80.7891 293.301C80.6424 293.301 80.4958 293.301 80.3614 293.313C75.8274 293.557 72.1367 297.395 72.1367 301.868V302.699L88.1461 301.538V300.597C88.1461 298.544 87.3517 296.662 85.9096 295.293C84.5409 294.01 82.7444 293.301 80.7891 293.301Z" fill="#0D70BA"/>
<path d="M95.3529 272.68L67.2816 273.193C65.2407 273.23 63.5664 274.868 63.5664 276.86V305.603C63.5664 307.583 65.2407 309.062 67.2816 308.89L95.3529 306.617C97.186 306.471 98.6648 304.833 98.6648 302.976V275.992C98.677 274.134 97.1983 272.656 95.3529 272.68ZM90.5868 303.807L69.6891 305.322V301.863C69.6891 297.549 72.341 293.7 76.1172 291.903C76.0073 291.818 75.8973 291.745 75.7873 291.647C74.5774 290.51 73.9175 288.946 73.9175 287.259C73.9175 283.801 76.7527 280.892 80.2357 280.77C81.9344 280.721 83.5231 281.32 84.7208 282.469C85.9062 283.605 86.5539 285.158 86.5539 286.82C86.5539 288.653 85.7229 290.327 84.4397 291.525C85.6006 291.977 86.6639 292.637 87.5804 293.517C89.5113 295.35 90.5745 297.855 90.5745 300.592V303.807H90.5868ZM90.5379 281.247V283.715H88.7048V281.296L86.2972 281.369L86.2361 279.536L88.7048 279.45V276.982H90.5379V279.401L92.9209 279.328L92.9821 281.161L90.5379 281.247Z" fill="#0D70BA"/>
<path d="M73.8081 167.082C72.1461 167.107 70.7773 168.585 70.7773 170.382V196.315C70.7773 198.099 72.1339 199.443 73.8081 199.309L96.7956 197.451C98.311 197.329 99.5208 195.862 99.5208 194.164V169.673C99.5208 167.987 98.2987 166.63 96.7956 166.667L73.8081 167.082ZM94.0581 190.632C94.0581 192.685 92.4694 194.396 90.4163 194.543L80.9695 195.239C78.6965 195.41 76.7534 193.602 76.7534 191.328V183.165C76.7534 181.454 77.8532 180.012 79.3808 179.474V176.468C79.3808 173.132 81.9961 170.443 85.3324 170.345C87.0067 170.309 88.5709 170.92 89.7686 172.081C90.9662 173.242 91.6262 174.806 91.6262 176.468V179.144C93.0438 179.731 94.0581 181.124 94.0581 182.762V190.632Z" fill="#0D70BA"/>
<path d="M85.4161 172.793C83.4119 172.854 81.8477 174.467 81.8477 176.471V179.184L89.2046 178.867V176.459C89.2046 175.457 88.8136 174.528 88.0925 173.82C87.3715 173.135 86.4305 172.793 85.4161 172.793Z" fill="#0D70BA"/>
</svg>
