<svg width="233" height="60" viewBox="0 0 233 60" fill="none" xmlns="http://www.w3.org/2000/svg">
<path fill-rule="evenodd" clip-rule="evenodd" d="M39.0802 37.9757C41.1092 35.4109 42.0724 32.3495 42.0453 29.3182L45.8202 24.1044C48.1411 30.4289 47.22 37.777 42.7347 43.4484C35.8743 52.1239 23.2793 53.593 14.6038 46.7326C14.5932 46.725 14.5834 46.7168 14.5737 46.7085C14.5639 46.7002 14.5541 46.6919 14.5435 46.6844C13.0474 45.4923 11.7681 44.1287 10.7085 42.6416C5.66929 35.5735 5.66327 25.757 11.3196 18.6046C18.1107 10.0163 30.519 8.49013 39.1826 15.1127L36.6961 18.5444C30.7388 13.9417 22.1716 14.9773 17.4906 20.8985C14.1492 25.1249 13.6856 30.7029 15.8229 35.2725L22.8338 25.173L29.7364 32.7438L38.6708 20.4078L41.2145 16.8948L45.4801 11.0037H52.22L44.6342 21.4794L41.5426 25.748L30.224 41.3773L23.4148 33.9118L19.2907 39.8511L19.2909 39.8513C19.4414 39.9807 19.5918 40.11 19.7483 40.2334C25.7086 44.9475 34.3662 43.936 39.0802 37.9757ZM68.637 28.0144L68.64 28.0174H68.637V28.0144ZM68.637 28.0144C67.7409 27.1191 66.8444 26.5815 65.5575 26.5815C63.1944 26.5815 61.8488 28.7941 61.8488 30.9494C61.8488 33.2523 63.3148 35.1668 65.708 35.1668C66.8459 35.1668 67.8904 34.5979 68.64 33.761V37.8008C67.5021 38.4299 66.307 38.6978 65.0186 38.6978C60.6809 38.6978 57.5983 35.1367 57.5983 30.9193C57.5983 26.5514 60.7983 23.0505 65.2264 23.0505C66.3943 23.0505 67.6195 23.3485 68.637 23.9776V28.0144ZM74.9226 12.852V24.7576H74.9828C75.8498 23.5626 77.3158 23.0538 78.8119 23.0538C82.7614 23.0538 83.8962 25.8353 83.8962 29.2459V38.2195H79.7089V30.441L79.7092 30.2529C79.7123 28.5196 79.716 26.4012 77.4362 26.4012C74.9527 26.4012 74.9226 29.1827 74.9226 30.9498V38.2195H70.7353V12.852H74.9226ZM92.6628 35.4978C90.4785 35.4978 89.7617 33.4049 89.7609 31.5513H99.4238V31.0426C99.4238 26.6175 97.2685 23.0564 92.452 23.0564C87.6958 23.0564 85.3328 26.5543 85.3328 31.0125C85.3328 35.4707 88.1143 38.7007 92.6628 38.7007C95.7423 38.7007 98.316 37.0541 99.3335 34.1221L95.4743 33.4929C94.9054 34.6609 94.0385 35.4978 92.6628 35.4978ZM92.6929 25.9823C94.3064 25.9823 95.2636 27.4483 95.4743 28.9444H89.8813C90.089 27.4182 91.0162 25.9823 92.6929 25.9823ZM105.046 25.0553H105.107C105.943 23.7699 107.202 23.0505 108.755 23.0505C109.354 23.0505 109.953 23.201 110.489 23.4087L109.98 27.298C109.472 26.9397 108.872 26.7591 108.246 26.7591C105.344 26.7591 105.046 29.3329 105.046 31.6057V38.2162H100.859V23.5261H105.046V25.0553ZM115.577 25.0553H115.517V23.5261H111.329V38.2162H115.517V31.6057C115.517 29.3329 115.815 26.7591 118.716 26.7591C119.343 26.7591 119.942 26.9397 120.45 27.298L120.959 23.4087C120.423 23.201 119.824 23.0505 119.225 23.0505C117.672 23.0505 116.414 23.7699 115.577 25.0553ZM121.557 23.5291H126.313L129.814 31.8765L133.583 23.5291H138.249L127.569 46.0549H122.963L127.809 35.9735L121.557 23.5291ZM162.572 37.2928L164.129 39.1773L168.56 38.7288L165.477 35.0803C167.211 32.8376 168.138 29.9658 168.138 26.9134C168.138 20.6009 163.56 15.065 156.979 15.065C150.399 15.065 145.82 20.6009 145.82 26.9134C145.82 33.3735 150.399 38.819 156.979 38.819C159.041 38.819 161.046 38.3103 162.572 37.2928ZM163.59 26.793C163.59 28.3463 163.171 30.2338 162.184 31.459L160.182 29.1862L155.634 29.5444L159.342 33.822C158.743 34.2133 157.786 34.5716 156.979 34.5716C152.672 34.5716 150.369 30.9201 150.369 27.1814C150.369 23.2951 152.702 19.2553 156.979 19.2553C160.926 19.2553 163.59 23.1446 163.59 26.793ZM173.76 23.5291V31.4882C173.76 33.1649 174.028 35.1667 176.154 35.1667C178.279 35.1667 178.547 33.1619 178.547 31.4882V23.5291H182.734V32.1745C182.734 36.4521 180.522 38.6978 176.154 38.6978C171.786 38.6978 169.573 36.4551 169.573 32.1745V23.5291H173.76ZM194.913 38.2192H199.04V23.5291H194.913V24.9048C193.895 23.7097 192.339 23.0505 190.813 23.0505C186.595 23.0505 184.112 26.9096 184.112 30.7989C184.112 34.7785 186.565 38.6978 190.873 38.6978C192.399 38.6978 193.955 38.0416 194.852 36.8736H194.913V38.2192ZM191.83 26.7591C193.986 26.7591 195.331 28.8844 195.331 30.8591C195.331 32.8338 193.986 34.9862 191.83 34.9862C189.675 34.9862 188.359 32.8338 188.359 30.8591C188.359 28.8844 189.675 26.7591 191.83 26.7591ZM205.74 24.8782H205.8C206.667 23.5627 208.133 23.054 209.629 23.054C213.579 23.054 214.713 25.8355 214.713 29.2461V38.2197H210.526V30.4412L210.526 30.2531C210.529 28.5197 210.533 26.4014 208.253 26.4014C205.77 26.4014 205.74 29.1829 205.74 30.9499V38.2197H201.553V23.5296H205.74V24.8782ZM217.706 38.2192H221.893V27.0601H224.467V23.5291H221.893V18.5621H217.706V23.5291H216.27V27.0601H217.706V38.2192Z" fill="#EA1E26"/>
</svg>
