<svg width="469" height="247" viewBox="0 0 469 247" fill="none" xmlns="http://www.w3.org/2000/svg">
<path d="M278.452 234.027H161.544V244.991H278.452V234.027Z" fill="#0D70BA"/>
<path d="M161.231 232.214L161.369 232.694H278.614L300.524 157.131H139.459L161.231 232.214Z" fill="#FFC700"/>
<path d="M256.017 108.514L256.023 108.508L256.017 108.514Z" fill="#F9F9F9"/>
<path d="M260.865 98.7402C260.882 98.7458 260.899 98.7513 260.915 98.7568C260.904 98.7513 260.893 98.7458 260.882 98.7402C260.877 98.7458 260.871 98.7458 260.865 98.7402Z" fill="#F9F9F9"/>
<path d="M166.172 104.996C166.674 106.053 167.165 106.987 167.608 107.788C167.165 106.987 166.674 106.053 166.172 104.996Z" fill="#F9F9F9"/>
<path d="M162.141 89.0684C162.151 89.3886 162.167 89.7035 162.183 90.0238C162.167 89.7089 162.151 89.3886 162.146 89.0684C162.146 89.0684 162.146 89.0684 162.141 89.0684Z" fill="#F9F9F9"/>
<path d="M163.67 98.4219C164.097 99.8844 164.582 101.261 165.089 102.516C164.582 101.256 164.097 99.8844 163.67 98.4219Z" fill="#F9F9F9"/>
<path d="M162.631 93.9384C162.695 94.328 162.77 94.7123 162.85 95.0966C162.77 94.7177 162.7 94.328 162.631 93.9384C162.631 93.9064 162.62 93.8797 162.615 93.8477C162.62 93.8797 162.626 93.9117 162.631 93.9384Z" fill="#F9F9F9"/>
<path d="M315.76 105.694V100.725H313.614V104.765C312.968 104.424 312.445 104.071 312.077 103.708C311.399 103.041 311.057 102.192 311.057 101.168C311.057 101.013 311.078 100.874 311.089 100.725H307.801C307.791 100.885 307.759 101.034 307.759 101.2C307.759 103.014 308.351 104.461 309.536 105.55C310.529 106.462 311.9 107.226 313.614 107.856V108.064H320.078C319.021 107.114 317.59 106.318 315.76 105.694Z" fill="white"/>
<path d="M318.724 101.942H321.878L321.91 101.845C321.921 101.456 321.878 101.088 321.835 100.725H318.601C318.67 101.109 318.724 101.504 318.724 101.942Z" fill="white"/>
<path d="M315.767 120.344H313.621V121.438H315.767V120.344Z" fill="white"/>
<path d="M313.615 97.4629V98.0553H315.761V97.4468C316.231 97.5643 316.658 97.7724 317.037 98.0553H320.954C320.687 97.6177 320.383 97.196 320.004 96.8117C318.894 95.6855 317.48 95.0396 315.761 94.8635V92.4082H313.615V94.8955C312.083 95.0823 310.776 95.6427 309.724 96.6088C309.249 97.0412 308.891 97.5322 308.593 98.0553H312.457C312.793 97.7938 313.172 97.5803 313.615 97.4629Z" fill="white"/>
<path d="M317.623 98.5938C318.125 99.1756 318.44 99.8961 318.6 100.723H321.835C321.722 99.7414 321.429 98.85 320.949 98.0547H317.031C317.244 98.2095 317.447 98.3803 317.623 98.5938Z" fill="white"/>
<path d="M312.013 98.4123C312.141 98.2682 312.301 98.1668 312.446 98.0547H308.581C308.122 98.8446 307.855 99.736 307.791 100.723H311.079C311.165 99.8214 311.463 99.0421 312.013 98.4123Z" fill="white"/>
<path d="M315.767 98.0547H313.621V100.723H315.767V98.0547Z" fill="white"/>
<path d="M318.306 110.732C318.631 111.314 318.797 111.997 318.797 112.782C318.797 113.935 318.45 114.853 317.761 115.542C317.244 116.059 316.571 116.38 315.749 116.508V110.738H313.603V116.396C312.91 116.214 312.285 115.888 311.751 115.392C310.903 114.602 310.481 113.412 310.481 111.816H309.312V117.02C309.376 117.079 309.424 117.148 309.494 117.202C310.694 118.168 312.072 118.749 313.603 118.958V120.351H315.749V118.99C317.5 118.851 318.962 118.322 320.099 117.34C321.423 116.203 322.079 114.672 322.079 112.755C322.079 112.024 321.962 111.362 321.775 110.738H318.306V110.732Z" fill="white"/>
<path d="M307.327 111.811L307.295 111.907C307.263 113.209 307.519 114.319 308 115.28V111.811H307.327Z" fill="white"/>
<path d="M315.767 108.682C316.258 108.911 316.685 109.146 317.048 109.392H321.222C320.992 109.018 320.736 108.666 320.416 108.345C320.32 108.244 320.192 108.159 320.085 108.062H313.621V109.397H315.767V108.682Z" fill="white"/>
<path d="M307.988 111.808V115.277C308.313 115.934 308.756 116.516 309.322 117.007V111.803H307.988V111.808Z" fill="white"/>
<path d="M315.767 109.398H313.621V110.733H315.767V109.398Z" fill="white"/>
<path d="M317.888 110.119C318.053 110.306 318.192 110.514 318.315 110.733H321.789C321.645 110.258 321.464 109.809 321.213 109.398H317.039C317.386 109.628 317.669 109.868 317.888 110.119Z" fill="white"/>
<path d="M391.134 34.7489L386.992 49.7314L365.978 46.0592L353.162 37.3323C352.805 37.0921 352.356 37.0334 351.956 37.1828L338.276 42.1841C338.142 42.2322 338.02 42.3015 337.908 42.3923L325.823 51.9465L315.954 48.5678C315.559 48.429 315.122 48.4878 314.775 48.7226L305.14 55.2344L296.392 50.8576C296.003 50.6655 295.538 50.6708 295.154 50.879L281.394 58.4209L274.834 54.2576C274.236 53.8787 273.441 54.0335 273.03 54.6153L258.821 74.7645C259.179 75.7893 259.521 76.8514 259.835 77.951L274.476 57.1879L280.625 61.0897C281.036 61.3512 281.554 61.3672 281.981 61.1324L295.816 53.5477L304.639 57.9565C305.071 58.17 305.583 58.138 305.984 57.8711L315.714 51.2953L325.642 54.6953C326.069 54.8448 326.544 54.7594 326.902 54.4818L339.386 44.6127L352.223 39.921L364.713 48.4237C364.868 48.5305 365.049 48.5998 365.236 48.6372L387.723 52.5656C388.395 52.6884 389.057 52.2721 389.239 51.6049L393.589 35.8858L404.371 27.5433V24.1699L391.603 34.0497C391.374 34.2258 391.208 34.4714 391.134 34.7489Z" fill="#F9F9F9"/>
<path d="M162.143 88.8514C162.137 88.6593 162.137 88.4618 162.137 88.2643C162.137 87.88 162.143 87.4957 162.153 87.106C162.159 86.8979 162.169 86.6897 162.18 86.4762C162.202 86.0972 162.228 85.7183 162.26 85.334C162.282 85.1098 162.298 84.8909 162.324 84.6668C162.367 84.2878 162.415 83.9088 162.474 83.5299C162.506 83.3004 162.543 83.0655 162.58 82.8307C162.645 82.457 162.719 82.0834 162.799 81.7044C162.847 81.4642 162.901 81.2241 162.954 80.9785C163.04 80.6049 163.141 80.2313 163.248 79.8577C163.317 79.6121 163.381 79.3613 163.456 79.1157C163.568 78.7474 163.696 78.3738 163.824 78.0002C163.915 77.744 163.995 77.4931 164.091 77.2369C164.23 76.8633 164.39 76.495 164.545 76.1214C164.651 75.8652 164.753 75.609 164.87 75.3581C165.041 74.9845 165.233 74.6055 165.42 74.2319C165.548 73.981 165.666 73.7248 165.804 73.474C166.013 73.0843 166.247 72.7 166.477 72.3157C166.53 72.225 166.578 72.1396 166.632 72.0488C165.26 72.2517 163.861 72.3157 162.463 72.3157C149.279 72.3317 136.096 72.3264 122.912 72.321C122.202 72.321 121.604 72.257 121.567 73.3138C121.284 81.9233 125.004 91.0184 136.928 93.2442C138.583 93.5538 140.259 93.7192 141.93 93.9541C142.869 93.9541 143.803 93.9541 144.742 93.9541C145.986 93.81 147.235 93.6765 148.473 93.5111C153.619 92.8439 158.172 91.3494 162.143 89.0649C162.143 89.0649 162.148 89.0649 162.148 89.0596C162.148 88.9955 162.143 88.9261 162.143 88.8514Z" fill="#F9F9F9"/>
<path d="M175.793 61.5104C174.993 60.4963 173.973 59.637 172.74 58.9004C170.974 61.393 170.322 63.8963 170.792 66.4797C172.393 64.6649 174.069 63.0156 175.793 61.5104Z" fill="#F9F9F9"/>
<path d="M131.884 63.3086H125.346V69.8471H131.884V63.3086Z" fill="#F9F9F9"/>
<path d="M139.889 63.3086H133.351V69.8471H139.889V63.3086Z" fill="#F9F9F9"/>
<path d="M147.902 63.3086H141.364V69.8471H147.902V63.3086Z" fill="#F9F9F9"/>
<path d="M155.907 63.3086H149.369V69.8471H155.907V63.3086Z" fill="#F9F9F9"/>
<path d="M139.889 54.9473H133.351V61.4858H139.889V54.9473Z" fill="#F9F9F9"/>
<path d="M147.902 54.9473H141.364V61.4858H147.902V54.9473Z" fill="#F9F9F9"/>
<path d="M155.907 54.9473H149.369V61.4858H155.907V54.9473Z" fill="#F9F9F9"/>
<path d="M155.907 46.5859H149.369V53.1244H155.907V46.5859Z" fill="#F9F9F9"/>
<path d="M163.912 63.3086H157.374V69.8471H163.912V63.3086Z" fill="#F9F9F9"/>
<path d="M403.539 176.385C403.192 176.7 403.192 177.244 403.534 177.564L406.24 180.046C406.523 180.308 406.955 180.329 407.259 180.094L412.784 176.892L408.087 172.83L403.539 176.385Z" fill="#FFC700"/>
<path d="M436.948 158.17L436.441 157.924L429.081 154.37C429.081 154.37 428.152 154.178 427.426 154.738C427.389 154.759 427.362 154.781 427.341 154.797L427.303 154.829L427.25 154.877L414.942 165.968L420.295 169.993L429.086 163.518V179.024V179.056L406.989 162.248C406.604 161.944 406.049 161.965 405.692 162.301L403.269 164.559C402.842 164.959 402.847 165.637 403.274 166.027L427.41 187.959C428.131 188.642 429.086 188.29 429.086 188.29L436.569 184.634L436.762 184.537C437.322 184.265 437.674 183.699 437.674 183.08V159.334C437.674 158.837 437.391 158.384 436.948 158.17Z" fill="#FFC700"/>
<path d="M431.925 108.063V106.616C431.925 104.139 433.932 102.133 436.409 102.133H443.561C445.6 102.133 447.249 100.483 447.249 98.4443V93.0427C447.249 89.9736 444.762 87.4863 441.693 87.4863H437.647C434.973 87.4863 432.806 89.6534 432.806 92.3275V93.9608H440.028V95.5033H430.767C427.634 95.5033 425.093 98.044 425.093 101.177V104.22C425.093 105.709 425.68 107.048 426.614 108.063H431.925ZM435.993 92.5196C435.24 92.5196 434.631 91.9112 434.631 91.1639C434.631 90.4113 435.24 89.8082 435.993 89.8082C436.745 89.8082 437.354 90.4166 437.354 91.1639C437.348 91.9112 436.74 92.5196 435.993 92.5196Z" fill="#F9F9F9"/>
<path d="M428.469 109.397H431.933V108.062H426.622C427.14 108.623 427.765 109.082 428.469 109.397Z" fill="#F9F9F9"/>
<path d="M430.768 109.895H431.926V109.398H428.462C429.167 109.713 429.946 109.895 430.768 109.895Z" fill="#F9F9F9"/>
<path d="M437.555 103.94C435.516 103.94 433.867 105.589 433.867 107.628V108.066H452.66C453.237 108.066 453.717 108.439 453.904 108.952C455.185 107.911 456.023 106.342 456.023 104.559V101.848C456.023 98.7145 453.482 96.1738 450.349 96.1738H449.191V99.4511C449.191 101.928 447.184 103.935 444.707 103.935H437.555V103.94Z" fill="#FFC700"/>
<path d="M433.859 113.028C433.859 116.097 436.346 118.584 439.415 118.584H443.461C446.135 118.584 448.302 116.417 448.302 113.743V111.779H441.08V110.732H433.859V113.028ZM445.116 113.556C445.868 113.556 446.471 114.164 446.471 114.917C446.471 115.67 445.863 116.273 445.116 116.273C444.363 116.273 443.754 115.664 443.754 114.917C443.754 114.164 444.363 113.556 445.116 113.556Z" fill="#FFC700"/>
<path d="M452.652 108.062H433.859V109.397H452.652V109.733C453.106 109.53 453.517 109.258 453.896 108.949C453.709 108.436 453.229 108.062 452.652 108.062Z" fill="#FFC700"/>
<path d="M433.859 109.398V110.733H441.08V110.236H450.341C451.163 110.236 451.942 110.05 452.652 109.735V109.398H433.859Z" fill="#FFC700"/>
<path d="M286.948 81.456C287.343 81.6161 287.791 81.5788 288.154 81.3546L313.625 65.5662L322.4 70.1458C322.811 70.3646 323.307 70.3486 323.708 70.1031L339.096 60.7784H354.137C354.286 60.7784 354.43 60.7517 354.575 60.7037L368.207 56.0013L376.042 88.8912C376.176 89.4516 376.651 89.8626 377.222 89.9107C377.787 89.9534 378.332 89.6385 378.561 89.11L389.397 63.9809L404.368 52.9909V49.6816L387.528 62.0487C387.336 62.1875 387.187 62.3796 387.091 62.5985L377.702 84.3703L370.459 53.957C370.374 53.5887 370.133 53.2791 369.803 53.0977C369.472 52.9162 369.082 52.8842 368.724 53.0069L353.913 58.1203H338.727C338.482 58.1203 338.247 58.1897 338.039 58.3124L322.971 67.445L314.191 62.86C313.774 62.6412 313.273 62.6625 312.872 62.9081L287.327 78.7339L279.619 75.6061C279.102 75.3926 278.515 75.526 278.136 75.937L262.427 93.0064C262.513 94.17 262.566 95.387 262.609 96.6093C262.635 96.6253 262.662 96.636 262.694 96.652L279.475 78.419L286.948 81.456Z" fill="#F9F9F9"/>
<path d="M342.974 110.732C342.606 113.439 341.853 116.07 340.743 118.557V120.351H412.677V110.738H342.974V110.732Z" fill="#F9F9F9"/>
<path d="M314.637 135.521C314.023 135.521 313.42 135.467 312.812 135.425V138.75H334.584V130.52H330.762C329.385 131.459 327.922 132.308 326.348 133.012C322.563 134.704 318.576 135.521 314.637 135.521Z" fill="#F9F9F9"/>
<path d="M441.683 138.754V130.523H423.643L415.412 138.754H441.683Z" fill="#FFC700"/>
<path d="M412.672 130.523H350.367V138.754H412.779C412.72 138.604 412.677 138.444 412.677 138.274V130.523H412.672Z" fill="#FFC700"/>
<path d="M397.812 146.93H350.367V155.16H397.812V146.93Z" fill="#FFC700"/>
<path d="M387.949 163.346H350.367V171.576H387.949V163.346Z" fill="#FFC700"/>
<path d="M393.318 179.76H350.367V187.99H393.318V179.76Z" fill="#FFC700"/>
<path d="M404.297 206.354H350.367V214.584H404.297V206.354Z" fill="#F9F9F9"/>
<path d="M443.576 206.354H414.635V214.584H443.576V206.354Z" fill="#FFC700"/>
<path d="M322.553 145.49H312.812V153.721H322.553V145.49Z" fill="#F9F9F9"/>
<path d="M329.134 160.459H312.812V168.689H329.134V160.459Z" fill="#F9F9F9"/>
<path d="M334.584 175.426H312.812V183.656H334.584V175.426Z" fill="#F9F9F9"/>
<path d="M70.0364 103.409C80.0389 107.615 87.789 116.134 90.9649 126.628C87.5969 122.657 82.4088 119.326 76.0465 117.042C74.2957 112.174 71.9365 107.984 69.145 104.776L67.6825 107.028C69.6948 109.468 71.4455 112.515 72.8653 116.011C69.8015 115.131 66.5189 114.485 63.0816 114.101L61.4536 116.604C65.9532 116.999 70.1858 117.864 73.9915 119.096C75.6141 124.082 76.5855 129.793 76.7083 135.883H79.3771C79.265 130.289 78.459 124.989 77.0873 120.217C85.8302 123.761 91.7388 129.425 92.4594 135.883H92.5074H95.1442H95.1762C94.6531 120.319 85.0509 107.018 71.5042 101.125C71.4402 101.226 71.3868 101.333 71.3227 101.435L70.0364 103.409Z" fill="#F9F9F9"/>
<path d="M19.2301 135.892H19.2782C19.9987 129.433 25.9074 123.77 34.6503 120.226C33.2785 124.998 32.4726 130.298 32.3605 135.892H35.0292C35.152 129.802 36.1288 124.091 37.746 119.105C41.557 117.867 45.7844 117.002 50.2839 116.613L48.656 114.109C45.2186 114.494 41.936 115.14 38.8723 116.02C40.2867 112.524 42.0428 109.476 44.055 107.037L42.5925 104.785C39.801 107.993 37.4365 112.177 35.6911 117.05C29.3341 119.335 24.1407 122.66 20.7727 126.637C23.9485 116.148 31.6986 107.624 41.7012 103.418L40.4255 101.454C40.3614 101.353 40.3081 101.246 40.244 101.145C26.6973 107.037 17.0951 120.333 16.572 135.903H16.604H19.2301V135.892Z" fill="#F9F9F9"/>
<path d="M56.837 123.651C56.5861 123.918 56.2392 124.084 55.8655 124.084C55.4119 124.084 54.9955 123.854 54.7447 123.475L54.1682 122.584V135.896H56.837V123.651Z" fill="#F9F9F9"/>
<path d="M81.4062 218.376H88.9908C89.7274 218.376 90.3252 217.778 90.3252 217.041C90.3252 216.305 89.7274 215.707 88.9908 215.707H81.4062C80.6696 215.707 80.0718 216.305 80.0718 217.041C80.0718 217.778 80.6696 218.376 81.4062 218.376Z" fill="#F9F9F9"/>
<path d="M66.2304 218.376H73.815C74.5516 218.376 75.1494 217.778 75.1494 217.041C75.1494 216.305 74.5516 215.707 73.815 215.707H66.2304C65.4938 215.707 64.896 216.305 64.896 217.041C64.9013 217.778 65.4938 218.376 66.2304 218.376Z" fill="#F9F9F9"/>
<path d="M96.5819 218.376H99.9179C100.654 218.376 101.252 217.778 101.252 217.041C101.252 216.305 100.654 215.707 99.9179 215.707H96.5819C95.8454 215.707 95.2476 216.305 95.2476 217.041C95.2476 217.778 95.8454 218.376 96.5819 218.376Z" fill="#F9F9F9"/>
<path d="M397.621 6.75H392.411V11.9594H397.621V6.75Z" fill="#F9F9F9"/>
<path d="M387.04 6.75H381.831V11.9594H387.04V6.75Z" fill="#F9F9F9"/>
<path d="M376.46 6.75H371.25V11.9594H376.46V6.75Z" fill="#F9F9F9"/>
<path d="M193.352 110.144C193.379 109.407 192.802 108.788 192.066 108.767C191.308 108.74 190.71 109.316 190.683 110.053C190.673 110.416 190.411 119.111 194.841 130.186C195.049 130.709 195.551 131.024 196.08 131.024C196.245 131.024 196.411 130.992 196.576 130.928C197.259 130.656 197.59 129.876 197.318 129.193C193.112 118.673 193.347 110.229 193.352 110.144Z" fill="#F9F9F9"/>
<path d="M226.883 102.709C226.157 102.843 225.677 103.537 225.81 104.263C225.837 104.407 228.484 118.893 228.185 123.985C228.143 124.721 228.703 125.351 229.44 125.394C229.466 125.394 229.493 125.394 229.52 125.394C230.219 125.394 230.806 124.844 230.849 124.14C231.169 118.727 228.543 104.391 228.431 103.782C228.303 103.051 227.609 102.571 226.883 102.709Z" fill="#F9F9F9"/>
<path d="M40.4236 101.442L41.6993 103.406L42.5906 104.778L44.0531 107.03L48.6541 114.102L50.282 116.606L54.1677 122.579L54.7442 123.47C54.9897 123.849 55.4114 124.078 55.8651 124.078C56.2387 124.078 56.5857 123.913 56.8365 123.646C56.8899 123.593 56.9433 123.534 56.986 123.47L61.4535 116.606L63.0814 114.102L67.6824 107.03L69.1449 104.778L70.0363 103.406L71.3119 101.442C71.376 101.34 71.4294 101.234 71.4934 101.132C75.9876 93.9106 74.9308 84.3938 68.894 78.357C61.7097 71.1727 50.0151 71.1727 42.8308 78.357C36.7941 84.3938 35.7372 93.9106 40.2314 101.127C40.3062 101.234 40.3595 101.34 40.4236 101.442ZM55.8758 75.6402C59.9109 75.6402 63.9515 77.1774 67.0205 80.2465C72.2567 85.4826 73.1214 93.7825 69.0862 99.99L68.9848 100.145L67.4849 102.451L67.2501 102.808L65.8196 105.002L60.0764 113.83L58.3951 116.419L56.8419 118.805L55.8704 120.294L54.1731 117.684L53.3511 116.419L51.6698 113.83L45.9266 104.997L44.4961 102.803L44.2613 102.445L42.7614 100.139L42.66 99.9847C38.6248 93.7825 39.4895 85.4773 44.7256 80.2411C47.8001 77.1721 51.8352 75.6402 55.8758 75.6402Z" fill="#F9F9F9"/>
<path d="M50.189 98.3103C50.4025 98.4864 50.616 98.6519 50.8402 98.8067C51.865 99.5272 52.9965 100.024 54.1761 100.301C54.8913 100.467 55.6226 100.563 56.3538 100.563C56.5193 100.563 56.6794 100.547 56.8449 100.541C58.4782 100.456 60.0954 99.9649 61.5206 99.0522C61.8088 98.8654 62.097 98.6679 62.3692 98.4437C62.6308 98.2302 62.8816 98.006 63.1272 97.7658C64.9366 95.9564 65.9294 93.5545 65.9294 90.9978C65.9294 88.4412 64.9313 86.0393 63.1272 84.2298C59.3962 80.4989 53.3221 80.4989 49.5912 84.2298C45.8602 87.9608 45.8602 94.0349 49.5912 97.7658C49.778 97.958 49.9808 98.1341 50.189 98.3103ZM56.3485 84.0911C58.1152 84.0911 59.8873 84.7636 61.2323 86.1087C62.5347 87.411 63.2553 89.1457 63.2553 90.9925C63.2553 92.8393 62.5347 94.5686 61.2323 95.8763C58.5422 98.5665 54.1601 98.5718 51.4646 95.8763C48.7745 93.1862 48.7745 88.8041 51.4646 86.114C52.815 84.7636 54.5818 84.0911 56.3485 84.0911Z" fill="#F9F9F9"/>
<path d="M216.345 28.1562H211.135V33.3657H216.345V28.1562Z" fill="#F9F9F9"/>
<path d="M205.764 28.1562H200.555V33.3657H205.764V28.1562Z" fill="#F9F9F9"/>
<path d="M195.184 28.1562H189.974V33.3657H195.184V28.1562Z" fill="#F9F9F9"/>
<path d="M306.651 124.85C306.987 124.999 307.313 125.159 307.659 125.293C308.209 125.501 308.759 125.682 309.319 125.842C311.086 126.344 312.89 126.6 314.689 126.6C317.417 126.6 320.139 126.024 322.706 124.876C325.145 123.788 327.291 122.24 329.063 120.345C330.771 118.514 332.132 116.358 333.056 113.945C333.461 112.888 333.749 111.815 333.963 110.732C334.054 110.289 334.123 109.846 334.176 109.397C334.235 108.954 334.288 108.511 334.315 108.063C334.459 105.592 334.144 103.11 333.349 100.724C333.141 100.11 332.906 99.5017 332.639 98.8986C332.511 98.6103 332.351 98.3381 332.212 98.0552C330.002 93.6784 326.32 90.3158 321.708 88.5544C316.803 86.6809 311.454 86.825 306.661 88.9707C302.487 90.8389 299.162 94.0254 297.134 98.0552C296.835 98.653 296.557 99.2668 296.317 99.902C296.216 100.174 296.141 100.452 296.05 100.724C294.492 105.405 294.711 110.417 296.734 114.949C298.724 119.405 302.231 122.875 306.651 124.85ZM298.804 100.852C298.821 100.809 298.847 100.767 298.863 100.719C299.232 99.7846 299.675 98.8932 300.187 98.0499C301.964 95.1356 304.564 92.8191 307.745 91.3993C309.965 90.4065 312.314 89.9101 314.673 89.9101C316.723 89.9101 318.778 90.2838 320.747 91.0417C324.297 92.3974 327.216 94.858 329.164 98.0499C329.543 98.669 329.896 99.3095 330.2 99.9821C330.307 100.222 330.392 100.473 330.488 100.719C331.417 103.083 331.817 105.576 331.652 108.058C331.62 108.501 331.561 108.949 331.497 109.392C331.433 109.841 331.342 110.284 331.235 110.727C331.059 111.49 330.846 112.248 330.563 112.99C329.431 115.947 327.536 118.455 325.092 120.339C324.03 121.161 322.877 121.877 321.617 122.437C317.699 124.188 313.36 124.38 309.319 123.03C309.085 122.95 308.844 122.885 308.615 122.8C307.932 122.539 307.286 122.224 306.651 121.887C303.341 120.121 300.721 117.34 299.162 113.86C297.31 109.712 297.187 105.095 298.804 100.852Z" fill="#F9F9F9"/>
<path d="M461.515 81.9259H419.588C415.772 81.9259 412.671 85.027 412.671 88.8434V108.064H343.203C343.304 105.63 343.123 103.164 342.578 100.725H405.689C406.426 100.725 407.024 100.127 407.024 99.3903V17.2776V10.9366C407.024 4.9052 402.119 0 396.087 0H267.031C260.999 0 256.094 4.9052 256.094 10.9366V17.2776V68.3792C247.618 51.8115 233.132 47.5041 225.74 46.3939V37.4108V32.9646C225.74 26.9332 220.834 22.028 214.803 22.028H103.355C97.3237 22.028 92.4185 26.9332 92.4185 32.9646V37.4108V100.164C92.4185 106.196 97.3237 111.101 103.355 111.101H160.307C160.018 113.775 160.365 115.979 160.397 116.166C161.806 125.496 169.733 127.85 174.937 127.85C175.172 127.85 175.396 127.839 175.615 127.834C178.017 133.988 181.833 140.874 187.827 146.174H144.822C144.385 146.174 143.979 146.387 143.728 146.745L137.478 155.707C137.377 155.851 137.318 156.011 137.28 156.182C137.275 156.214 137.264 156.246 137.259 156.278C137.232 156.454 137.238 156.63 137.286 156.806C137.291 156.817 137.286 156.828 137.286 156.838L145.554 185.351C145.49 185.405 145.41 185.442 145.356 185.512C144.524 186.504 125.031 210.08 131.82 227.689C135.21 236.48 144.545 242.084 159.533 244.374V245.666C159.533 246.402 160.13 247 160.867 247H279.11C279.846 247 280.444 246.402 280.444 245.666V242.858C292.181 241.145 299.787 236.501 303.027 229.034C309.059 215.14 298.175 195.765 293.516 188.479L302.691 156.844C302.696 156.833 302.691 156.822 302.691 156.812C302.739 156.635 302.744 156.454 302.718 156.283C302.712 156.251 302.707 156.219 302.696 156.187C302.659 156.022 302.6 155.856 302.499 155.712L296.248 146.75C295.998 146.393 295.592 146.179 295.154 146.179H244.848C247.421 142.374 252.443 133.833 254.781 122.363C258.058 121.829 267.805 119.289 267.805 107.92C267.805 105.043 267.34 102.646 266.428 100.735H286.769C286.134 103.612 285.942 106.623 286.235 109.681L278.603 121.077C278.357 121.445 278.309 121.904 278.474 122.315C278.64 122.726 278.992 123.025 279.424 123.121L293.622 126.26C297.241 130.209 301.767 132.931 306.651 134.362V212.995C306.651 219.138 311.647 224.134 317.791 224.134H339.402H441.163C448.23 224.134 453.983 218.385 453.983 211.313V198.919V123.623H461.515C465.331 123.623 468.432 120.522 468.432 116.705V88.8434C468.432 85.027 465.331 81.9259 461.515 81.9259ZM465.763 116.705C465.763 119.049 463.858 120.954 461.515 120.954H453.983H451.315H429.997C429.644 120.954 429.303 121.093 429.052 121.344L419.871 130.524L415.34 135.056V130.524V120.346V110.733V109.398V108.064V88.8434C415.34 86.5002 417.245 84.5947 419.588 84.5947H461.515C463.858 84.5947 465.763 86.5002 465.763 88.8434V116.705ZM294.62 123.735L281.912 120.927L288.728 110.754C288.904 110.492 288.979 110.172 288.947 109.863C288.589 106.729 288.819 103.65 289.534 100.73C289.758 99.8227 290.02 98.9313 290.334 98.0613C292.672 91.6242 297.529 86.2226 304.121 83.2763C317.161 77.4477 332.517 83.3137 338.346 96.3586C338.596 96.9191 338.799 97.4902 339.002 98.0613C339.322 98.942 339.6 99.8333 339.824 100.73C340.427 103.169 340.657 105.635 340.545 108.069C340.523 108.518 340.502 108.961 340.459 109.404C340.417 109.852 340.358 110.295 340.288 110.738C340.214 111.25 340.118 111.752 340.011 112.259C339.589 114.25 338.949 116.182 338.079 118.013C337.7 118.814 337.289 119.593 336.83 120.351C334.214 124.68 330.318 128.293 325.375 130.53C325.338 130.546 325.306 130.567 325.269 130.583C321.249 132.376 316.985 133.076 312.821 132.782C311.647 132.697 310.484 132.542 309.331 132.302C308.429 132.109 307.543 131.859 306.662 131.57C302.408 130.183 298.48 127.69 295.336 124.157C295.138 123.938 294.893 123.794 294.62 123.735ZM258.763 10.942C258.763 6.3837 262.472 2.66877 267.036 2.66877H396.092C400.651 2.66877 404.366 6.37836 404.366 10.942V15.9486H258.763V10.942ZM256.174 75.1419C256.196 75.2059 256.212 75.27 256.244 75.334C258.197 80.8851 259.51 87.5997 259.889 95.6968C258.363 95.4406 257.21 95.622 257.124 95.6381C257.044 95.6541 256.98 95.6968 256.905 95.7234C256.82 95.7555 256.735 95.7715 256.66 95.8195C256.591 95.8622 256.537 95.9263 256.478 95.9796C256.409 96.0384 256.34 96.0917 256.286 96.1611C256.244 96.2145 256.222 96.2839 256.19 96.3426C256.142 96.4333 256.089 96.5187 256.062 96.6202C256.046 96.6735 256.057 96.7376 256.046 96.7963C256.035 96.903 256.009 97.0045 256.019 97.1165C256.26 99.0968 255.854 101.248 255.304 103.084C255.075 102.86 254.77 102.726 254.429 102.71C252.166 96.6415 248.974 92.4088 248.803 92.1847C248.536 91.8324 248.109 91.6349 247.671 91.6616C247.234 91.6883 246.828 91.9231 246.604 92.3021C244.149 96.3586 234.013 97.2713 229.102 97.3087C228.616 93.0493 229.737 89.0569 230.052 88.0481C231.216 86.7404 232.321 85.3046 233.34 83.73C233.741 83.1108 233.564 82.2835 232.945 81.8885C232.326 81.4882 231.499 81.6697 231.104 82.2835C222.041 96.3106 205.121 98.4082 201.021 98.7125C200.413 96.7322 200.712 94.357 200.861 93.4336C202.671 91.827 203.856 90.7382 204.058 90.5514C204.598 90.0497 204.635 89.2063 204.133 88.6672C203.631 88.1281 202.788 88.0908 202.249 88.5925C196.143 94.2396 179.5 108.63 172.172 111.005C171.852 109.441 171.638 106.009 173.763 100.586C174.029 99.9027 173.693 99.1288 173.005 98.8566C172.321 98.5897 171.547 98.926 171.275 99.6145C170.331 102.032 169.807 104.109 169.541 105.875C169.055 104.995 168.532 103.97 168.009 102.812C167.993 102.742 167.993 102.673 167.966 102.609C167.934 102.534 167.875 102.481 167.827 102.411C164.465 94.7307 161.566 81.8031 171.654 69.5642C187.992 49.7405 213.901 48.5823 221.437 48.6784C226.428 48.7478 247.431 50.5839 256.174 75.1419ZM95.0872 32.9646C95.0872 28.4064 98.7968 24.6915 103.36 24.6915H214.803C219.361 24.6915 223.076 28.4011 223.076 32.9646V36.0764H95.0872V32.9646ZM103.355 108.432C98.7968 108.432 95.0819 104.723 95.0819 100.159V38.7452H223.065V46.0843C222.356 46.0309 221.8 46.0096 221.469 46.0043C214.958 45.9082 195.417 46.7462 179.185 58.777C178.033 59.631 176.901 60.5384 175.785 61.5098C174.056 63.015 172.385 64.6696 170.784 66.4791C170.384 66.9327 169.978 67.3864 169.589 67.8668C169.076 68.486 168.601 69.1105 168.147 69.735C168.003 69.9378 167.881 70.1353 167.742 70.3381C167.448 70.7598 167.155 71.1868 166.888 71.6084C166.792 71.7579 166.712 71.9127 166.621 72.0621C166.568 72.1529 166.52 72.2383 166.466 72.329C166.237 72.7133 166.002 73.103 165.794 73.4873C165.655 73.7381 165.537 73.9943 165.409 74.2452C165.222 74.6188 165.03 74.9978 164.86 75.3714C164.742 75.6276 164.641 75.8838 164.534 76.1347C164.379 76.5083 164.219 76.8766 164.08 77.2502C163.984 77.5064 163.899 77.7573 163.813 78.0135C163.685 78.3871 163.557 78.7554 163.445 79.129C163.37 79.3799 163.306 79.6254 163.237 79.871C163.136 80.2446 163.034 80.6182 162.943 80.9918C162.885 81.232 162.837 81.4775 162.789 81.7177C162.709 82.0967 162.634 82.4703 162.57 82.844C162.532 83.0788 162.495 83.3083 162.463 83.5432C162.41 83.9221 162.356 84.3011 162.314 84.6801C162.287 84.9043 162.271 85.1231 162.249 85.3473C162.217 85.7316 162.191 86.1105 162.169 86.4895C162.159 86.6977 162.148 86.9112 162.143 87.1193C162.132 87.509 162.127 87.8933 162.127 88.2776C162.127 88.4751 162.132 88.6672 162.132 88.8647C162.132 88.9341 162.137 89.0088 162.143 89.0782C162.153 89.3985 162.164 89.7187 162.18 90.0336C162.191 90.2098 162.201 90.3913 162.212 90.5674C162.244 90.9677 162.276 91.368 162.319 91.7577C162.335 91.9178 162.351 92.0779 162.372 92.2327C162.42 92.6437 162.479 93.044 162.543 93.4497C162.564 93.5884 162.586 93.7219 162.607 93.8606C162.612 93.8927 162.618 93.9194 162.623 93.9514C162.687 94.341 162.762 94.7253 162.837 95.1096C162.858 95.2164 162.879 95.3285 162.901 95.4352C162.991 95.8782 163.093 96.3106 163.2 96.7376C163.216 96.8123 163.237 96.887 163.253 96.9618C163.37 97.4315 163.498 97.8958 163.627 98.3495C163.637 98.3762 163.643 98.4082 163.648 98.4349C164.075 99.8974 164.566 101.269 165.073 102.529C162.714 103.97 161.46 106.196 160.819 108.448H103.355V108.432ZM163.034 115.745C163.023 115.664 161.817 108.069 166.173 104.995C166.674 106.052 167.165 106.986 167.608 107.786C167.624 107.818 167.646 107.85 167.662 107.882C167.795 108.117 167.923 108.336 168.046 108.544C168.078 108.592 168.105 108.64 168.131 108.688C168.238 108.87 168.34 109.041 168.441 109.201C168.478 109.265 168.516 109.318 168.548 109.377C168.633 109.51 168.713 109.638 168.788 109.756C168.831 109.82 168.868 109.879 168.905 109.937C168.964 110.028 169.017 110.113 169.071 110.194C169.119 110.268 169.162 110.332 169.21 110.396C169.236 110.439 169.263 110.476 169.29 110.508C169.348 110.594 169.391 110.658 169.434 110.717C169.594 111.918 169.861 112.686 170.005 113.017C170.005 113.022 170.005 113.022 170.01 113.022C170.053 113.124 170.09 113.199 170.101 113.22C170.336 113.663 170.795 113.935 171.281 113.935C171.35 113.935 171.419 113.93 171.494 113.919C171.612 113.898 171.745 113.866 171.873 113.839C172.156 115.777 172.919 120.057 174.654 125.16C171.302 125.069 164.267 123.906 163.034 115.745ZM162.201 234.697H277.775V244.326H162.201V234.697ZM290.612 188.917L278.111 232.028H161.871L140.344 157.799H299.632L291.573 185.586L290.612 188.917ZM141.129 155.13L145.522 148.837H191.232H192.754H242.243H294.466L298.853 155.13H141.129ZM134.313 226.723C128.901 212.696 142.634 193.39 146.45 188.426L154.051 214.633C151.745 213.347 148.975 212.167 147.358 212.776C146.685 213.027 146.386 213.747 146.61 214.425C146.835 215.103 147.603 215.471 148.292 215.274C148.815 215.124 150.448 215.743 152.338 216.752C149.946 217.259 147.011 218.295 145.164 220.387C144.678 220.937 144.732 221.78 145.281 222.271C145.532 222.495 145.853 222.602 146.162 222.602C146.53 222.602 146.899 222.447 147.166 222.148C149.215 219.827 153.4 219.175 155.321 218.994L159.538 233.544V241.662C145.799 239.501 137.307 234.483 134.313 226.723ZM300.583 227.966C297.77 234.451 290.991 238.545 280.449 240.157V233.549L286.331 213.261C287.217 213.107 288.92 212.946 290.986 213.427C291.087 213.454 291.188 213.464 291.29 213.464C291.893 213.464 292.443 213.048 292.587 212.434C292.752 211.719 292.309 210.998 291.594 210.833C289.843 210.422 288.306 210.395 287.137 210.486L292.512 191.959C297.327 200.003 305.573 216.459 300.583 227.966ZM241.576 146.169H192.097C178.241 136.139 174.91 116.348 174.435 112.964C174.766 112.82 175.108 112.665 175.455 112.489C175.551 112.441 175.652 112.387 175.748 112.339C176.122 112.152 176.501 111.95 176.885 111.736C177.029 111.656 177.173 111.576 177.317 111.496C177.739 111.256 178.166 111.005 178.604 110.743C178.673 110.701 178.742 110.658 178.817 110.615C179.324 110.306 179.842 109.975 180.365 109.633C180.515 109.537 180.659 109.436 180.808 109.34C181.214 109.073 181.619 108.8 182.03 108.518C182.18 108.416 182.329 108.315 182.479 108.208C183.018 107.834 183.557 107.455 184.096 107.066C184.171 107.012 184.245 106.959 184.32 106.906C184.801 106.559 185.281 106.206 185.761 105.843C185.927 105.721 186.092 105.598 186.252 105.475C186.706 105.134 187.154 104.792 187.603 104.45C187.704 104.37 187.811 104.29 187.912 104.21C188.467 103.783 189.017 103.351 189.562 102.918C189.679 102.828 189.797 102.732 189.914 102.641C190.362 102.283 190.805 101.931 191.243 101.579C191.371 101.472 191.505 101.371 191.633 101.264C192.716 100.383 193.768 99.5131 194.776 98.6698C194.878 98.5844 194.974 98.5043 195.07 98.4242C195.513 98.0506 195.945 97.6877 196.367 97.33C196.426 97.2767 196.49 97.2286 196.549 97.1752C197.045 96.7536 197.52 96.3426 197.979 95.9476C197.979 96.2892 197.995 96.6468 198.022 97.0098C198.027 97.0578 198.027 97.1059 198.032 97.1592C198.059 97.5062 198.107 97.8585 198.166 98.2161C198.176 98.2801 198.187 98.3388 198.198 98.4029C198.262 98.7605 198.347 99.1128 198.449 99.4597C198.465 99.5078 198.481 99.5558 198.497 99.6038C198.614 99.9721 198.748 100.33 198.913 100.677C199.137 101.136 199.602 101.429 200.114 101.429C200.119 101.429 200.125 101.429 200.135 101.429C200.162 101.429 200.205 101.429 200.258 101.424C200.279 101.424 200.301 101.424 200.327 101.424C200.37 101.424 200.418 101.419 200.477 101.419C200.52 101.419 200.562 101.413 200.61 101.413C200.658 101.413 200.706 101.408 200.765 101.408C200.835 101.403 200.904 101.403 200.979 101.397C201.021 101.397 201.069 101.392 201.117 101.387C201.459 101.365 201.875 101.333 202.366 101.285C202.382 101.285 202.393 101.28 202.409 101.28C202.575 101.264 202.751 101.242 202.938 101.226C202.964 101.221 202.991 101.221 203.018 101.216C203.204 101.194 203.402 101.173 203.605 101.146C203.621 101.146 203.637 101.141 203.653 101.141C207.731 100.618 214.728 99.1555 221.507 95.0776C222.473 94.4958 223.439 93.8606 224.389 93.1668C224.4 93.1561 224.416 93.1454 224.426 93.1401C224.768 92.8892 225.104 92.633 225.441 92.3715C225.483 92.3394 225.521 92.3074 225.563 92.2754C225.9 92.0085 226.231 91.7363 226.562 91.4587C226.492 91.9551 226.433 92.4782 226.385 93.028C226.38 93.0867 226.375 93.1454 226.369 93.2041C226.327 93.7325 226.305 94.277 226.3 94.8374C226.3 94.9228 226.3 95.0029 226.3 95.0883C226.3 95.6541 226.316 96.2252 226.359 96.8123C226.364 96.887 226.375 96.9564 226.38 97.0311C226.433 97.645 226.508 98.2694 226.62 98.8939C226.732 99.5184 227.266 99.9721 227.901 99.9881C229.486 100.026 242.43 100.18 247.634 95.2217C249.15 97.5436 252.032 102.529 253.313 108.389C253.9 128.229 243.684 143.286 241.576 146.169ZM255.288 119.566C255.833 116.102 256.121 112.403 256.014 108.512V108.507C256.041 108.459 256.073 108.395 256.099 108.336C256.126 108.283 256.153 108.235 256.18 108.171C256.217 108.096 256.26 108.005 256.302 107.914C256.334 107.85 256.361 107.792 256.393 107.722C256.441 107.621 256.489 107.514 256.537 107.402C256.569 107.327 256.601 107.258 256.639 107.178C256.692 107.06 256.745 106.932 256.799 106.804C256.836 106.719 256.868 106.633 256.905 106.548C256.959 106.415 257.018 106.27 257.076 106.126C257.114 106.03 257.151 105.939 257.188 105.838C257.247 105.683 257.306 105.529 257.364 105.368C257.402 105.267 257.434 105.166 257.471 105.064C257.53 104.893 257.589 104.723 257.647 104.552C257.679 104.445 257.717 104.338 257.749 104.231C257.807 104.05 257.861 103.869 257.914 103.682C257.946 103.57 257.978 103.458 258.01 103.345C258.064 103.153 258.117 102.961 258.165 102.764C258.192 102.646 258.218 102.529 258.25 102.417C258.299 102.214 258.341 102.016 258.384 101.808C258.405 101.691 258.427 101.573 258.448 101.456C258.485 101.248 258.528 101.04 258.56 100.826C258.576 100.709 258.592 100.591 258.608 100.474C258.635 100.255 258.667 100.042 258.688 99.8227C258.699 99.7106 258.704 99.5932 258.715 99.4811C258.731 99.2569 258.752 99.0327 258.758 98.8085C258.763 98.7071 258.758 98.611 258.758 98.5096C258.758 98.4242 258.758 98.3388 258.758 98.2588C259.313 98.2961 260.001 98.4029 260.727 98.6804C260.775 98.7018 260.813 98.7285 260.861 98.7445C260.866 98.7445 260.871 98.7445 260.877 98.7445C260.887 98.7498 260.898 98.7552 260.909 98.7605C261.405 98.974 261.912 99.2516 262.387 99.6572C264.218 101.221 265.141 103.997 265.141 107.909C265.136 116.465 258.523 118.888 255.288 119.566ZM264.549 98.056C264.394 97.9012 264.245 97.741 264.079 97.5969C263.625 97.2126 263.161 96.9084 262.691 96.6522C262.665 96.6362 262.638 96.6201 262.606 96.6095C262.563 95.3872 262.51 94.1702 262.424 93.0066C262.003 87.3328 261.095 82.3529 259.836 77.9601C259.521 76.8606 259.179 75.7984 258.822 74.7736C258.806 74.7202 258.79 74.6615 258.768 74.6135V18.612H404.366V24.1737V27.547V49.6872V52.9964V98.056H341.847C341.537 97.1165 341.185 96.1878 340.774 95.2644C334.342 80.8797 317.412 74.4053 303.027 80.8371C295.448 84.2264 289.95 90.5567 287.511 98.056H264.549ZM309.32 212.984V135.002C310.473 135.221 311.637 135.355 312.811 135.429C313.419 135.467 314.028 135.525 314.636 135.525C318.575 135.525 322.563 134.704 326.341 133.017C327.916 132.312 329.373 131.464 330.756 130.524C333.67 128.539 336.12 126.073 338.068 123.281V198.909V221.455H317.791C313.12 221.455 309.32 217.654 309.32 212.984ZM451.315 211.303C451.315 216.902 446.762 221.455 441.163 221.455H340.737V200.243H451.315V211.303ZM451.315 197.574H340.737V120.346V118.552C341.847 116.065 342.594 113.439 342.968 110.727H412.676V120.34V130.519V138.269C412.676 138.44 412.719 138.595 412.778 138.749C412.906 139.08 413.157 139.358 413.498 139.502C413.664 139.571 413.834 139.603 414.011 139.603C414.358 139.603 414.699 139.47 414.955 139.214L415.42 138.749L423.65 130.519L430.552 123.617H451.32V197.574H451.315Z" fill="#F9F9F9"/>
<path d="M1.41126 226.298H110.329C111.066 226.298 111.663 225.701 111.663 224.964V209.208V145.878C111.663 140.375 107.185 135.896 101.682 135.896H95.1758H95.1438H92.507H92.459H79.3767H76.7079H56.8363H54.1675H35.0271H32.3583H19.276H19.228H16.5912H16.5592H10.0527C4.54973 135.896 0.0715332 140.375 0.0715332 145.878V209.208V224.964C0.0768707 225.701 0.674676 226.298 1.41126 226.298ZM108.995 223.63H2.7403V210.542H108.989V223.63H108.995ZM2.7403 145.878C2.7403 141.843 6.02289 138.565 10.0527 138.565H17.8616H33.6713H55.5019H78.0583H93.8681H101.677C105.712 138.565 108.989 141.848 108.989 145.878V207.873H2.7403V145.878Z" fill="#F9F9F9"/>
<path d="M11.8312 218.377H53.9818V219.803C53.9818 220.539 54.5796 221.137 55.3162 221.137C56.0527 221.137 56.6505 220.539 56.6505 219.803V218.377H58.6521C59.3887 218.377 59.9865 217.78 59.9865 217.043C59.9865 216.307 59.3887 215.709 58.6521 215.709H56.6505V214.284C56.6505 213.547 56.0527 212.949 55.3162 212.949C54.5796 212.949 53.9818 213.547 53.9818 214.284V215.709H11.8312C11.0946 215.709 10.4968 216.307 10.4968 217.043C10.4968 217.78 11.0946 218.377 11.8312 218.377Z" fill="#F9F9F9"/>
<path d="M65.5907 172.705L47.2882 163.082C46.8772 162.863 46.3808 162.879 45.9752 163.119C45.5749 163.359 45.3293 163.792 45.3293 164.261V183.514C45.3293 183.978 45.5749 184.416 45.9752 184.656C46.1887 184.784 46.4235 184.848 46.6637 184.848C46.8772 184.848 47.0907 184.795 47.2829 184.693L65.5853 175.07C66.023 174.84 66.3005 174.387 66.3005 173.89C66.3005 173.394 66.0283 172.935 65.5907 172.705Z" fill="#FFC700"/>
</svg>
