<svg width="451" height="331" viewBox="0 0 451 331" fill="none" xmlns="http://www.w3.org/2000/svg">
<path d="M43.3794 2.15191C42.0995 3.50748 40.9599 4.99806 40.0094 6.58586C39.9014 6.76948 39.7016 6.8883 39.4909 6.8991C29.3971 7.45537 21.4905 15.7994 21.4905 25.8986C21.4905 28.5018 22.0144 31.0347 23.0405 33.4218C23.1701 33.7242 23.0513 34.0753 22.7705 34.2427C14.7883 38.8548 9.62524 48.9757 9.62524 60.0363C9.62524 68.8879 12.8224 77.0754 18.3959 82.4976C18.6552 82.7461 18.6606 83.1565 18.4121 83.4157C14.9611 86.991 13.0547 91.6896 13.0547 96.642C13.0547 105.58 19.395 113.416 28.1279 115.269C28.3548 115.317 28.5384 115.485 28.6086 115.701C30.3368 120.94 33.9012 125.406 38.6484 128.268L39.2641 128.641L39.5719 127.993C39.6637 127.798 39.7664 127.604 39.869 127.404L40.1174 126.924C40.3226 126.513 40.5279 126.103 40.7493 125.692C41.0679 125.103 41.4082 124.515 41.7538 123.921L41.9212 123.64C42.1049 123.321 42.2885 123.003 42.4883 122.684C42.8772 122.058 43.293 121.431 43.7142 120.805L43.9789 120.405C44.1409 120.156 44.3029 119.908 44.4811 119.66C44.9942 118.931 45.5397 118.201 46.0959 117.467L46.3606 117.105C46.4794 116.943 46.5982 116.781 46.7224 116.619C47.5055 115.615 48.348 114.588 49.2175 113.578C49.3309 113.449 49.4498 113.319 49.5686 113.19L49.8548 112.871C50.5407 112.088 51.2428 111.305 51.9827 110.522C52.2095 110.284 52.4417 110.046 52.674 109.809L53.0736 109.398C53.7001 108.75 54.332 108.108 54.9908 107.46C55.3149 107.146 55.6497 106.828 55.9846 106.514L56.8217 105.715C57.0971 105.45 57.3725 105.186 57.6588 104.921L58.188 104.435L57.648 103.96C55.6497 102.188 53.7541 100.201 52.0259 98.0624C51.8693 97.8679 51.7234 97.6681 51.5722 97.4629L51.2806 97.074C48.9097 94.0011 46.8088 90.6094 45.0374 86.991L44.789 86.4779L43.9735 86.7372C43.7629 86.802 43.5522 86.8668 43.347 86.9208C43.2282 86.9478 43.1094 86.9694 42.9906 86.9964L42.8501 87.0234C42.6233 87.0666 42.3965 87.1098 42.1751 87.1422L41.77 87.1908C41.3974 87.2286 41.0247 87.2556 40.6467 87.2556C34.4467 87.2556 29.4079 82.2114 29.4079 76.0168C29.4079 69.8169 34.4521 64.778 40.6467 64.778C40.9005 64.778 41.1651 64.7942 41.446 64.8158C41.6674 64.8321 41.8834 64.8536 42.0995 64.8861L42.1697 64.8969L42.2399 64.8915C46.2634 64.5728 50.5353 63.7141 54.926 62.3477C59.9973 60.7653 65.0685 58.5619 70.0047 55.8021C72.6078 54.3494 75.2379 52.6914 77.8303 50.8821C78.8456 50.1746 79.8555 49.4401 80.8492 48.6841L81.3353 48.3222C84.1112 46.1889 86.79 43.8775 89.3121 41.458C93.8918 37.051 97.8343 32.3524 101.032 27.4864C101.188 27.2434 101.48 27.1354 101.755 27.2164C102.031 27.2974 102.22 27.5404 102.225 27.8159V28.3343C102.468 35.582 104.985 42.2519 109.208 46.7182L109.365 46.8748C112.341 49.9154 115.824 51.4654 119.41 51.352C119.631 51.3412 119.853 51.3142 120.101 51.2818L120.366 51.2494C120.728 51.2008 121.046 51.4546 121.09 51.811C121.225 52.8426 121.338 53.8849 121.43 54.9434L121.468 55.3539C121.754 58.9345 121.873 62.58 121.819 66.1876C121.781 68.7205 121.678 70.9024 121.505 72.8682C120.712 81.8928 118.53 89.5671 115.014 95.6915C114.269 96.993 113.448 98.246 112.578 99.4125L112.049 100.12L116.186 101.432C116.494 101.519 116.818 101.611 117.239 101.729L118.935 102.183C119.907 102.437 120.96 102.691 122.083 102.95L122.456 103.031C122.915 103.134 123.379 103.236 123.866 103.339L124.443 103.463L124.692 103.22C129.223 98.8239 131.227 92.5051 130.044 86.3267C129.984 86.0297 129.909 85.738 129.833 85.441L129.763 85.171C129.714 84.9927 129.752 84.7983 129.855 84.6471C132.906 80.1375 134.294 74.8935 133.862 69.482C133.695 67.392 133.247 65.3181 132.523 63.3199C132.426 63.0552 132.512 62.7636 132.733 62.5908C136.6 59.5394 138.674 54.7922 138.28 49.8992C137.972 46.0593 136.201 42.5489 133.29 40.0106C133.084 39.8324 133.014 39.5461 133.106 39.2923C134.489 35.609 135.148 31.4397 135.007 27.2326C134.796 20.8976 132.863 15.0055 129.569 10.6472C126.344 6.38063 122.132 4.10155 117.817 4.21497C117.201 4.23657 116.569 4.32298 115.824 4.4742C115.592 4.52821 115.349 4.4418 115.192 4.25817C114.587 3.53989 113.945 2.8486 113.221 2.14651L113.032 1.96289H43.5684L43.3794 2.15191Z" fill="#FFC700"/>
<path d="M140.792 219.668L144.519 223.583C145.01 224.096 145.826 224.123 146.344 223.643L160.569 210.481L169.103 213.932C169.691 214.175 170.366 213.948 170.701 213.403L181.567 195.581L193.47 189.883C194.118 189.57 194.394 188.798 194.081 188.149C193.773 187.501 192.995 187.231 192.347 187.539L180.098 193.399C179.871 193.507 179.682 193.68 179.547 193.896L169.054 211.102L160.78 207.754C160.316 207.565 159.781 207.662 159.408 208.002L145.518 220.856L141.754 216.903C141.511 216.649 141.176 216.503 140.825 216.498C140.484 216.498 140.139 216.633 139.89 216.881L126.394 230.41V234.093L140.792 219.668Z" fill="#0D70BA"/>
<path d="M185.201 181.92H174.454L179.828 191.231L185.201 181.92Z" fill="#0D70BA"/>
<path d="M200.243 214.721C198.537 214.721 197.16 216.103 197.16 217.804C197.16 219.511 198.542 220.888 200.243 220.888C201.95 220.888 203.327 219.506 203.327 217.804C203.327 216.103 201.945 214.721 200.243 214.721Z" fill="#0D70BA"/>
<path d="M200.243 227.385C198.537 227.385 197.16 228.767 197.16 230.469C197.16 232.175 198.542 233.552 200.243 233.552C201.95 233.552 203.327 232.17 203.327 230.469C203.327 228.767 201.945 227.385 200.243 227.385Z" fill="#0D70BA"/>
<path d="M200.243 241.617C198.537 241.617 197.16 243 197.16 244.701C197.16 246.402 198.542 247.785 200.243 247.785C201.95 247.785 203.327 246.402 203.327 244.701C203.327 243 201.945 241.617 200.243 241.617Z" fill="#0D70BA"/>
<path d="M200.243 255.854C198.537 255.854 197.16 257.236 197.16 258.937C197.16 260.644 198.542 262.021 200.243 262.021C201.95 262.021 203.327 260.639 203.327 258.937C203.327 257.236 201.945 255.854 200.243 255.854Z" fill="#0D70BA"/>
<path d="M438.926 150.174C432.262 150.174 426.856 155.58 426.856 162.244C426.856 162.471 426.877 162.687 426.888 162.909C426.937 163.805 427.077 164.675 427.315 165.512C427.617 166.597 428.071 167.618 428.649 168.558C429.108 169.303 429.637 169.989 430.237 170.615C431.468 171.895 432.985 172.9 434.681 173.537C435.508 173.85 436.377 174.072 437.284 174.196C437.824 174.272 438.365 174.32 438.926 174.32C445.591 174.32 450.997 168.914 450.997 162.25C450.997 155.585 445.596 150.174 438.926 150.174ZM444.451 170.043H441.432L436.485 160.095L436.42 160.106V164.642V170.043H434.687H433.401V168.109V165.593V164.788V162.952V154.451H436.42L441.367 164.41L441.432 164.399V154.451H444.451V170.043Z" fill="#0D70BA"/>
<path d="M256.242 87.4219C245.565 87.9511 237.042 96.8028 237.042 107.604C237.042 115.7 241.957 123.05 249.378 126.199L256.242 107.426V87.4219Z" fill="#0D70BA"/>
<path d="M275.404 116.469L260.828 110.237L257.82 108.951L255.579 115.076L251.258 126.892C253.218 127.508 255.228 127.816 257.237 127.816C265.003 127.816 272.029 123.393 275.404 116.469Z" fill="#0D70BA"/>
<path d="M241.112 39.5294C241.906 41.0416 243.467 42.0839 245.287 42.0839C247.193 42.0839 248.83 40.9444 249.575 39.3188C254.954 40.5502 258.011 36.8291 261.23 32.8812C262.834 30.9154 264.519 28.8577 266.625 27.1457C267.451 27.8802 268.526 28.3392 269.714 28.3392C272.29 28.3392 274.386 26.2438 274.386 23.6677C274.386 23.6245 274.375 23.5867 274.375 23.5435C276.676 23.1168 279.365 23.0844 282.546 23.5813V20.9565C279.09 20.4543 276.141 20.5515 273.597 21.0699C272.76 19.817 271.329 18.9961 269.714 18.9961C267.138 18.9961 265.043 21.0915 265.043 23.6677C265.043 24.1159 265.124 24.5372 265.242 24.9422C262.763 26.8919 260.873 29.2034 259.215 31.234C255.851 35.3655 253.717 37.6932 249.959 36.7373C249.656 34.4204 247.69 32.6166 245.287 32.6166C242.808 32.6166 240.788 34.5446 240.594 36.9749C236.748 38.4547 233.821 41.4197 231.942 43.85V48.5215C232.639 47.2308 235.847 41.7059 241.112 39.5294ZM267.678 23.295C267.856 22.3283 268.699 21.5992 269.714 21.5992C270.081 21.5992 270.422 21.7018 270.724 21.8746C271.356 22.2311 271.788 22.9008 271.788 23.6731C271.788 23.8783 271.75 24.0781 271.691 24.2617C271.437 25.115 270.648 25.7415 269.714 25.7415C269.423 25.7415 269.147 25.6821 268.893 25.5687C268.159 25.2501 267.64 24.5156 267.64 23.6677C267.64 23.5435 267.656 23.4192 267.678 23.295ZM243.499 36.208C243.877 35.6193 244.536 35.2251 245.287 35.2251C246.011 35.2251 246.648 35.5869 247.037 36.1432C247.274 36.4889 247.42 36.9047 247.42 37.3584C247.42 37.8876 247.22 38.3683 246.896 38.7409C246.507 39.1946 245.935 39.4862 245.287 39.4862C244.666 39.4862 244.115 39.2162 243.726 38.7949C243.375 38.4169 243.159 37.9146 243.159 37.3584C243.159 36.9317 243.283 36.5375 243.499 36.208Z" fill="#0D70BA"/>
<path d="M160.365 55.3613H155.148C154.43 55.3613 153.846 55.9446 153.846 56.6629V71.936C153.846 72.6543 154.43 73.2375 155.148 73.2375H160.365C161.083 73.2375 161.667 72.6543 161.667 71.936V56.6629C161.661 55.9446 161.083 55.3613 160.365 55.3613Z" fill="#0D70BA"/>
<path d="M172.697 44.2441H167.48C166.761 44.2441 166.178 44.8274 166.178 45.5457V71.9442C166.178 72.6624 166.761 73.2457 167.48 73.2457H172.697C173.415 73.2457 173.998 72.6624 173.998 71.9442V45.5457C173.998 44.8274 173.415 44.2441 172.697 44.2441Z" fill="#0D70BA"/>
<path d="M185.028 30.9668H179.811C179.093 30.9668 178.51 31.5501 178.51 32.2684V71.9471C178.51 72.6654 179.093 73.2486 179.811 73.2486H185.028C185.747 73.2486 186.33 72.6654 186.33 71.9471V32.263C186.325 31.5447 185.747 30.9668 185.028 30.9668Z" fill="#0D70BA"/>
<path d="M291.798 269.864C289.363 270.172 287.003 271.247 285.134 273.121C283.195 275.059 282.121 277.522 281.867 280.05C281.78 280.914 281.796 281.789 281.904 282.653C282.083 284.057 282.488 285.434 283.184 286.709L281.516 292.941L287.748 291.272C288.828 291.861 289.984 292.266 291.167 292.482C292.058 292.644 292.965 292.671 293.867 292.622C296.583 292.477 299.257 291.402 301.336 289.323C305.808 284.851 305.808 277.598 301.336 273.126C299.397 271.187 296.935 270.091 294.407 269.832C293.532 269.734 292.663 269.756 291.798 269.864ZM295.979 274.298C296.692 275.032 297.048 276.021 297.048 277.258C297.048 278.095 296.832 278.905 296.4 279.688C295.968 280.471 295.309 281.432 294.418 282.566L294.396 282.593L291.793 286.282L291.523 286.665H291.793H294.396H297.48V288.232H294.396H291.793H288.915V286.855L291.793 283.09L292.133 282.642L293.105 281.367C293.386 280.979 293.619 280.633 293.829 280.298C294.056 279.942 294.245 279.612 294.391 279.321C294.439 279.218 294.499 279.115 294.537 279.024C294.807 278.413 294.936 277.819 294.936 277.252C294.936 276.496 294.774 275.897 294.445 275.448C294.429 275.427 294.407 275.41 294.391 275.389C294.061 274.984 293.602 274.773 292.992 274.773C292.511 274.773 292.117 274.908 291.788 275.151C291.62 275.275 291.464 275.416 291.339 275.6C290.956 276.15 290.762 276.847 290.762 277.695H288.736L288.704 277.636C288.677 276.393 289.055 275.34 289.833 274.476C290.357 273.898 291.015 273.531 291.782 273.342C292.16 273.25 292.555 273.185 292.987 273.185C293.5 273.185 293.959 273.261 294.385 273.385C295.017 273.569 295.552 273.861 295.979 274.298Z" fill="#0D70BA"/>
<path d="M274.028 214.305H213.103V221.304H274.028V214.305Z" fill="#FFC700"/>
<path d="M265.505 227.752H213.103V234.751H265.505V227.752Z" fill="#FFC700"/>
<path d="M252.279 241.205H213.103V248.204H252.279V241.205Z" fill="#FFC700"/>
<path d="M260.85 254.652H213.103V261.652H260.85V254.652Z" fill="#FFC700"/>
<path d="M277.458 107.604C277.458 96.8028 268.936 87.9457 258.259 87.4219V106.94L276.211 114.609C277.037 112.368 277.458 110.018 277.458 107.604Z" fill="#FFC700"/>
<path d="M278.269 286.105H268.197V296.178H278.269V286.105Z" fill="#0D70BA"/>
<path d="M257.908 286.105H247.836V296.178H257.908V286.105Z" fill="#0D70BA"/>
<path d="M237.539 286.105H227.467V296.178H237.539V286.105Z" fill="#0D70BA"/>
<path d="M196.32 274.562H207.58H276.152C278.75 274.562 280.862 272.45 280.862 269.852V210.153C280.862 207.556 278.75 205.444 276.152 205.444H207.58H202.379V177.301C202.379 173.774 199.512 170.912 195.985 170.912H120.451C116.925 170.912 114.062 173.78 114.062 177.301V253.062C114.062 256.588 116.93 259.456 120.451 259.456H191.61V269.852C191.61 272.45 193.722 274.562 196.32 274.562ZM208.882 208.042H276.152C277.314 208.042 278.259 208.987 278.259 210.148V269.847C278.259 271.008 277.314 271.959 276.152 271.959H208.882V208.042ZM201.078 208.042H206.279V271.959H196.32C195.159 271.959 194.214 271.013 194.214 269.847V258.149V248.201V210.153C194.214 208.992 195.159 208.047 196.32 208.047H201.078V208.042ZM120.451 256.853C118.361 256.853 116.66 255.152 116.66 253.062V177.301C116.66 175.211 118.361 173.51 120.451 173.51H195.99C198.08 173.51 199.782 175.211 199.782 177.301V205.444H196.325C193.727 205.444 191.616 207.556 191.616 210.153V246.899H126.397V234.089V230.406V184.576C126.397 183.858 125.814 183.274 125.096 183.274C124.378 183.274 123.794 183.858 123.794 184.576V233.549V248.196C123.794 248.914 124.378 249.497 125.096 249.497H191.605V256.847H120.451V256.853Z" fill="#0D70BA"/>
<path d="M216.516 190.005C216.872 190.005 217.218 189.859 217.466 189.589L223.699 182.881H253.51C255.53 182.881 257.172 181.239 257.172 179.225V170.703C257.172 168.683 255.53 167.041 253.51 167.041H218.87C216.851 167.041 215.209 168.683 215.209 170.703V188.708C215.209 189.243 215.538 189.724 216.035 189.918C216.197 189.978 216.354 190.005 216.516 190.005ZM217.817 170.697C217.817 170.114 218.293 169.639 218.876 169.639H253.516C254.099 169.639 254.574 170.114 254.574 170.697V179.22C254.574 179.803 254.099 180.278 253.516 180.278H223.137C222.775 180.278 222.429 180.429 222.186 180.694L217.817 185.392V170.697Z" fill="#0D70BA"/>
<path d="M434.684 173.529V191.265C434.684 192.194 433.927 192.955 432.993 192.955H396.965C396.036 192.955 395.275 192.199 395.275 191.265V184.579V167.194C395.275 167.161 395.291 167.134 395.296 167.097L414.172 182.073C414.409 182.262 414.696 182.354 414.982 182.354C415.268 182.354 415.554 182.262 415.792 182.073L430.239 170.607C429.639 169.981 429.105 169.289 428.651 168.549L414.982 179.394L397.478 165.503H418.984H421.274H427.317C427.085 164.672 426.939 163.797 426.89 162.9H422.575V12.7132C422.575 5.7031 416.872 0 409.862 0H322.722C315.712 0 310.009 5.7031 310.009 12.7132V173.081C309.82 173.043 309.631 173.021 309.447 172.962C296.858 169.176 287.126 152.477 287.029 152.31C286.846 151.986 286.527 151.759 286.16 151.683C285.793 151.607 285.414 151.694 285.117 151.921L282.185 154.135L277.492 148.648C277.454 147.422 277.313 144.527 276.757 141.395H281.688C288.698 141.395 294.401 135.692 294.401 128.682V86.5619C294.401 79.5518 288.698 73.8487 281.688 73.8487H245.892C245.709 72.72 245.471 71.6722 245.196 70.7595C245.72 70.1115 246.621 68.9503 247.567 67.5515H281.688C288.698 67.5515 294.401 61.8484 294.401 54.8384V12.7132C294.401 5.7031 288.698 0 281.688 0H232.796C225.786 0 220.083 5.7031 220.083 12.7132V54.833C220.083 61.2274 224.83 66.5146 230.981 67.4003C225.959 72.1421 220.958 77.0297 217.912 80.0271L217.609 79.5464C217.398 79.217 217.053 78.9956 216.664 78.9469C216.275 78.8983 215.886 79.0334 215.605 79.3034C212.138 82.6518 208.39 85.7194 204.475 88.4845V12.7132C204.475 5.7031 198.772 0 191.761 0H113.295H43.2972H12.7132C5.70311 0 0 5.7031 0 12.7132V128.676C0 135.686 5.70311 141.389 12.7132 141.389H36.9406H131.036H191.767C198.777 141.389 204.48 135.686 204.48 128.676V118.361C210.82 114.91 216.059 111.405 220.088 108.418V128.671C220.088 135.681 225.791 141.384 232.801 141.384H238.38C238.283 142.329 238.402 143.296 238.758 144.268C241.588 151.926 258.962 156.241 262.597 157.068L263.547 158.288H114.591C107.581 158.288 101.878 163.991 101.878 171.001V281.332V288.957C101.878 295.967 107.581 301.67 114.591 301.67H179.907V319.325H146.012C143.555 319.325 141.557 321.323 141.557 323.781V329.343C141.557 330.062 142.14 330.645 142.858 330.645H253.426C254.145 330.645 254.728 330.062 254.728 329.343V323.781C254.728 321.323 252.73 319.325 250.272 319.325H216.378V301.681H281.693C287.44 301.681 292.3 297.847 293.872 292.608C292.97 292.657 292.063 292.635 291.172 292.468C289.74 296.318 286.041 299.078 281.699 299.078H215.076H181.209H114.591C109.012 299.078 104.476 294.542 104.476 288.963V282.638H281.909C281.801 281.774 281.78 280.905 281.872 280.035H104.476V171.012C104.476 165.433 109.012 160.897 114.591 160.897H265.562L268.386 164.537L264.725 167.302C264.184 167.707 264.049 168.463 264.406 169.035C265.038 170.04 277.524 189.617 291.803 197.259V269.861C292.668 269.753 293.537 269.736 294.407 269.823V198.512C296.637 199.452 298.895 200.068 301.141 200.235C301.751 200.284 302.373 200.305 302.994 200.305C315.502 200.305 329.835 191.194 337.131 185.88H392.683V191.265C392.683 193.63 394.605 195.553 396.971 195.553H432.999C435.364 195.553 437.287 193.63 437.287 191.265V174.182C436.379 174.063 435.51 173.842 434.684 173.529ZM182.505 301.681H213.769V319.336H182.505V301.681ZM215.076 321.934H250.272C251.293 321.934 252.125 322.765 252.125 323.786V328.047H144.155V323.786C144.155 322.765 144.986 321.934 146.007 321.934H181.203H215.076ZM312.612 12.7132C312.612 7.13428 317.149 2.59772 322.728 2.59772H409.862C415.441 2.59772 419.977 7.13428 419.977 12.7132V162.911H419.897C406.632 126.311 387.303 121.645 382.07 121.04V115.439C386.288 113.23 390.144 110.26 393.455 106.642C394.265 107.252 395.161 107.727 396.144 108.035C397.041 108.321 397.964 108.462 398.882 108.462C400.308 108.462 401.729 108.121 403.03 107.441C405.169 106.328 406.751 104.454 407.475 102.154C408.101 100.172 408.031 98.0707 407.281 96.1535C407.61 95.7592 407.945 95.3758 408.258 94.9707C413.394 88.3225 416.219 79.9569 416.219 71.413C416.219 60.7791 411.871 50.6096 404.289 43.47C403.894 42.6653 403.468 41.8444 403.009 41.0289C398.666 33.3275 392.288 27.1708 384.549 23.2283C378.554 20.1715 372.138 18.6269 365.485 18.6269C341.506 18.6269 322.004 38.9388 322.004 63.9007C322.004 65.2239 322.074 66.6064 322.231 68.2644L322.247 68.4264C322.312 69.1177 322.382 69.8036 322.474 70.4841C322.171 72.6066 322.009 74.7614 322.009 76.9109C322.009 99.8907 339.356 118.728 361.132 119.992V122.957C358.372 124.005 349.931 127.683 346.102 134.752C340.291 145.483 323.981 171.212 312.628 173.118V12.7132H312.612ZM363.438 117.448C342.019 117.448 324.596 99.2589 324.596 76.9001C324.596 74.8316 324.748 72.7524 325.05 70.7163C328.08 72.6012 331.552 74.0972 335.349 75.1665C334.442 77.7264 332.816 83.4835 334.004 89.2946C334.128 89.9103 334.674 90.337 335.279 90.337C335.365 90.337 335.452 90.3261 335.538 90.3099C336.24 90.1641 336.694 89.4782 336.553 88.7762C335.462 83.4349 337.12 77.9424 337.893 75.7984C342.04 76.7381 346.469 77.2457 351.038 77.2457C354.986 77.2457 359.015 76.8785 363.017 76.1602C361.51 79.1954 359.382 84.7419 359.382 91.9409C359.382 92.6592 359.965 93.2425 360.684 93.2425C361.402 93.2425 361.985 92.6592 361.985 91.9409C361.985 83.2405 365.415 77.0243 366.37 75.4581C368.882 74.8694 371.371 74.1512 373.802 73.2708C374.682 72.9522 375.255 72.7686 375.708 72.6228C376.567 72.3473 377.048 72.1799 377.96 71.7047C378.22 72.2177 378.473 72.7038 378.727 73.1574C383.696 82.1009 391.327 89.192 400.227 93.1291C400.297 93.1615 400.368 93.1831 400.438 93.1993C400.443 93.1993 400.562 93.2317 400.562 93.2317C400.648 93.2533 400.735 93.2695 400.816 93.2965C401.232 93.4261 401.626 93.599 401.999 93.8042C403.117 94.4199 404.018 95.3596 404.607 96.5261C405.369 98.0383 405.509 99.7503 404.996 101.36C404.478 102.996 403.354 104.33 401.831 105.124C400.308 105.918 398.569 106.064 396.933 105.545C395.972 105.243 395.113 104.724 394.389 104.017C394.384 104.017 394.303 103.936 394.276 103.914L394.27 103.909C394.254 103.893 394.238 103.887 394.222 103.876C394.206 103.86 394.2 103.839 394.184 103.828C394.13 103.785 394.065 103.768 394.011 103.731C393.989 103.72 393.973 103.709 393.952 103.698C393.898 103.671 393.854 103.633 393.795 103.612C393.79 103.612 393.79 103.606 393.784 103.606C393.703 103.579 393.628 103.569 393.541 103.558C393.471 103.547 393.401 103.525 393.331 103.525C393.32 103.525 393.309 103.52 393.304 103.52C393.293 103.52 393.282 103.525 393.271 103.525C393.196 103.531 393.131 103.558 393.055 103.574C392.98 103.59 392.904 103.601 392.828 103.633C392.812 103.639 392.791 103.644 392.769 103.65C392.704 103.682 392.656 103.736 392.596 103.779C392.542 103.817 392.483 103.833 392.439 103.882C392.423 103.898 392.418 103.92 392.402 103.936C392.385 103.952 392.364 103.957 392.348 103.979L392.094 104.281C388.735 108.111 384.722 111.184 380.326 113.398C380.266 113.419 380.212 113.452 380.158 113.479C374.974 116.055 369.271 117.448 363.438 117.448ZM379.462 116.671V123.859C379.462 128.201 375.93 131.733 371.588 131.733C367.245 131.733 363.713 128.201 363.713 123.859V120.046C369.168 120.003 374.515 118.831 379.462 116.671ZM399.979 43.1729C399.838 43.5726 399.709 43.9722 399.558 44.3665C399.342 44.9227 399.099 45.4736 398.855 46.0245C398.693 46.3917 398.548 46.7644 398.38 47.1316C398.094 47.7419 397.775 48.336 397.462 48.9354C397.305 49.2325 397.165 49.5403 396.998 49.8373C396.501 50.7285 395.977 51.6088 395.415 52.4729C391.127 59.0941 385.062 64.7324 377.874 68.7829C376.194 69.728 375.892 69.8252 374.898 70.1439C374.428 70.2951 373.823 70.4895 372.9 70.8243C355.953 76.9865 336.192 75.6201 324.845 67.5083L324.753 67.4381C324.645 66.115 324.591 64.9754 324.591 63.8953C324.591 40.3646 342.932 21.2246 365.474 21.2246C371.712 21.2246 377.733 22.6774 383.356 25.5452C390.468 29.169 396.36 34.7857 400.443 41.8066C400.297 42.2656 400.141 42.7193 399.979 43.1729ZM400.551 48.5898C400.686 48.3144 400.816 48.0335 400.946 47.7581C401.302 46.975 401.637 46.1865 401.945 45.3926C401.993 45.2738 402.042 45.155 402.09 45.0362C402.101 45.0092 402.112 44.9822 402.123 44.9605C402.182 45.0524 402.253 45.1334 402.328 45.2036C409.495 51.8572 413.61 61.411 413.61 71.4076C413.61 79.4924 411.045 87.0912 406.19 93.3775C406.092 93.5071 405.99 93.6314 405.887 93.761C405.86 93.7286 405.833 93.707 405.806 93.6746C405.585 93.4099 405.353 93.1561 405.104 92.9185C405.034 92.8483 404.958 92.7781 404.883 92.7132C404.596 92.454 404.299 92.211 403.981 91.9949C403.954 91.9734 403.921 91.9572 403.894 91.9409C403.597 91.7411 403.284 91.5629 402.965 91.4009C402.874 91.3523 402.782 91.3091 402.69 91.2659C402.333 91.0984 401.966 90.9472 401.588 90.823C401.523 90.8014 401.459 90.7852 401.383 90.7636C401.345 90.7528 401.291 90.742 401.243 90.7258C401.216 90.7204 401.189 90.715 401.156 90.7042C392.818 86.9831 385.656 80.3079 380.985 71.8937C380.731 71.44 380.477 70.9594 380.212 70.4355C380.52 70.2519 380.817 70.052 381.12 69.863C381.53 69.6092 381.946 69.3554 382.346 69.0907C382.826 68.7721 383.302 68.4426 383.771 68.1132C384.16 67.8432 384.544 67.5731 384.922 67.2923C385.392 66.9413 385.851 66.5794 386.304 66.2176C386.666 65.9313 387.028 65.6505 387.379 65.3589C387.833 64.9754 388.276 64.5812 388.718 64.1869C389.048 63.8899 389.388 63.5982 389.712 63.2958C390.155 62.88 390.582 62.4479 391.008 62.0159C391.305 61.7134 391.613 61.4164 391.905 61.1085C392.342 60.6495 392.753 60.1688 393.174 59.6936C393.433 59.3965 393.703 59.1103 393.957 58.8079C394.405 58.2732 394.832 57.7169 395.253 57.1661C395.453 56.9068 395.664 56.6584 395.853 56.3992C396.458 55.5783 397.041 54.7412 397.592 53.8933C398.137 53.0454 398.65 52.1866 399.136 51.3171C399.282 51.0579 399.417 50.7933 399.563 50.534C399.914 49.886 400.243 49.2433 400.551 48.5898ZM222.686 54.8276V12.7132C222.686 7.13428 227.222 2.59772 232.801 2.59772H281.693C287.272 2.59772 291.809 7.13428 291.809 12.7132V54.833C291.809 60.4119 287.272 64.9484 281.693 64.9484H249.165C249.424 64.484 249.673 64.0087 249.894 63.5334C250.521 62.2049 250.953 60.6441 251.077 59.1643H277.346C281.645 59.1643 285.139 55.6701 285.139 51.3711V16.175C285.139 11.8761 281.639 8.38183 277.346 8.38183H237.133C232.834 8.38183 229.339 11.8761 229.339 16.175V51.3657C229.339 55.6647 232.839 59.1589 237.133 59.1589H239.968C238.029 60.8547 235.847 62.8476 233.595 64.943H232.79C227.222 64.943 222.686 60.4065 222.686 54.8276ZM246.854 53.9635C246.206 54.1255 244.845 55.0868 243.035 56.5558H237.133C234.27 56.5558 231.937 54.2227 231.937 51.3603V48.5196V43.848V16.175C231.937 13.3126 234.265 10.9796 237.133 10.9796H277.346C280.208 10.9796 282.541 13.3126 282.541 16.175V20.96V23.5847V51.3657C282.541 54.2281 280.214 56.5612 277.346 56.5612H250.91C250.753 55.9455 250.51 55.3892 250.143 54.941C249.36 53.9797 248.188 53.634 246.854 53.9635ZM235.026 67.1789C235.037 67.1681 235.053 67.1573 235.064 67.1411C238.774 63.6739 242.009 60.7521 244.283 58.8403C244.321 58.8079 244.364 58.7809 244.402 58.7377C245.941 57.4523 247.027 56.6422 247.486 56.4802C247.955 56.3668 248.069 56.5018 248.139 56.5828C248.706 57.2741 248.76 59.8286 247.545 62.4101C245.871 65.9637 242.787 69.5768 242.755 69.6146C242.452 69.9656 242.36 70.4463 242.512 70.8838C242.555 71.0134 246.794 83.6995 238.196 87.8526C231.667 91.0012 228.783 90.7204 226.871 90.5368C226.094 90.4612 225.354 90.4072 224.598 90.6124L219.332 82.263C224.635 77.0513 230.22 71.6722 235.026 67.1789ZM191.761 2.59772C197.34 2.59772 201.877 7.13428 201.877 12.7132V90.2721C174.485 108.202 144.279 106.463 127.261 103.331C131.42 98.573 133.175 92.2434 131.971 85.9408C131.922 85.6978 131.868 85.4601 131.809 85.2279C134.882 80.4591 136.27 74.9721 135.816 69.3122C135.659 67.3463 135.271 65.4021 134.66 63.5064C138.576 60.0446 140.65 54.9626 140.228 49.7239C139.904 45.6734 138.144 41.9416 135.238 39.1278C136.507 35.4176 137.101 31.2969 136.966 27.1492C136.739 20.4145 134.671 14.1281 131.139 9.45117C128.358 5.77331 124.928 3.43482 121.24 2.59772H191.761ZM43.848 2.59772H112.777C113.49 3.2836 114.121 3.96409 114.705 4.66078C115.013 5.02802 115.499 5.19544 115.969 5.09823C116.676 4.94701 117.275 4.8714 117.848 4.8498C121.979 4.73638 125.949 6.90205 129.06 11.0228C132.273 15.2785 134.158 21.0356 134.363 27.2356C134.504 31.3563 133.861 35.4392 132.505 39.0414C132.316 39.5491 132.457 40.1216 132.867 40.478C135.649 42.9029 137.344 46.2621 137.636 49.9292C138.009 54.6115 136.027 59.1427 132.333 62.0591C131.895 62.4047 131.722 62.9988 131.917 63.5226C132.619 65.4669 133.062 67.4813 133.224 69.5174C133.645 74.7776 132.295 79.8813 129.33 84.2666C129.119 84.5744 129.054 84.9579 129.146 85.3197L129.216 85.5898C129.292 85.8706 129.362 86.146 129.422 86.4323C130.567 92.4378 128.638 98.4866 124.253 102.737C124.172 102.721 124.086 102.699 124.005 102.683C123.529 102.58 123.065 102.478 122.611 102.375C122.487 102.348 122.363 102.321 122.239 102.294C121.121 102.04 120.073 101.781 119.106 101.533C118.982 101.5 118.863 101.468 118.739 101.435C118.388 101.344 118.042 101.252 117.713 101.16C117.583 101.127 117.459 101.09 117.335 101.057C117.005 100.965 116.687 100.874 116.379 100.787C116.293 100.76 116.195 100.733 116.109 100.712C115.731 100.604 115.369 100.496 115.034 100.393C114.959 100.371 114.888 100.35 114.813 100.323C114.559 100.247 114.316 100.172 114.089 100.096C113.981 100.064 113.878 100.031 113.776 99.9933C113.603 99.9393 113.441 99.8853 113.284 99.8367C113.225 99.8151 113.166 99.7989 113.106 99.7773C113.992 98.5838 114.824 97.3146 115.585 95.9914C119.144 89.7861 121.358 82.0199 122.158 72.9036C122.331 70.927 122.433 68.7235 122.471 66.1744C122.525 62.5505 122.406 58.8835 122.12 55.2758L122.077 54.8546C121.985 53.796 121.871 52.7429 121.736 51.7006C121.645 50.9931 121.002 50.4908 120.289 50.5718L120.014 50.6096C119.803 50.6367 119.598 50.6691 119.382 50.6745C115.958 50.7825 112.663 49.3027 109.823 46.3971L109.725 46.2999L109.585 46.1649C105.551 41.8984 103.104 35.3852 102.867 28.2941V27.7972C102.856 27.2248 102.478 26.7279 101.927 26.5713C101.381 26.4147 100.793 26.6307 100.479 27.1059C97.3092 31.9287 93.3991 36.5895 88.8518 40.9641C86.3513 43.3728 83.6833 45.668 80.929 47.7851L80.4538 48.1415C79.46 48.8976 78.4555 49.6267 77.4456 50.3288C74.8749 52.1272 72.2609 53.769 69.6794 55.2164C64.781 57.9546 59.753 60.1418 54.725 61.7134C50.3774 63.069 46.1595 63.9169 42.1792 64.2301C41.947 64.1977 41.7202 64.1761 41.4879 64.1599C41.1963 64.1383 40.9155 64.1221 40.64 64.1221C34.0836 64.1221 28.7478 69.458 28.7478 76.0144C28.7478 82.5708 34.0836 87.9067 40.64 87.9067C41.0397 87.9067 41.4339 87.8797 41.8282 87.8419C41.974 87.8256 42.1144 87.8094 42.2548 87.7878C42.4979 87.7554 42.7355 87.7122 42.9731 87.6636C43.1459 87.6312 43.3242 87.5988 43.4916 87.5556C43.7184 87.5016 43.9398 87.4314 44.1613 87.3612C44.2585 87.3342 44.3557 87.3072 44.4475 87.2748C46.2405 90.9364 48.3576 94.3604 50.7609 97.4712L51.0471 97.8547C51.1983 98.0653 51.3549 98.2705 51.517 98.4704C53.2722 100.641 55.184 102.65 57.2147 104.449C56.7394 104.886 56.302 105.318 55.8429 105.756C55.4054 106.172 54.9572 106.588 54.5305 107.009C53.8663 107.657 53.2344 108.31 52.6025 108.958C52.2353 109.336 51.8572 109.715 51.5008 110.093C50.7555 110.881 50.0534 111.67 49.3621 112.458C49.1515 112.696 48.9246 112.933 48.7248 113.171C47.8445 114.192 47.0074 115.218 46.2081 116.233C45.9867 116.519 45.7869 116.8 45.5708 117.086C45.0092 117.826 44.4583 118.561 43.9398 119.301C43.6698 119.684 43.4268 120.073 43.1675 120.456C42.7409 121.088 42.3196 121.726 41.9308 122.358C41.6715 122.773 41.4339 123.195 41.1909 123.61C40.8398 124.21 40.4942 124.804 40.1756 125.403C39.9433 125.836 39.7273 126.268 39.5113 126.7C39.3385 127.045 39.144 127.391 38.982 127.731C34.359 124.939 30.9188 120.645 29.223 115.515C29.0772 115.077 28.71 114.748 28.2563 114.651C19.8205 112.858 13.6961 105.291 13.6961 96.6611C13.6961 91.8815 15.5323 87.345 18.8699 83.8886C19.3668 83.3755 19.356 82.5546 18.8429 82.0523C13.3937 76.7489 10.2667 68.7343 10.2667 60.0554C10.2667 49.2271 15.3001 39.3223 23.0825 34.8289C23.6549 34.4995 23.8872 33.792 23.6279 33.1871C22.6342 30.881 22.1319 28.4399 22.1319 25.9232C22.1319 16.1696 29.7685 8.1064 39.5167 7.57173C39.9487 7.55013 40.3376 7.3125 40.559 6.94526C41.4933 5.37366 42.6005 3.92088 43.848 2.59772ZM84.1316 111.724C80.9344 111.983 77.6886 111.713 74.4968 110.93C69.3932 109.682 64.5164 107.155 60.0176 103.412H60.0122C57.6953 101.484 55.5189 99.2697 53.5422 96.8286C53.4072 96.6557 53.2722 96.4829 53.1426 96.3047L52.8239 95.878C50.426 92.7727 48.336 89.3324 46.5754 85.66C46.6024 85.4223 46.5862 85.1793 46.4727 84.9525C46.1541 84.3098 45.3764 84.0452 44.7337 84.3584C44.6797 84.3854 44.6203 84.407 44.5609 84.4286C44.5555 84.4286 44.5555 84.4286 44.5501 84.4286C43.6212 84.8607 42.6491 85.1361 41.6553 85.2441C41.3205 85.2819 40.9803 85.3035 40.64 85.3035C35.5148 85.3035 31.3509 81.1342 31.3509 76.0144C31.3509 70.8946 35.5202 66.7252 40.64 66.7252C40.8614 66.7252 41.0775 66.7414 41.2989 66.7576C41.5041 66.7738 41.7202 66.8008 41.9578 66.8333C41.9632 66.8333 41.974 66.8333 41.9794 66.8333C43.7832 67.0925 45.4736 67.8702 46.8454 69.1015C47.3801 69.5822 48.201 69.5336 48.6816 69.0043C49.1623 68.4697 49.1191 67.6488 48.5844 67.1681C48.1794 66.8063 47.7473 66.4822 47.3045 66.1798C49.9778 65.7153 52.7105 65.0726 55.5027 64.2031C60.7035 62.5775 65.9044 60.3255 70.954 57.4955C73.6165 56.0049 76.3006 54.3145 78.9416 52.4675C79.9785 51.7438 81.0046 50.9985 82.0253 50.2208L82.5168 49.8536C85.3467 47.6771 88.0903 45.317 90.661 42.8435C94.3767 39.2682 97.6819 35.504 100.523 31.6155C101.327 38.0693 103.866 43.902 107.7 47.9579L107.949 48.2064C111.286 51.6196 115.202 53.391 119.306 53.2938C119.371 53.8879 119.436 54.4873 119.484 55.0922L119.528 55.5027C119.808 59.0239 119.922 62.6045 119.868 66.1474C119.83 68.6317 119.727 70.7703 119.56 72.6876C118.793 81.4258 116.692 88.8356 113.322 94.7061C112.318 96.4613 111.184 98.1031 109.952 99.5883C107.83 102.148 105.345 104.335 102.559 106.091C97.5253 109.25 91.3253 111.146 84.1316 111.724ZM96.9636 111.664C95.9915 115.942 93.5774 122.471 89.2136 122.52C89.192 122.52 89.1704 122.52 89.1434 122.52C84.4826 122.52 80.524 117.319 78.5797 114.246C80.497 114.435 82.4196 114.467 84.3314 114.316C88.9328 113.949 93.1507 113.052 96.9636 111.664ZM35.6768 138.792H12.7078C7.12889 138.792 2.59232 134.255 2.59232 128.676V12.7132C2.59232 7.13428 7.12889 2.59772 12.7078 2.59772H40.4024C39.7867 3.37001 39.2142 4.16931 38.685 5.00102C27.8836 5.94073 19.5234 14.9923 19.5234 25.8962C19.5234 28.3859 19.9555 30.8162 20.8142 33.1385C12.7888 38.3231 7.65815 48.7356 7.65815 60.0284C7.65815 68.9287 10.7365 77.2187 16.1372 82.992C12.8698 86.7995 11.0876 91.5953 11.0876 96.6341C11.0876 106.237 17.7304 114.689 26.9871 117.005C28.9908 122.525 32.8415 127.099 37.9289 130.086C36.2871 134.158 35.8064 137.161 35.6768 138.792ZM201.877 128.676C201.877 134.255 197.34 138.792 191.761 138.792H132.073C131.485 135.94 131.593 133.823 131.76 132.657C161.275 136.453 185.853 128.012 201.877 119.749V128.676ZM202.563 116.449C186.75 124.939 161.485 134.169 130.918 129.918C130.307 129.832 129.708 130.199 129.508 130.793C129.465 130.928 128.503 133.866 129.422 138.792H38.2907C38.442 137.22 38.9658 134.19 40.7696 130.059C41.2017 129.071 41.6824 128.077 42.2008 127.078C42.379 126.732 42.5951 126.386 42.7841 126.041C43.1459 125.387 43.497 124.734 43.8966 124.08C44.1613 123.643 44.4637 123.211 44.7445 122.773C45.1118 122.206 45.4682 121.639 45.8625 121.067C46.1973 120.586 46.5646 120.1 46.921 119.619C47.3044 119.096 47.6771 118.566 48.0875 118.042C48.4872 117.529 48.9192 117.016 49.3351 116.503C49.7455 116.001 50.1452 115.499 50.5718 114.996C51.0201 114.473 51.5008 113.949 51.9706 113.43C52.4189 112.933 52.8563 112.431 53.3262 111.934C53.8014 111.427 54.3091 110.919 54.8114 110.411C55.3244 109.887 55.8321 109.363 56.3668 108.84C56.8366 108.381 57.3335 107.916 57.8249 107.457C58.2894 107.02 58.7593 106.577 59.2399 106.139C63.8035 109.742 68.7181 112.204 73.8757 113.463C74.3402 113.576 74.8046 113.652 75.2691 113.743C76.5437 116.109 81.8687 125.123 89.1488 125.123C89.1812 125.123 89.2136 125.123 89.246 125.123C96.8286 125.036 99.3237 113.527 99.8475 110.487C101.279 109.828 102.645 109.099 103.941 108.283C106.701 106.544 109.191 104.416 111.356 101.943C111.373 101.948 111.4 101.959 111.416 101.965C111.626 102.04 111.859 102.121 112.139 102.213C112.177 102.224 112.22 102.24 112.264 102.251C112.512 102.332 112.793 102.424 113.095 102.521C113.171 102.548 113.247 102.569 113.328 102.596C113.679 102.704 114.051 102.823 114.462 102.948C114.543 102.975 114.629 102.996 114.716 103.023C115.088 103.137 115.482 103.25 115.904 103.369C115.996 103.396 116.082 103.417 116.174 103.444C116.654 103.579 117.167 103.72 117.708 103.866C117.826 103.898 117.945 103.93 118.064 103.957C118.577 104.092 119.112 104.227 119.668 104.368C119.738 104.384 119.803 104.4 119.879 104.422C120.489 104.573 121.132 104.719 121.79 104.87C121.942 104.903 122.093 104.94 122.25 104.973C122.941 105.129 123.643 105.281 124.388 105.432C141.362 108.91 174.269 111.805 203.908 92.0706C208.261 89.1704 212.414 85.8868 216.27 82.2846L227.033 99.3507C224.522 101.668 215.848 109.315 202.563 116.449ZM240.34 137.35C239.908 137.814 239.557 138.295 239.266 138.786H232.796C227.217 138.786 222.68 134.25 222.68 128.671V106.442C227.028 103.034 229.415 100.658 229.604 100.463C230.031 100.037 230.106 99.3669 229.782 98.8538L226.153 93.0967C226.293 93.1075 226.439 93.1237 226.612 93.1399C227.157 93.1939 227.8 93.2587 228.578 93.2587C230.76 93.2587 234.027 92.7673 239.32 90.2127C245.088 87.426 246.438 81.5555 246.168 76.4464H281.688C287.267 76.4464 291.803 80.983 291.803 86.5619V128.682C291.803 134.261 287.267 138.797 281.688 138.797H276.196C275.369 135.568 274.014 132.505 271.799 131.161C271.297 130.712 269.601 129.389 267.938 130.14C266.388 130.847 265.961 132.856 265.896 134.828C262.073 132.046 257.38 131.765 256.402 131.738C253.259 131.02 244.348 133.024 240.34 137.35ZM264.363 155.107C264.174 154.864 263.909 154.697 263.612 154.632C258.092 153.438 243.311 149.085 241.194 143.371C240.638 141.87 240.983 140.477 242.247 139.116C245.595 135.497 253.842 133.704 255.873 134.282C255.986 134.315 256.11 134.331 256.224 134.331C256.289 134.331 262.532 134.412 266.015 138.446C266.388 145.553 266.291 146.434 265.373 148.243C265.049 148.886 265.302 149.669 265.945 149.993C266.588 150.317 267.365 150.058 267.695 149.42C269.034 146.769 268.996 145.262 268.521 136.61C268.327 133.105 269.002 132.505 268.991 132.5C269.175 132.462 269.731 132.77 270.109 133.126C270.19 133.202 270.276 133.272 270.374 133.326C273.522 135.114 274.818 143.976 274.894 149.15C274.899 149.453 275.007 149.744 275.207 149.977L280.095 155.696L270.455 162.965L264.363 155.107ZM392.683 167.194V183.277H340.561C341.328 182.672 341.803 182.272 341.922 182.17C342.473 181.705 342.537 180.885 342.073 180.339C341.608 179.788 340.788 179.718 340.242 180.188C340.021 180.371 317.845 198.912 301.336 197.648C286.684 196.53 270.66 173.734 267.263 168.647L285.539 154.864C288.147 159.001 297.085 171.963 308.697 175.457C309.512 175.7 310.349 175.786 311.197 175.786C311.262 175.797 311.316 175.819 311.381 175.819C311.429 175.819 311.483 175.819 311.538 175.808C311.554 175.808 311.564 175.797 311.581 175.792C326.951 175.144 347.447 137.674 348.365 135.978C351.443 130.291 358.237 126.948 361.278 125.684C362.147 130.594 366.43 134.336 371.582 134.336C377.355 134.336 382.059 129.638 382.059 123.859V123.675C386.931 124.404 404.677 129.384 417.11 162.911H396.965C394.605 162.906 392.683 164.828 392.683 167.194Z" fill="#0D70BA"/>
<path d="M257.826 108.945L255.585 115.075L257.826 108.945Z" fill="#0D70BA"/>
<path d="M338.572 231.577C338.691 231.609 338.809 231.625 338.923 231.625C339.49 231.625 340.014 231.247 340.176 230.675C342.692 221.65 346.462 217.654 346.5 217.616C346.997 217.103 346.986 216.282 346.473 215.78C345.96 215.277 345.134 215.288 344.631 215.807C344.458 215.985 340.386 220.251 337.67 229.978C337.475 230.664 337.88 231.382 338.572 231.577Z" fill="#0D70BA"/>
<path d="M361.812 242.48C361.931 242.512 362.044 242.529 362.163 242.529C362.73 242.529 363.254 242.15 363.416 241.578C366.111 231.927 370.14 227.655 370.183 227.612C370.68 227.099 370.669 226.278 370.156 225.776C369.643 225.273 368.817 225.284 368.314 225.803C368.131 225.992 363.799 230.528 360.91 240.881C360.716 241.567 361.121 242.285 361.812 242.48Z" fill="#0D70BA"/>
<path d="M79.3793 56.9344C78.6718 57.0586 78.1965 57.7283 78.3208 58.4358C78.3424 58.5654 80.508 71.1867 80.184 83.3058C80.1624 84.0241 80.7295 84.6182 81.4477 84.6398C81.4586 84.6398 81.4694 84.6398 81.4856 84.6398C82.1876 84.6398 82.7655 84.0781 82.7871 83.376C83.1165 70.9923 80.9077 58.1225 80.8861 57.9929C80.7619 57.2854 80.0922 56.8156 79.3793 56.9344Z" fill="#0D70BA"/>
<path d="M102.785 84.6593C103.428 84.6593 103.99 84.184 104.071 83.5251C105.615 71.5843 104.757 58.9197 104.746 58.7955C104.697 58.0772 104.065 57.5263 103.358 57.5911C102.64 57.6397 102.1 58.2608 102.154 58.9791C102.164 59.1033 103.007 71.514 101.495 83.1903C101.403 83.9032 101.905 84.5567 102.618 84.6485C102.672 84.6593 102.726 84.6593 102.785 84.6593Z" fill="#0D70BA"/>
<path d="M152.81 82.9827H186.111C190.577 82.9827 194.207 79.3481 194.207 74.8871V28.6952C194.207 24.2289 190.572 20.5996 186.111 20.5996H152.81C148.344 20.5996 144.715 24.2343 144.715 28.6952V74.8871C144.715 79.3535 148.344 82.9827 152.81 82.9827ZM147.313 28.6952C147.313 25.6654 149.781 23.1973 152.81 23.1973H186.111C189.141 23.1973 191.609 25.6654 191.609 28.6952V74.8871C191.609 77.9169 189.141 80.385 186.111 80.385H152.81C149.781 80.385 147.313 77.9223 147.313 74.8871V28.6952Z" fill="#0D70BA"/>
<path d="M73.5571 158.297H12.7132C5.70311 158.297 0 164 0 171.01V288.966C0 292.039 1.09634 294.864 2.92176 297.067C2.94337 297.089 2.96497 297.11 2.98117 297.132C5.31426 299.908 8.80849 301.679 12.7132 301.679H73.5571C80.5672 301.679 86.2703 295.976 86.2703 288.966V171.01C86.2703 164 80.5672 158.297 73.5571 158.297ZM73.5571 299.076H12.7132C9.79681 299.076 7.17749 297.828 5.33046 295.852C7.2099 281.07 18.3083 268.827 32.9225 264.636V265.171C32.9225 271.997 38.4744 277.544 45.2954 277.544C52.0354 277.544 57.5279 272.121 57.6575 265.414C70.4085 269.945 80.0217 280.665 82.4898 293.697C80.7886 296.894 77.424 299.076 73.5571 299.076ZM15.2407 233.928C13.5665 233.269 12.3459 232.291 11.5952 231.001C10.3585 228.873 10.6609 226.361 10.8932 225.222C13.2262 224.325 15.7375 221.685 17.4928 219.535C17.833 220.696 18.2003 221.312 18.2381 221.377C18.4757 221.755 18.8915 221.987 19.3398 221.987C19.3506 221.987 19.356 221.987 19.3668 221.987C26.0096 221.857 31.3833 216.44 33.8892 213.394C34.224 214.08 34.5211 214.502 34.5589 214.561C34.7911 214.885 35.1637 215.079 35.558 215.096C35.9576 215.112 36.3519 215.117 36.7353 215.117C46.678 215.117 52.3703 210.068 55.373 205.904C56.5936 208.458 58.9105 212.26 62.2265 213.222C62.3453 213.254 62.4641 213.27 62.5883 213.27C62.8152 213.27 63.042 213.211 63.2418 213.092C63.474 212.957 64.4462 212.363 65.4885 211.445C66.6496 214.907 69.4634 221.436 74.9721 224.579C75.1773 224.698 75.3987 224.752 75.6147 224.752C75.7228 224.752 75.8254 224.736 75.928 224.709C75.9712 224.714 76.0036 224.741 76.0468 224.747C76.09 224.752 76.1278 224.752 76.171 224.752C76.7759 224.752 77.2782 224.325 77.4132 223.742C77.7372 224.984 77.8074 226.642 77.2187 228.813C76.2304 232.47 74.189 233.766 72.7686 234.219C73.2276 231.476 73.4815 228.587 73.4815 225.551C73.4815 224.833 72.8982 224.25 72.1799 224.25C71.4616 224.25 70.8784 224.833 70.8784 225.551C70.8784 242.207 63.3606 254.591 51.2523 257.869C50.6853 258.02 50.291 258.533 50.291 259.122V266.456C50.291 269.059 48.174 271.176 45.5708 271.176C42.9677 271.176 40.8506 269.059 40.8506 266.456V259.792C40.8506 259.138 40.37 258.587 39.7219 258.501C28.1537 256.951 20.5873 248.763 18.13 235.591C18.1246 235.537 18.1138 235.489 18.0976 235.435C17.5414 232.394 17.2551 229.094 17.2551 225.546C17.2551 224.828 16.6719 224.244 15.9536 224.244C15.2353 224.244 14.652 224.828 14.652 225.546C14.6628 228.516 14.8734 231.298 15.2407 233.928ZM9.42417 214.431C9.22435 214.34 9.01912 214.318 8.81929 214.329C8.30083 208.485 9.46197 203.311 12.3513 198.915C19.1022 188.654 32.9981 185.883 33.1385 185.856C33.3221 185.824 33.5003 185.743 33.6516 185.64C33.711 185.597 39.6895 181.541 54.4981 182.584C60.8817 183.037 65.6343 185.203 69.0259 189.199C73.9837 195.048 76.0144 204.753 75.2205 218.741C75.1773 218.79 75.1233 218.828 75.0855 218.882C74.7938 219.341 74.8316 219.913 75.1287 220.329C75.1017 220.712 75.0639 221.112 75.0315 221.506C70.2465 217.931 68.0538 211.105 67.5083 209.15C68.1348 208.161 68.5561 207.032 68.4805 205.807C68.4373 205.088 67.8054 204.543 67.1033 204.586C66.385 204.629 65.8395 205.245 65.8827 205.963C65.9854 207.724 63.7225 209.646 62.4263 210.532C59.888 209.371 57.852 205.293 57.0419 203.23C57.8952 201.637 58.2516 200.525 58.2624 200.487C58.473 199.801 58.0842 199.072 57.3983 198.861C56.7124 198.651 55.9833 199.034 55.7727 199.725C55.7349 199.855 51.679 212.525 36.7137 212.525C36.5895 212.525 36.4653 212.525 36.3411 212.525C36.0981 212.077 35.7794 211.364 35.585 210.467C35.5796 210.435 35.5742 210.408 35.5688 210.375C35.2718 208.896 35.3366 206.946 36.6867 204.888C37.081 204.289 36.9136 203.479 36.3141 203.09C35.7146 202.696 34.9099 202.863 34.5157 203.463C32.8415 206.017 32.6308 208.447 32.9279 210.381C31.6587 212.12 26.4849 218.676 20.1445 219.341C19.707 218.136 19.0374 215.317 20.0203 210.813C20.1715 210.111 19.7286 209.42 19.0266 209.263C18.3245 209.112 17.6332 209.555 17.4766 210.257C16.9851 212.514 16.8609 214.426 16.9257 215.998C14.4144 219.449 11.4224 222.343 9.89403 222.878C9.53218 221.096 9.17574 218.039 10.0452 216.16C10.3585 215.506 10.0777 214.734 9.42417 214.431ZM38.2529 266.467C38.2529 270.507 41.5365 273.79 45.5762 273.79C49.6159 273.79 52.8995 270.507 52.8995 266.467V264.053C53.6286 264.22 54.3523 264.398 55.0652 264.604V265.176C55.0652 270.566 50.6799 274.951 45.29 274.951C39.9001 274.951 35.5148 270.566 35.5148 265.176V264.01C36.4167 263.815 37.3294 263.653 38.2529 263.513V266.467ZM83.6725 287.999C79.5734 276.004 69.674 266.478 57.1499 262.503C56.9284 262.335 56.6692 262.216 56.3722 262.216C56.3344 262.216 56.302 262.233 56.2696 262.238C55.1678 261.914 54.0445 261.633 52.9103 261.39V260.099C62.6639 257.059 69.539 248.628 72.2285 237.006C74.6534 236.688 78.2827 234.895 79.7409 229.488C81.2854 223.764 79.1414 220.594 77.7966 219.249C78.6877 204.354 76.4626 193.941 71.0134 187.509C67.2005 183.01 61.708 180.477 54.6872 179.981C40.3538 178.954 33.7488 182.503 32.3986 183.345C30.3139 183.788 17.1147 186.953 10.1965 197.457C6.20537 203.511 5.10903 210.824 6.92906 219.184C6.91286 221.884 7.58794 224.358 7.63115 224.514C7.72296 224.849 7.94979 225.119 8.24142 225.287C7.98219 226.945 7.87418 229.737 9.33776 232.27C10.6069 234.468 12.7618 235.985 15.7321 236.801C18.4325 250.243 26.2418 258.787 38.1233 260.872C20.744 263.264 6.69683 276.129 3.24581 292.471C2.83536 291.369 2.59773 290.187 2.59773 288.944V171.01C2.59773 165.431 7.13429 160.895 12.7132 160.895H73.5571C79.136 160.895 83.6725 165.431 83.6725 171.01V287.999Z" fill="#0D70BA"/>
<path d="M409.86 202.787H378.293H378.283H336.103H336.093H336.076H322.726C315.716 202.787 310.013 208.49 310.013 215.5V288.966C310.013 295.976 315.716 301.679 322.726 301.679H328.364H341.083H402.926H409.855C416.865 301.679 422.568 295.976 422.568 288.966V215.5C422.573 208.49 416.87 202.787 409.86 202.787ZM336.67 205.385H375.825C374.151 208.047 373.244 211.126 373.244 214.296C373.244 221.187 377.451 227.301 383.705 229.85C381.68 232.215 380.551 235.234 380.551 238.399C380.551 245.658 386.459 251.566 393.718 251.566C395.662 251.566 397.585 251.134 399.334 250.302C402.44 253.024 403.207 257.977 401.068 262.178C398.557 267.12 392.962 269.334 388.592 267.109C387.528 266.569 386.61 265.802 385.87 264.83C385.654 264.549 385.33 264.366 384.979 264.328C384.623 264.285 384.272 264.398 383.996 264.625C382.052 266.267 379.957 267.714 377.769 268.924C377.143 269.269 376.916 270.063 377.262 270.69C377.499 271.116 377.942 271.359 378.401 271.359C378.617 271.359 378.828 271.305 379.033 271.197C379.238 271.084 379.433 270.949 379.633 270.83V277.948L365.785 290.008L362.496 284.753L362.95 275.982C363.857 275.923 364.77 275.837 365.677 275.707C366.39 275.61 366.887 274.951 366.785 274.238C366.687 273.525 366.018 273.028 365.316 273.131C361.168 273.709 357.004 273.53 352.926 272.58C351.922 272.348 350.89 272.051 349.772 271.678C347.239 270.825 344.809 269.68 342.563 268.27C340.073 266.709 337.772 264.825 335.72 262.659C332.809 259.591 330.433 256.016 328.645 252.036C324.946 243.794 324.071 234.23 326.188 225.108C327.921 217.623 331.551 210.818 336.67 205.385ZM380.783 280.4C381.55 281.459 382.592 283.322 382.463 285.482C382.328 287.686 380.988 289.781 378.477 291.714C373.292 295.706 369.193 293.459 367.427 292.039L376.144 284.445L380.783 280.4ZM363.793 291.731C362.648 292.622 360.936 293.637 359.823 293.41C359.639 293.372 359.089 293.254 358.64 292.163C357.528 289.441 358.575 286.6 359.499 284.877L363.793 291.731ZM322.726 299.076C317.147 299.076 312.61 294.539 312.61 288.96V215.5C312.61 209.921 317.147 205.385 322.726 205.385H333.171C328.575 210.829 325.302 217.385 323.649 224.525C321.484 233.857 322.283 243.632 325.874 252.176C323.093 254.526 321.446 257.987 321.446 261.649C321.446 263.744 321.97 265.78 322.963 267.601C320.096 270.69 318.53 274.665 318.53 278.899C318.53 284.229 321.057 289.187 325.334 292.325C325.226 292.978 325.172 293.626 325.172 294.264C325.172 295.938 325.54 297.558 326.193 299.07H322.726V299.076ZM340.17 299.076H329.109C328.251 297.617 327.775 295.976 327.775 294.269C327.775 293.551 327.867 292.805 328.046 292.049C328.175 291.515 327.954 290.958 327.495 290.661C323.514 288.047 321.133 283.651 321.133 278.899C321.133 275.026 322.683 271.419 325.496 268.735C325.95 268.297 326.031 267.6 325.68 267.071C324.611 265.462 324.044 263.588 324.044 261.649C324.044 258.992 325.145 256.47 327.025 254.634C328.834 258.263 331.097 261.579 333.824 264.452C336.028 266.774 338.496 268.799 341.169 270.479C343.594 271.997 346.208 273.233 348.935 274.152C350.134 274.551 351.241 274.87 352.327 275.124C354.968 275.734 357.647 276.047 360.331 276.063L360.061 281.286C359.909 281.216 359.753 281.167 359.585 281.156C359.164 281.135 358.759 281.313 358.494 281.637C358.44 281.707 357.998 282.263 357.479 283.154C355.07 284.154 343.923 289.257 340.17 299.076ZM342.989 299.076C345.825 292.827 352.208 288.723 355.956 286.757C355.443 288.652 355.308 290.888 356.232 293.146C357.036 295.101 358.332 295.754 359.283 295.954C359.569 296.013 359.855 296.04 360.147 296.04C362.194 296.04 364.262 294.669 365.44 293.734C366.741 294.841 369.307 296.575 372.671 296.575C374.848 296.575 377.354 295.851 380.059 293.761C383.197 291.342 384.877 288.598 385.055 285.601C385.077 285.277 385.071 284.958 385.055 284.645C387.361 285.482 392.702 288.474 400.404 299.07H342.989V299.076ZM419.976 288.966C419.976 294.544 415.439 299.081 409.86 299.081H403.601C393.383 284.499 386.659 282.15 384.461 281.793C383.807 280.011 382.787 278.683 382.23 278.045V269.221C383.062 268.654 383.888 268.065 384.682 267.433C385.482 268.249 386.394 268.918 387.41 269.437C393.053 272.304 400.22 269.588 403.385 263.366C406.231 257.771 404.881 251.042 400.242 247.715C399.831 247.418 399.291 247.391 398.848 247.634C397.282 248.509 395.505 248.968 393.712 248.968C387.885 248.968 383.149 244.232 383.149 238.405C383.149 235.261 384.537 232.307 386.951 230.293C387.323 229.979 387.491 229.488 387.388 229.013C387.28 228.537 386.918 228.159 386.448 228.041C380.205 226.399 375.841 220.75 375.841 214.307C375.841 211.061 376.976 207.923 379.017 205.396H409.855C415.434 205.396 419.97 209.932 419.97 215.511V288.966H419.976Z" fill="#0D70BA"/>
<path d="M32.4003 241.31C32.4975 241.31 32.5948 241.299 32.6974 241.277C33.3995 241.115 33.8315 240.419 33.6695 239.716C32.0925 232.933 32.0709 224.314 32.0709 224.227C32.0709 223.509 31.4876 222.926 30.7693 222.926C30.051 222.926 29.4678 223.509 29.4678 224.227C29.4678 224.589 29.4894 233.225 31.1366 240.305C31.2716 240.905 31.8063 241.31 32.4003 241.31Z" fill="#0D70BA"/>
<path d="M54.6847 239.867C54.7495 239.878 54.8197 239.883 54.8845 239.883C55.5164 239.883 56.0672 239.424 56.1699 238.782C56.2239 238.42 57.5146 229.881 56.9584 222.634C56.9044 221.915 56.2995 221.386 55.5596 221.435C54.8413 221.489 54.3066 222.115 54.3606 222.828C54.8953 229.773 53.6045 238.296 53.5937 238.382C53.4911 239.095 53.9772 239.759 54.6847 239.867Z" fill="#0D70BA"/>
</svg>
