<svg width="36" height="36" viewBox="0 0 36 36" fill="none" xmlns="http://www.w3.org/2000/svg">
<path d="M34.7891 0.75H0.789062V34.75H34.7891V0.75Z" fill="#FFC700"/>
<path d="M17.7884 21.9206C21.4556 21.9206 24.4284 18.9478 24.4284 15.2806C24.4284 11.6135 21.4556 8.64062 17.7884 8.64062C14.1213 8.64062 11.1484 11.6135 11.1484 15.2806C11.1484 18.9478 14.1213 21.9206 17.7884 21.9206Z" fill="white"/>
<path d="M19.4678 24.9004H16.1078C13.4954 24.9004 10.9901 25.9382 9.14282 27.7854C7.29559 29.6326 6.25781 32.138 6.25781 34.7504H29.3178C29.3178 32.138 28.28 29.6326 26.4328 27.7854C24.5856 25.9382 22.0802 24.9004 19.4678 24.9004V24.9004Z" fill="white"/>
<path d="M0 0V35.5H35.5V0H0ZM7 34C7.19047 31.7248 8.22831 29.6041 9.90802 28.0577C11.5877 26.5114 13.7869 25.652 16.07 25.65H19.43C21.7131 25.652 23.9123 26.5114 25.592 28.0577C27.2717 29.6041 28.3095 31.7248 28.5 34H7ZM34 34H30C29.8205 31.3256 28.6345 28.8185 26.6807 26.9835C24.7269 25.1484 22.1504 24.1217 19.47 24.11H16.11C13.4298 24.1132 10.8501 25.1307 8.88934 26.9579C6.92856 28.7851 5.73196 31.2867 5.53998 33.96H1.53998V1.45996H34V34Z" fill="#0D70BA"/>
<path d="M17.7884 22.6706C19.25 22.6706 20.6788 22.2372 21.8941 21.4252C23.1094 20.6132 24.0566 19.459 24.6159 18.1087C25.1752 16.7583 25.3216 15.2724 25.0364 13.8389C24.7513 12.4054 24.0474 11.0886 23.0139 10.0551C21.9804 9.02158 20.6636 8.31777 19.2301 8.03263C17.7966 7.74748 16.3107 7.89383 14.9604 8.45316C13.61 9.01249 12.4559 9.95968 11.6439 11.175C10.8318 12.3902 10.3984 13.819 10.3984 15.2806C10.4011 17.2397 11.1805 19.1179 12.5658 20.5032C13.9511 21.8885 15.8293 22.668 17.7884 22.6706V22.6706ZM17.7884 9.39066C18.9533 9.39066 20.0921 9.73607 21.0607 10.3833C22.0293 11.0305 22.7842 11.9504 23.23 13.0266C23.6758 14.1029 23.7925 15.2872 23.5652 16.4297C23.338 17.5723 22.777 18.6217 21.9532 19.4455C21.1295 20.2692 20.08 20.8302 18.9375 21.0575C17.795 21.2847 16.6107 21.1681 15.5344 20.7223C14.4582 20.2765 13.5383 19.5216 12.8911 18.5529C12.2439 17.5843 11.8984 16.4455 11.8984 15.2806C11.9011 13.7193 12.5224 12.2227 13.6265 11.1187C14.7305 10.0147 16.2271 9.3933 17.7884 9.39066V9.39066Z" fill="#0D70BA"/>
<path d="M17.7891 6.41022C17.988 6.41022 18.1788 6.3312 18.3195 6.19055C18.4601 6.0499 18.5391 5.85913 18.5391 5.66022V3.49023C18.5391 3.29132 18.4601 3.10055 18.3195 2.9599C18.1788 2.81925 17.988 2.74023 17.7891 2.74023C17.5902 2.74023 17.3994 2.81925 17.2588 2.9599C17.1181 3.10055 17.0391 3.29132 17.0391 3.49023V5.66022C17.0378 5.75908 17.0563 5.85725 17.0935 5.94885C17.1307 6.04045 17.1859 6.12363 17.2558 6.19354C17.3257 6.26346 17.409 6.31868 17.5006 6.3559C17.5922 6.39311 17.6903 6.41156 17.7891 6.41022V6.41022Z" fill="#0D70BA"/>
<path d="M25.5978 8.22064C25.7962 8.21833 25.9861 8.13955 26.1278 8.00067L27.5078 6.62066C27.6403 6.47849 27.7124 6.29043 27.709 6.09613C27.7056 5.90182 27.6269 5.71645 27.4894 5.57904C27.352 5.44162 27.1667 5.36292 26.9724 5.35949C26.778 5.35606 26.59 5.42818 26.4478 5.56066L25.0678 6.93066C24.9291 7.07422 24.8516 7.26601 24.8516 7.46563C24.8516 7.66525 24.9291 7.8571 25.0678 8.00067C25.2107 8.13784 25.3998 8.21633 25.5978 8.22064Z" fill="#0D70BA"/>
<path d="M9.67026 8.92002C9.80481 9.04006 9.97998 9.10441 10.1602 9.10001C10.3138 9.10053 10.4638 9.05391 10.59 8.96646C10.7162 8.87902 10.8125 8.75499 10.8659 8.61106C10.9194 8.46712 10.9273 8.3102 10.8888 8.16159C10.8502 8.01298 10.767 7.87979 10.6503 7.78L8.5903 6.03C8.43913 5.89739 8.24147 5.83029 8.0408 5.84342C7.84014 5.85654 7.6529 5.94883 7.52029 6.10001C7.38769 6.25118 7.32052 6.44884 7.33365 6.64951C7.34678 6.85017 7.43913 7.03741 7.5903 7.17002L9.67026 8.92002Z" fill="#0D70BA"/>
<path d="M26.8203 15.2793C26.8229 15.4774 26.9028 15.6667 27.0428 15.8068C27.1829 15.9469 27.3722 16.0267 27.5703 16.0293H31.1903C31.3892 16.0293 31.58 15.9503 31.7206 15.8096C31.8613 15.669 31.9403 15.4782 31.9403 15.2793C31.9403 15.0804 31.8613 14.8896 31.7206 14.749C31.58 14.6083 31.3892 14.5293 31.1903 14.5293H27.5703C27.3722 14.5319 27.1829 14.6117 27.0428 14.7518C26.9028 14.8919 26.8229 15.0812 26.8203 15.2793V15.2793Z" fill="#0D70BA"/>
<path d="M4.37891 16.0293H7.59888C7.79779 16.0293 7.98856 15.9503 8.12921 15.8096C8.26986 15.669 8.34888 15.4782 8.34888 15.2793C8.34888 15.0804 8.26986 14.8896 8.12921 14.749C7.98856 14.6083 7.79779 14.5293 7.59888 14.5293H4.37891C4.17999 14.5293 3.98922 14.6083 3.84857 14.749C3.70792 14.8896 3.62891 15.0804 3.62891 15.2793C3.62891 15.4782 3.70792 15.669 3.84857 15.8096C3.98922 15.9503 4.17999 16.0293 4.37891 16.0293Z" fill="#0D70BA"/>
</svg>
