<svg width="20" height="20" viewBox="0 0 20 20" fill="none" xmlns="http://www.w3.org/2000/svg">
<rect width="20" height="20" fill="#0D70BA"/>
<path d="M16.3636 11.9091H15.0909V10C15.0909 9.83123 15.0239 9.66936 14.9045 9.55002C14.7852 9.43068 14.6233 9.36364 14.4545 9.36364H10.6364V8.09091H11.9091C12.0779 8.09091 12.2397 8.02386 12.3591 7.90452C12.4784 7.78518 12.5455 7.62332 12.5455 7.45455V3.63636C12.5455 3.46759 12.4784 3.30573 12.3591 3.18639C12.2397 3.06705 12.0779 3 11.9091 3H8.09091C7.92213 3 7.76027 3.06705 7.64093 3.18639C7.52159 3.30573 7.45455 3.46759 7.45455 3.63636V7.45455C7.45455 7.62332 7.52159 7.78518 7.64093 7.90452C7.76027 8.02386 7.92213 8.09091 8.09091 8.09091H9.36364V9.36364H5.54545C5.37668 9.36364 5.21482 9.43068 5.09548 9.55002C4.97614 9.66936 4.90909 9.83123 4.90909 10V11.9091H3.63636C3.46759 11.9091 3.30573 11.9761 3.18639 12.0955C3.06705 12.2148 3 12.3767 3 12.5455V16.3636C3 16.5324 3.06705 16.6943 3.18639 16.8136C3.30573 16.933 3.46759 17 3.63636 17H7.45455C7.62332 17 7.78518 16.933 7.90452 16.8136C8.02386 16.6943 8.09091 16.5324 8.09091 16.3636V12.5455C8.09091 12.3767 8.02386 12.2148 7.90452 12.0955C7.78518 11.9761 7.62332 11.9091 7.45455 11.9091H6.18182V10.6364H13.8182V11.9091H12.5455C12.3767 11.9091 12.2148 11.9761 12.0955 12.0955C11.9761 12.2148 11.9091 12.3767 11.9091 12.5455V16.3636C11.9091 16.5324 11.9761 16.6943 12.0955 16.8136C12.2148 16.933 12.3767 17 12.5455 17H16.3636C16.5324 17 16.6943 16.933 16.8136 16.8136C16.933 16.6943 17 16.5324 17 16.3636V12.5455C17 12.3767 16.933 12.2148 16.8136 12.0955C16.6943 11.9761 16.5324 11.9091 16.3636 11.9091ZM6.81818 13.1818V15.7273H4.27273V13.1818H6.81818ZM8.72727 6.81818V4.27273H11.2727V6.81818H8.72727ZM15.7273 15.7273H13.1818V13.1818H15.7273V15.7273Z" fill="white"/>
</svg>
