<svg width="20" height="20" viewBox="0 0 20 20" fill="none" xmlns="http://www.w3.org/2000/svg">
<rect width="20" height="20" fill="#0D70BA"/>
<path d="M6.85 12.8C7.12848 12.8 7.39555 12.6894 7.59246 12.4925C7.78938 12.2955 7.9 12.0285 7.9 11.75C7.90342 11.7151 7.90342 11.6799 7.9 11.645L9.853 9.692H10.014H10.175L11.302 10.819C11.302 10.819 11.302 10.854 11.302 10.875C11.302 11.1535 11.4126 11.4205 11.6095 11.6175C11.8065 11.8144 12.0735 11.925 12.352 11.925C12.6305 11.925 12.8975 11.8144 13.0945 11.6175C13.2914 11.4205 13.402 11.1535 13.402 10.875V10.819L15.95 8.25C16.1577 8.25 16.3607 8.18842 16.5333 8.07304C16.706 7.95767 16.8406 7.79368 16.9201 7.60182C16.9995 7.40996 17.0203 7.19884 16.9798 6.99516C16.9393 6.79148 16.8393 6.60438 16.6925 6.45754C16.5456 6.31069 16.3585 6.21069 16.1548 6.17018C15.9512 6.12966 15.74 6.15045 15.5482 6.22993C15.3563 6.3094 15.1923 6.44398 15.077 6.61665C14.9616 6.78932 14.9 6.99233 14.9 7.2C14.8966 7.23492 14.8966 7.27008 14.9 7.305L12.373 9.832H12.261L11.05 8.6C11.05 8.32152 10.9394 8.05445 10.7425 7.85754C10.5455 7.66062 10.2785 7.55 10 7.55C9.72152 7.55 9.45445 7.66062 9.25754 7.85754C9.06062 8.05445 8.95 8.32152 8.95 8.6L6.85 10.7C6.57152 10.7 6.30445 10.8106 6.10754 11.0075C5.91062 11.2045 5.8 11.4715 5.8 11.75C5.8 12.0285 5.91062 12.2955 6.10754 12.4925C6.30445 12.6894 6.57152 12.8 6.85 12.8ZM16.3 15.6H4.4V3.7C4.4 3.51435 4.32625 3.3363 4.19497 3.20503C4.0637 3.07375 3.88565 3 3.7 3C3.51435 3 3.3363 3.07375 3.20503 3.20503C3.07375 3.3363 3 3.51435 3 3.7V16.3C3 16.4857 3.07375 16.6637 3.20503 16.795C3.3363 16.9263 3.51435 17 3.7 17H16.3C16.4857 17 16.6637 16.9263 16.795 16.795C16.9263 16.6637 17 16.4857 17 16.3C17 16.1143 16.9263 15.9363 16.795 15.805C16.6637 15.6737 16.4857 15.6 16.3 15.6Z" fill="white"/>
</svg>
