<svg width="20" height="20" viewBox="0 0 20 20" fill="none" xmlns="http://www.w3.org/2000/svg">
<rect width="20" height="20" fill="#0D70BA"/>
<path d="M17.7333 12.8603L14.1249 9.25299C14.2004 8.88456 14.2379 8.50932 14.2366 8.1332C14.2364 7.10191 13.9766 6.08734 13.4814 5.18326C12.9862 4.27918 12.2715 3.51476 11.4033 2.96068C10.5352 2.40659 9.54167 2.08072 8.51457 2.01317C7.48747 1.94563 6.45994 2.1386 5.52698 2.57424C5.40878 2.62834 5.30554 2.71053 5.22624 2.81368C5.14694 2.91683 5.09397 3.03781 5.07193 3.16613C5.04998 3.29281 5.05884 3.42293 5.09775 3.54546C5.13666 3.66799 5.20448 3.77931 5.29546 3.87L8.76816 7.34135L7.33118 8.78108L3.86647 5.30173C3.7752 5.21199 3.66374 5.14553 3.54149 5.10795C3.41923 5.07036 3.28975 5.06276 3.16395 5.08577C3.03668 5.10704 2.91646 5.1589 2.81357 5.23691C2.71069 5.31492 2.62821 5.41675 2.57319 5.53369C2.13693 6.47151 1.9445 7.50466 2.0138 8.53702C2.08311 9.56937 2.41189 10.5674 2.96957 11.4382C3.52725 12.3091 4.2957 13.0245 5.20345 13.5178C6.1112 14.0112 7.12875 14.2665 8.16143 14.2601C8.53683 14.2613 8.91136 14.2237 9.27908 14.1481L12.8795 17.7634C12.9537 17.8384 13.042 17.8979 13.1393 17.9385C13.2366 17.9791 13.3409 18 13.4463 18C13.5517 18 13.656 17.9791 13.7533 17.9385C13.8506 17.8979 13.9389 17.8384 14.0131 17.7634C14.0879 17.689 14.1473 17.6006 14.1879 17.5031C14.2284 17.4056 14.2493 17.3011 14.2493 17.1955C14.2493 17.0899 14.2284 16.9854 14.1879 16.8879C14.1473 16.7904 14.0879 16.702 14.0131 16.6276L10.1013 12.7083C10.0036 12.6111 9.88237 12.5408 9.74947 12.5043C9.61658 12.4679 9.47652 12.4665 9.34295 12.5004C8.9575 12.6038 8.56046 12.6576 8.16143 12.6604C7.56433 12.6656 6.97208 12.5525 6.41881 12.3274C5.86554 12.1024 5.36218 11.7699 4.93773 11.3491C4.51328 10.9283 4.17612 10.4275 3.94568 9.87556C3.71524 9.32363 3.59607 8.73147 3.59504 8.1332C3.59401 7.86526 3.61537 7.59771 3.65891 7.33335L6.78832 10.4768C6.86254 10.5517 6.95083 10.6112 7.04811 10.6518C7.1454 10.6925 7.24974 10.7134 7.35513 10.7134C7.46052 10.7134 7.56486 10.6925 7.66215 10.6518C7.75943 10.6112 7.84772 10.5517 7.92194 10.4768L10.4606 7.90924C10.6045 7.7601 10.6849 7.56078 10.6849 7.35335C10.6849 7.14591 10.6045 6.9466 10.4606 6.79745L7.35513 3.66203C7.61904 3.61885 7.88604 3.59745 8.15345 3.59805C9.35256 3.60017 10.5018 4.07891 11.349 4.92919C12.1961 5.77946 12.6719 6.93179 12.6719 8.1332C12.6692 8.53299 12.6155 8.93079 12.5123 9.31698C12.4785 9.45081 12.4798 9.59113 12.5162 9.72429C12.5526 9.85744 12.6227 9.9789 12.7198 10.0768L16.6316 13.9961C16.7819 14.1467 16.9858 14.2313 17.1984 14.2313C17.411 14.2313 17.6149 14.1467 17.7652 13.9961C17.9155 13.8455 18 13.6412 18 13.4282C18 13.2152 17.9155 13.0109 17.7652 12.8603H17.7333Z" fill="white"/>
</svg>
