<svg width="20" height="20" viewBox="0 0 20 20" fill="none" xmlns="http://www.w3.org/2000/svg">
<rect width="20" height="20" fill="#0D70BA"/>
<path d="M16.3958 15.316C16.7921 14.6855 16.9619 13.9452 16.8787 13.2109C16.7954 12.4767 16.4639 11.79 15.936 11.2582C15.408 10.7265 14.7134 10.3797 13.9609 10.2722C13.2083 10.1647 12.4403 10.3025 11.777 10.664C11.1137 11.0256 10.5926 11.5905 10.2951 12.2703C9.99768 12.9502 9.94074 13.7066 10.1332 14.4213C10.3256 15.1359 10.7566 15.7684 11.3587 16.2198C11.9608 16.6712 12.7 16.916 13.4607 16.9159C14.0924 16.9131 14.7115 16.744 15.2522 16.4266L16.6278 17.7703C16.7021 17.8431 16.7906 17.9008 16.888 17.9403C16.9855 17.9797 17.09 18 17.1956 18C17.3012 18 17.4057 17.9797 17.5032 17.9403C17.6006 17.9008 17.6891 17.8431 17.7634 17.7703C17.8384 17.6981 17.8979 17.6122 17.9385 17.5175C17.9791 17.4229 18 17.3214 18 17.2188C18 17.1163 17.9791 17.0148 17.9385 16.9201C17.8979 16.8255 17.8384 16.7396 17.7634 16.6674L16.3958 15.316ZM14.7963 14.8733C14.4438 15.1995 13.9756 15.3815 13.4887 15.3815C13.0018 15.3815 12.5335 15.1995 12.181 14.8733C11.8358 14.5357 11.642 14.0793 11.642 13.6035C11.642 13.1277 11.8358 12.6712 12.181 12.3336C12.3526 12.1666 12.5565 12.0342 12.7808 11.9438C13.0052 11.8534 13.2458 11.8069 13.4887 11.8069C13.7316 11.8069 13.9721 11.8534 14.1965 11.9438C14.4209 12.0342 14.6247 12.1666 14.7963 12.3336C15.1416 12.6712 15.3354 13.1277 15.3354 13.6035C15.3354 14.0793 15.1416 14.5357 14.7963 14.8733ZM15.5961 4H4.3993C3.76297 4 3.1527 4.24548 2.70274 4.68244C2.25278 5.1194 2 5.71204 2 6.32999V13.32C2 13.9379 2.25278 14.5306 2.70274 14.9675C3.1527 15.4045 3.76297 15.65 4.3993 15.65H7.59838C7.81049 15.65 8.01391 15.5681 8.1639 15.4225C8.31388 15.2768 8.39815 15.0793 8.39815 14.8733C8.39815 14.6673 8.31388 14.4698 8.1639 14.3241C8.01391 14.1785 7.81049 14.0966 7.59838 14.0966H4.3993C4.18719 14.0966 3.98377 14.0148 3.83378 13.8692C3.6838 13.7235 3.59954 13.526 3.59954 13.32V8.65999H16.3958V9.43665C16.3958 9.64264 16.4801 9.84018 16.6301 9.98584C16.7801 10.1315 16.9835 10.2133 17.1956 10.2133C17.4077 10.2133 17.6111 10.1315 17.7611 9.98584C17.9111 9.84018 17.9954 9.64264 17.9954 9.43665V6.32999C17.9954 5.71204 17.7426 5.1194 17.2926 4.68244C16.8427 4.24548 16.2324 4 15.5961 4ZM16.3958 7.10666H3.59954V6.32999C3.59954 6.12401 3.6838 5.92646 3.83378 5.78081C3.98377 5.63516 4.18719 5.55333 4.3993 5.55333H15.5961C15.8082 5.55333 16.0116 5.63516 16.1616 5.78081C16.3116 5.92646 16.3958 6.12401 16.3958 6.32999V7.10666ZM8.39815 10.2133H5.99884C5.78673 10.2133 5.58331 10.2951 5.43332 10.4408C5.28333 10.5864 5.19907 10.784 5.19907 10.99C5.19907 11.196 5.28333 11.3935 5.43332 11.5392C5.58331 11.6848 5.78673 11.7666 5.99884 11.7666H8.39815C8.61026 11.7666 8.81368 11.6848 8.96367 11.5392C9.11365 11.3935 9.19791 11.196 9.19791 10.99C9.19791 10.784 9.11365 10.5864 8.96367 10.4408C8.81368 10.2951 8.61026 10.2133 8.39815 10.2133Z" fill="white"/>
</svg>
