<svg width="20" height="20" viewBox="0 0 20 20" fill="none" xmlns="http://www.w3.org/2000/svg">
<rect width="20" height="20" fill="#0D70BA"/>
<path d="M7.5 13.15C7.37639 13.15 7.25555 13.1911 7.15277 13.268C7.04999 13.3449 6.96988 13.4542 6.92258 13.5821C6.87527 13.71 6.86289 13.8508 6.88701 13.9866C6.91112 14.1224 6.97065 14.2471 7.05806 14.345C7.14547 14.4429 7.25683 14.5095 7.37807 14.5365C7.49931 14.5636 7.62497 14.5497 7.73918 14.4967C7.85338 14.4437 7.95099 14.354 8.01967 14.2389C8.08834 14.1238 8.125 13.9884 8.125 13.85C8.125 13.6643 8.05915 13.4863 7.94194 13.355C7.82473 13.2237 7.66576 13.15 7.5 13.15V13.15ZM10 3C7.5 3 5 3.959 5 5.8V14.2C5 16.041 7.5 17 10 17C12.5 17 15 16.041 15 14.2V5.8C15 3.959 12.5 3 10 3ZM13.75 14.2C13.75 14.697 12.325 15.6 10 15.6C7.675 15.6 6.25 14.697 6.25 14.2V11.911C7.42004 12.534 8.70493 12.8386 10 12.8C11.2951 12.8386 12.58 12.534 13.75 11.911V14.2ZM13.75 10C13.75 10.497 12.325 11.4 10 11.4C7.675 11.4 6.25 10.497 6.25 10V7.711C7.42004 8.33397 8.70493 8.63857 10 8.6C11.2951 8.63857 12.58 8.33397 13.75 7.711V10ZM10 7.2C7.675 7.2 6.25 6.297 6.25 5.8C6.25 5.303 7.675 4.4 10 4.4C12.325 4.4 13.75 5.303 13.75 5.8C13.75 6.297 12.325 7.2 10 7.2ZM7.5 8.95C7.37639 8.95 7.25555 8.99105 7.15277 9.06797C7.04999 9.14489 6.96988 9.25421 6.92258 9.38212C6.87527 9.51003 6.86289 9.65078 6.88701 9.78656C6.91112 9.92235 6.97065 10.0471 7.05806 10.145C7.14547 10.2429 7.25683 10.3095 7.37807 10.3365C7.49931 10.3636 7.62497 10.3497 7.73918 10.2967C7.85338 10.2437 7.95099 10.154 8.01967 10.0389C8.08834 9.92378 8.125 9.78845 8.125 9.65C8.125 9.46435 8.05915 9.2863 7.94194 9.15503C7.82473 9.02375 7.66576 8.95 7.5 8.95V8.95Z" fill="white"/>
</svg>
