<svg width="20" height="20" viewBox="0 0 20 20" fill="none" xmlns="http://www.w3.org/2000/svg">
<rect width="20" height="20" fill="#0D70BA"/>
<path d="M10.2294 10.6682C10.6179 10.315 10.9296 9.87821 11.1432 9.38737C11.3568 8.89654 11.4674 8.36319 11.4674 7.82353C11.4674 6.80947 11.0838 5.83694 10.4009 5.11989C9.71801 4.40284 8.79183 4 7.82609 4C6.86036 4 5.93418 4.40284 5.2513 5.11989C4.56842 5.83694 4.18478 6.80947 4.18478 7.82353C4.18478 8.36319 4.29534 8.89654 4.50895 9.38737C4.72257 9.87821 5.03425 10.315 5.42283 10.6682C4.40336 11.153 3.53843 11.9358 2.93143 12.923C2.32444 13.9103 2.00107 15.0602 2 16.2353C2 16.4381 2.07673 16.6326 2.2133 16.776C2.34988 16.9194 2.53511 17 2.72826 17C2.92141 17 3.10664 16.9194 3.24322 16.776C3.3798 16.6326 3.45652 16.4381 3.45652 16.2353C3.45652 15.0184 3.91689 13.8514 4.73634 12.9909C5.55579 12.1305 6.66721 11.6471 7.82609 11.6471C8.98497 11.6471 10.0964 12.1305 10.9158 12.9909C11.7353 13.8514 12.1957 15.0184 12.1957 16.2353C12.1957 16.4381 12.2724 16.6326 12.409 16.776C12.5455 16.9194 12.7308 17 12.9239 17C13.1171 17 13.3023 16.9194 13.4389 16.776C13.5755 16.6326 13.6522 16.4381 13.6522 16.2353C13.6511 15.0602 13.3277 13.9103 12.7208 12.923C12.1138 11.9358 11.2488 11.153 10.2294 10.6682V10.6682ZM7.82609 10.1176C7.39398 10.1176 6.97158 9.9831 6.61229 9.73102C6.25301 9.47894 5.97298 9.12065 5.80761 8.70145C5.64225 8.28226 5.59899 7.82098 5.68329 7.37597C5.76759 6.93095 5.97567 6.52218 6.28122 6.20134C6.58676 5.88051 6.97606 5.66201 7.39986 5.57349C7.82367 5.48497 8.26296 5.53041 8.66217 5.70404C9.06139 5.87768 9.40261 6.17172 9.64267 6.54899C9.88274 6.92625 10.0109 7.3698 10.0109 7.82353C10.0109 8.43197 9.7807 9.01549 9.37097 9.44572C8.96124 9.87595 8.40553 10.1176 7.82609 10.1176ZM14.9194 10.3624C15.3854 9.81125 15.6899 9.13045 15.796 8.40191C15.9022 7.67336 15.8056 6.92812 15.5178 6.25588C15.23 5.58365 14.7634 5.01308 14.174 4.61285C13.5846 4.21263 12.8976 3.9998 12.1957 4C12.0025 4 11.8173 4.08057 11.6807 4.22398C11.5441 4.36739 11.4674 4.56189 11.4674 4.76471C11.4674 4.96752 11.5441 5.16202 11.6807 5.30543C11.8173 5.44884 12.0025 5.52941 12.1957 5.52941C12.7751 5.52941 13.3308 5.77111 13.7405 6.20134C14.1503 6.63157 14.3804 7.21509 14.3804 7.82353C14.3794 8.22518 14.278 8.61951 14.0863 8.96709C13.8946 9.31466 13.6193 9.60329 13.2881 9.80412C13.1801 9.86952 13.0899 9.96292 13.0261 10.0754C12.9624 10.1879 12.9272 10.3156 12.9239 10.4465C12.9209 10.5763 12.9494 10.7048 13.0067 10.8198C13.064 10.9349 13.1483 11.0327 13.2516 11.1041L13.5357 11.3029L13.6303 11.3565C14.5082 11.7937 15.2488 12.4852 15.7649 13.3495C16.281 14.2139 16.5511 15.2151 16.5434 16.2353C16.5434 16.4381 16.6201 16.6326 16.7567 16.776C16.8933 16.9194 17.0785 17 17.2716 17C17.4648 17 17.65 16.9194 17.7866 16.776C17.9232 16.6326 17.9999 16.4381 17.9999 16.2353C18.0059 15.0618 17.726 13.9062 17.1868 12.8783C16.6476 11.8504 15.8671 10.9843 14.9194 10.3624V10.3624Z" fill="white"/>
</svg>
