<svg width="26" height="26" viewBox="0 0 26 26" fill="none" xmlns="http://www.w3.org/2000/svg">
<path fill-rule="evenodd" clip-rule="evenodd" d="M13 3C10.2386 3 8 5.23858 8 8V10C6.34315 10 5 11.3431 5 13V20C5 21.6569 6.34315 23 8 23H18C19.6569 23 21 21.6569 21 20V13C21 11.3431 19.6569 10 18 10H10V8C10 6.34315 11.3431 5 13 5C14.6569 5 16 6.34315 16 8H18C18 5.23858 15.7614 3 13 3ZM8 12C7.44772 12 7 12.4477 7 13V20C7 20.5523 7.44772 21 8 21H18C18.5523 21 19 20.5523 19 20V13C19 12.4477 18.5523 12 18 12H10H8ZM13 14C13.5523 14 14 14.4477 14 15V18C14 18.5523 13.5523 19 13 19C12.4477 19 12 18.5523 12 18V15C12 14.4477 12.4477 14 13 14Z" fill="#A1A1A1"/>
</svg>
