<svg width="26" height="26" viewBox="0 0 26 26" fill="none" xmlns="http://www.w3.org/2000/svg">
<path fill-rule="evenodd" clip-rule="evenodd" d="M25 4H23V2H21V4H19V6H21V8H23V6H25V4ZM5.46447 16.4645C6.40215 15.5268 7.67392 15 9 15H17C18.3261 15 19.5979 15.5268 20.5355 16.4645C21.4732 17.4021 22 18.6739 22 20V22C22 22.5523 21.5523 23 21 23C20.4477 23 20 22.5523 20 22V20C20 19.2044 19.6839 18.4413 19.1213 17.8787C18.5587 17.3161 17.7956 17 17 17H9C8.20435 17 7.44129 17.3161 6.87868 17.8787C6.31607 18.4413 6 19.2043 6 20V22C6 22.5523 5.55228 23 5 23C4.44772 23 4 22.5523 4 22V20C4 18.6739 4.52678 17.4021 5.46447 16.4645ZM10 8C10 6.34315 11.3431 5 13 5C14.6569 5 16 6.34315 16 8C16 9.65685 14.6569 11 13 11C11.3431 11 10 9.65685 10 8ZM13 3C10.2386 3 8 5.23858 8 8C8 10.7614 10.2386 13 13 13C15.7614 13 18 10.7614 18 8C18 5.23858 15.7614 3 13 3Z" fill="#A2A2A2"/>
</svg>
