<svg width="26" height="26" viewBox="0 0 26 26" fill="none" xmlns="http://www.w3.org/2000/svg">
<path fill-rule="evenodd" clip-rule="evenodd" d="M5.46447 16.4645C6.40215 15.5268 7.67392 15 9 15H17C18.3261 15 19.5979 15.5268 20.5355 16.4645C21.4732 17.4021 22 18.6739 22 20V22C22 22.5523 21.5523 23 21 23C20.4477 23 20 22.5523 20 22V20C20 19.2044 19.6839 18.4413 19.1213 17.8787C18.5587 17.3161 17.7956 17 17 17H9C8.20435 17 7.44129 17.3161 6.87868 17.8787C6.31607 18.4413 6 19.2044 6 20V22C6 22.5523 5.55228 23 5 23C4.44772 23 4 22.5523 4 22V20C4 18.6739 4.52678 17.4021 5.46447 16.4645Z" fill="#A2A2A2"/>
<path fill-rule="evenodd" clip-rule="evenodd" d="M13 5C11.3431 5 10 6.34315 10 8C10 9.65685 11.3431 11 13 11C14.6569 11 16 9.65685 16 8C16 6.34315 14.6569 5 13 5ZM8 8C8 5.23858 10.2386 3 13 3C15.7614 3 18 5.23858 18 8C18 10.7614 15.7614 13 13 13C10.2386 13 8 10.7614 8 8Z" fill="#A2A2A2"/>
</svg>
