<svg width="26" height="26" viewBox="0 0 26 26" fill="none" xmlns="http://www.w3.org/2000/svg">
<path fill-rule="evenodd" clip-rule="evenodd" d="M8.05021 4.05025C9.36296 2.7375 11.1434 2 13 2C14.8565 2 16.6369 2.7375 17.9497 4.05025C19.2625 5.36301 20 7.14349 20 9C20 12.3527 20.717 14.4346 21.3779 15.6461C21.7096 16.2544 22.0327 16.6535 22.2572 16.8904C22.3696 17.0091 22.458 17.0878 22.5112 17.1322C22.5379 17.1544 22.5557 17.168 22.5634 17.1737C22.5646 17.1746 22.5656 17.1753 22.5663 17.1758C22.9248 17.4221 23.0834 17.8725 22.957 18.2898C22.8293 18.7115 22.4406 19 22 19H3.99996C3.55929 19 3.17056 18.7115 3.04286 18.2898C2.91652 17.8725 3.07516 17.4221 3.43365 17.1758C3.43435 17.1753 3.4353 17.1746 3.4365 17.1737C3.4442 17.168 3.46206 17.1544 3.48868 17.1322C3.54189 17.0878 3.63028 17.0091 3.74275 16.8904C3.96718 16.6535 4.29027 16.2544 4.62206 15.6461C5.28289 14.4346 5.99996 12.3527 5.99996 9C5.99996 7.14348 6.73745 5.36301 8.05021 4.05025ZM3.44375 17.169C3.44383 17.1689 3.44391 17.1688 3.44399 17.1688C3.44399 17.1688 3.44398 17.1688 3.44398 17.1688L3.44375 17.169ZM6.14928 17H19.8506C19.7745 16.8753 19.6982 16.7434 19.6221 16.6039C18.7829 15.0654 18 12.6473 18 9C18 7.67392 17.4732 6.40215 16.5355 5.46447C15.5978 4.52678 14.326 4 13 4C11.6739 4 10.4021 4.52678 9.46442 5.46447C8.52674 6.40215 7.99996 7.67392 7.99996 9C7.99996 12.6473 7.21702 15.0654 6.37785 16.6039C6.30175 16.7434 6.22537 16.8753 6.14928 17Z" fill="#A2A2A2"/>
<path fill-rule="evenodd" clip-rule="evenodd" d="M10.7678 21.1352C11.2455 20.858 11.8575 21.0207 12.1346 21.4984C12.2225 21.6499 12.3487 21.7757 12.5005 21.8632C12.6523 21.9506 12.8244 21.9966 12.9996 21.9966C13.1748 21.9966 13.3469 21.9506 13.4987 21.8632C13.6505 21.7757 13.7767 21.6499 13.8646 21.4984C14.1417 21.0207 14.7536 20.858 15.2313 21.1352C15.7091 21.4123 15.8717 22.0242 15.5946 22.5019C15.3309 22.9566 14.9523 23.3339 14.4969 23.5962C14.0415 23.8586 13.5251 23.9966 12.9996 23.9966C12.474 23.9966 11.9577 23.8586 11.5022 23.5962C11.0468 23.3339 10.6683 22.9566 10.4046 22.5019C10.1275 22.0242 10.2901 21.4123 10.7678 21.1352Z" fill="#A2A2A2"/>
</svg>
