<svg width="24" height="24" viewBox="0 0 24 24" fill="none" xmlns="http://www.w3.org/2000/svg">
<path fill-rule="evenodd" clip-rule="evenodd" d="M3 5C2.44772 5 2 5.44772 2 6C2 6.55228 2.44772 7 3 7H21C21.5523 7 22 6.55228 22 6C22 5.44772 21.5523 5 21 5H3ZM8 12C8 11.4477 8.44772 11 9 11L21 11C21.5523 11 22 11.4477 22 12C22 12.5523 21.5523 13 21 13L9 13C8.44772 13 8 12.5523 8 12ZM5 18C5 17.4477 5.44772 17 6 17L21 17C21.5523 17 22 17.4477 22 18C22 18.5523 21.5523 19 21 19L6 19C5.44772 19 5 18.5523 5 18Z" fill="#777777"/>
</svg>
