<svg width="26" height="26" viewBox="0 0 26 26" fill="none" xmlns="http://www.w3.org/2000/svg">
<path fill-rule="evenodd" clip-rule="evenodd" d="M13 2C11.1434 2 9.36296 2.7375 8.05021 4.05025C6.73745 5.36301 5.99996 7.14348 5.99996 9C5.99996 12.3527 5.28289 14.4346 4.62206 15.6461C4.29027 16.2544 3.96718 16.6535 3.74275 16.8904C3.63028 17.0091 3.54189 17.0878 3.48868 17.1322C3.46206 17.1544 3.4442 17.168 3.4365 17.1737L3.43365 17.1758C3.07516 17.4221 2.91652 17.8725 3.04286 18.2898C3.17056 18.7115 3.55929 19 3.99996 19H22C22.4406 19 22.8293 18.7115 22.957 18.2898C23.0834 17.8725 22.9248 17.4221 22.5663 17.1758L22.5634 17.1737C22.5557 17.168 22.5379 17.1544 22.5112 17.1322C22.458 17.0878 22.3696 17.0091 22.2572 16.8904C22.0327 16.6535 21.7096 16.2544 21.3779 15.6461C20.717 14.4346 20 12.3527 20 9C20 7.14349 19.2625 5.36301 17.9497 4.05025C16.6369 2.7375 14.8565 2 13 2ZM19.8506 17H6.14928C6.22537 16.8753 6.30175 16.7434 6.37785 16.6039C7.21702 15.0654 7.99996 12.6473 7.99996 9C7.99996 7.67392 8.52674 6.40215 9.46442 5.46447C10.4021 4.52678 11.6739 4 13 4C14.326 4 15.5978 4.52678 16.5355 5.46447C17.4732 6.40215 18 7.67392 18 9C18 12.6473 18.7829 15.0654 19.6221 16.6039C19.6982 16.7434 19.7745 16.8753 19.8506 17ZM12.1346 21.4984C11.8575 21.0207 11.2455 20.858 10.7678 21.1352C10.2901 21.4123 10.1275 22.0242 10.4046 22.5019C10.6683 22.9566 11.0468 23.3339 11.5022 23.5962C11.9577 23.8586 12.474 23.9966 12.9996 23.9966C13.5251 23.9966 14.0415 23.8586 14.4969 23.5962C14.9523 23.3339 15.3309 22.9566 15.5946 22.5019C15.8717 22.0242 15.7091 21.4123 15.2313 21.1352C14.7536 20.858 14.1417 21.0207 13.8646 21.4984C13.7767 21.6499 13.6505 21.7757 13.4987 21.8632C13.3469 21.9506 13.1748 21.9966 12.9996 21.9966C12.8244 21.9966 12.6523 21.9506 12.5005 21.8632C12.3487 21.7757 12.2225 21.6499 12.1346 21.4984Z" fill="#A2A2A2"/>
<circle cx="22" cy="5" r="2" fill="#EA1E26"/>
</svg>
