<svg width="155" height="23" viewBox="0 0 155 23" fill="none" xmlns="http://www.w3.org/2000/svg">
<path d="M1.34912 14.4157C1.12852 14.6162 1.12183 14.9705 1.34912 15.1711L3.08717 16.7688C3.26767 16.9359 3.54846 16.9493 3.74232 16.8022L7.77998 13.7338L4.9389 11.1602L1.34912 14.4157Z" fill="#0D70BA"/>
<path d="M17.7785 1.35403C17.7785 1.35403 17.7651 0.772442 17.344 0.518416C16.9897 0.311185 16.7423 0.471621 16.6688 0.53847L16.6421 0.558524L16.6087 0.585259L7.76453 8.60044L11.1738 11.1541L17.7852 6.13372V1.68827L17.7785 1.35403Z" fill="#0D70BA"/>
<path d="M17.7736 16.1278L11.1756 11.1877L7.76633 8.63406L3.56155 5.31835C3.31421 5.12449 2.95991 5.13786 2.72594 5.35177L1.16835 6.80239C0.894272 7.05642 0.894278 7.49762 1.17504 7.74496L4.94533 11.181L7.78641 13.7547L16.6907 21.8501C17.4127 22.3046 17.6533 21.8568 17.7268 21.5091C17.7469 21.4356 17.7536 21.3621 17.7602 21.3086V21.3019V21.2351V21.195L17.7669 19.4903L17.7736 16.1278Z" fill="#0D70BA"/>
<path d="M22.8315 2.70553L22.5039 2.55178L17.771 0.265552C17.771 0.265552 17.0758 0.111803 16.5945 0.593115L16.6279 0.56637C16.6279 0.56637 16.6346 0.559685 16.6546 0.546316C16.7282 0.486152 16.9822 0.31903 17.3298 0.526262C17.751 0.780288 17.7643 1.36187 17.7643 1.36187H17.771V1.69612V6.14157V16.1087V16.1288V19.4913V21.1959C17.771 21.1959 17.771 21.2427 17.7643 21.3163C17.7643 21.3898 17.751 21.4566 17.7309 21.5168C17.6507 21.8644 17.4167 22.319 16.6947 21.8577C17.156 22.2989 17.771 22.0717 17.771 22.0717L22.5841 19.7186L22.7111 19.6584C23.0721 19.4846 23.2994 19.1169 23.2994 18.7225V3.45425C23.2994 3.13337 23.1189 2.83923 22.8315 2.70553Z" fill="#0D70BA"/>
<path d="M32.9604 13.9935L33.1075 14.7623H33.1543L33.308 13.9935L34.6717 8.7793H37.0115L34.1838 17.0886H32.0379L29.2102 8.7793H31.5499L32.9604 13.9935Z" fill="#0D70BA"/>
<path d="M40.1918 6.78615H37.9524V5.10156H40.1918V6.78615ZM40.1918 17.0876H37.9524V8.77825H40.1918V17.0876Z" fill="#0D70BA"/>
<path d="M46.3715 14.7818C46.3715 14.5344 46.2512 14.3272 46.0172 14.1467C45.7765 13.9729 45.3353 13.8125 44.6935 13.6855C43.7176 13.4916 42.9822 13.1975 42.4809 12.8031C41.9795 12.4086 41.7255 11.8739 41.7255 11.1987C41.7255 10.4901 42.0263 9.88176 42.6346 9.3804C43.2363 8.87903 44.0451 8.625 45.0479 8.625C46.0974 8.625 46.9397 8.87903 47.5681 9.3804C48.2031 9.88176 48.504 10.5101 48.4772 11.2522L48.4638 11.299H46.2979C46.2979 10.9647 46.191 10.6973 45.9771 10.4834C45.7632 10.2762 45.449 10.1692 45.0479 10.1692C44.6869 10.1692 44.4061 10.2561 44.1922 10.4366C43.985 10.6171 43.878 10.8377 43.878 11.0984C43.878 11.3524 43.985 11.5597 44.2056 11.7268C44.4262 11.8872 44.8674 12.0343 45.5292 12.1613C46.5453 12.3685 47.3074 12.6694 47.8087 13.0638C48.3101 13.4582 48.5574 14.0063 48.5574 14.7016C48.5574 15.4503 48.2366 16.0586 47.5948 16.5399C46.9531 17.0145 46.1108 17.2552 45.0613 17.2552C43.9582 17.2552 43.0825 16.9744 42.4407 16.4129C41.799 15.8514 41.4915 15.2163 41.5249 14.4943L41.5383 14.4475H43.5906C43.6039 14.8954 43.751 15.2163 44.0251 15.4168C44.2991 15.6174 44.6601 15.7177 45.108 15.7177C45.5225 15.7177 45.8367 15.6375 46.0573 15.4703C46.2645 15.2965 46.3715 15.0692 46.3715 14.7818Z" fill="#0D70BA"/>
<path d="M54.924 15.8586C54.67 16.3065 54.3424 16.6474 53.948 16.8881C53.5536 17.1287 53.0923 17.249 52.5709 17.249C51.6952 17.249 51.0133 16.9549 50.5186 16.36C50.0239 15.765 49.7766 14.8425 49.7766 13.5924V8.7793H52.0093V13.6125C52.0093 14.3411 52.1096 14.8358 52.3035 15.1032C52.4973 15.3706 52.8048 15.5043 53.2193 15.5043C53.5803 15.5043 53.8878 15.4441 54.1418 15.3305C54.3958 15.2168 54.6098 15.043 54.7702 14.8224V8.7793H57.0097V17.0886H55.1512L54.924 15.8586Z" fill="#0D70BA"/>
<path d="M63.4499 17.0881C63.3697 16.9009 63.2961 16.7004 63.236 16.4864C63.1758 16.2792 63.1358 16.0586 63.109 15.8447C62.8817 16.2525 62.5742 16.5867 62.1931 16.8474C61.8121 17.1148 61.3642 17.2485 60.8428 17.2485C59.9738 17.2485 59.2986 17.0279 58.8307 16.5733C58.3627 16.1254 58.1221 15.5171 58.1221 14.7417C58.1221 13.9261 58.4362 13.2977 59.0646 12.8499C59.693 12.402 60.6089 12.1747 61.8121 12.1747H63.0689V11.5129C63.0689 11.1118 62.9619 10.8043 62.7547 10.5837C62.5475 10.3631 62.2333 10.2561 61.8188 10.2561C61.4578 10.2561 61.1771 10.343 60.9765 10.5235C60.7827 10.6973 60.6824 10.9447 60.6824 11.2522H58.5231L58.5098 11.2054C58.4764 10.5035 58.7772 9.90181 59.4256 9.38708C60.0741 8.87903 60.9164 8.625 61.9659 8.625C62.9619 8.625 63.7708 8.87903 64.3858 9.3804C65.0008 9.88176 65.3083 10.6037 65.3083 11.5396V14.9756C65.3083 15.3634 65.3351 15.731 65.3952 16.072C65.4554 16.4129 65.549 16.7538 65.676 17.0948H63.4499V17.0881ZM61.3976 15.5907C61.7854 15.5907 62.133 15.4904 62.4405 15.2965C62.748 15.1027 62.9552 14.8754 63.0689 14.6213V13.4448H61.8121C61.3375 13.4448 60.9765 13.5651 60.7358 13.7991C60.4952 14.0331 60.3682 14.3272 60.3682 14.6681C60.3682 14.9489 60.4618 15.1762 60.6423 15.3433C60.8228 15.5104 61.0768 15.5907 61.3976 15.5907Z" fill="#0D70BA"/>
<path d="M69.1953 17.0887H66.9558V5.10938H69.1953V17.0887Z" fill="#0D70BA"/>
<path d="M79.1434 14.7818C79.1434 14.5344 79.0231 14.3272 78.7891 14.1467C78.5485 13.9729 78.1073 13.8125 77.4655 13.6855C76.4895 13.4916 75.7542 13.1975 75.2528 12.8031C74.7515 12.4086 74.4974 11.8739 74.4974 11.1987C74.4974 10.4901 74.7982 9.88176 75.4066 9.3804C76.0082 8.87903 76.8171 8.625 77.8198 8.625C78.8694 8.625 79.7116 8.87903 80.34 9.3804C80.9751 9.88176 81.2759 10.5101 81.2491 11.2522L81.2358 11.299H79.0699C79.0699 10.9647 78.9629 10.6973 78.749 10.4834C78.5351 10.2762 78.2209 10.1692 77.8198 10.1692C77.4589 10.1692 77.1781 10.2561 76.9642 10.4366C76.7569 10.6171 76.65 10.8377 76.65 11.0984C76.65 11.3524 76.7569 11.5597 76.9775 11.7268C77.1981 11.8872 77.6393 12.0343 78.3011 12.1613C79.3172 12.3685 80.0793 12.6694 80.5807 13.0638C81.082 13.4582 81.3294 14.0063 81.3294 14.7016C81.3294 15.4503 81.0085 16.0586 80.3668 16.5399C79.725 17.0145 78.8827 17.2552 77.8332 17.2552C76.7302 17.2552 75.8545 16.9744 75.2127 16.4129C74.571 15.8514 74.2635 15.2163 74.2969 14.4943L74.3103 14.4475H76.3625C76.3759 14.8954 76.523 15.2163 76.797 15.4168C77.0711 15.6174 77.4321 15.7177 77.88 15.7177C78.2944 15.7177 78.6086 15.6375 78.8292 15.4703C79.0298 15.2965 79.1434 15.0692 79.1434 14.7818Z" fill="#0D70BA"/>
<path d="M85.2885 6.73828V8.77048H86.6923V10.3481H85.2885V14.5797C85.2885 14.9005 85.3554 15.1345 85.4891 15.2682C85.6228 15.4086 85.8033 15.4754 86.0239 15.4754C86.1442 15.4754 86.2445 15.4687 86.3314 15.4554C86.4183 15.442 86.5186 15.422 86.6322 15.3885L86.8194 17.0063C86.5921 17.0798 86.3782 17.14 86.1643 17.1801C85.9503 17.2202 85.723 17.2402 85.469 17.2402C84.6936 17.2402 84.0986 17.0263 83.6841 16.6052C83.2697 16.1773 83.0558 15.5089 83.0558 14.5863V10.3481H81.8391V8.77048H83.0558V6.73828H85.2885Z" fill="#0D70BA"/>
<path d="M93.0053 15.8586C92.7513 16.3065 92.4237 16.6474 92.0293 16.8881C91.6349 17.1287 91.1736 17.249 90.6522 17.249C89.7765 17.249 89.0946 16.9549 88.5999 16.36C88.1052 15.765 87.8579 14.8425 87.8579 13.5924V8.7793H90.0907V13.6125C90.0907 14.3411 90.191 14.8358 90.3848 15.1032C90.5787 15.3706 90.8862 15.5043 91.3006 15.5043C91.6616 15.5043 91.9691 15.4441 92.2232 15.3305C92.4772 15.2168 92.6911 15.043 92.8515 14.8224V8.7793H95.091V17.0886H93.2326L93.0053 15.8586Z" fill="#0D70BA"/>
<path d="M96.295 13.0054C96.295 11.6951 96.5758 10.6389 97.144 9.83673C97.7123 9.03454 98.5078 8.63344 99.5372 8.63344C99.9517 8.63344 100.326 8.72034 100.66 8.90084C100.995 9.08133 101.282 9.33536 101.536 9.6696V5.11719H103.789V17.0965H101.877L101.683 16.0737C101.422 16.4548 101.115 16.7489 100.754 16.9561C100.393 17.1567 99.9851 17.2569 99.5239 17.2569C98.5078 17.2569 97.7123 16.8826 97.144 16.1339C96.5758 15.3852 96.295 14.3958 96.295 13.1725V13.0054ZM98.5278 13.1658C98.5278 13.8945 98.6481 14.4627 98.8955 14.8838C99.1428 15.2983 99.5372 15.5122 100.092 15.5122C100.413 15.5122 100.694 15.4453 100.934 15.3183C101.175 15.1846 101.369 14.9975 101.523 14.7434V11.2004C101.369 10.9397 101.175 10.7392 100.934 10.5921C100.694 10.445 100.42 10.3715 100.099 10.3715C99.5506 10.3715 99.1495 10.6122 98.8955 11.1002C98.6414 11.5882 98.5144 12.2232 98.5144 13.0054V13.1658H98.5278Z" fill="#0D70BA"/>
<path d="M107.719 6.78615H105.48V5.10156H107.719V6.78615ZM107.719 17.0876H105.48V8.77825H107.719V17.0876Z" fill="#0D70BA"/>
<path d="M109.05 12.8565C109.05 11.6198 109.397 10.6037 110.086 9.80823C110.774 9.01941 111.737 8.625 112.96 8.625C114.19 8.625 115.153 9.01941 115.848 9.80823C116.544 10.597 116.891 11.6131 116.891 12.8565V13.017C116.891 14.2671 116.544 15.2831 115.848 16.072C115.153 16.8608 114.197 17.2485 112.974 17.2485C111.744 17.2485 110.781 16.8541 110.093 16.072C109.397 15.2831 109.05 14.2671 109.05 13.017V12.8565ZM111.283 13.017C111.283 13.7724 111.416 14.3807 111.684 14.8419C111.951 15.3032 112.379 15.5305 112.974 15.5305C113.555 15.5305 113.977 15.3032 114.244 14.8419C114.511 14.3807 114.645 13.7724 114.645 13.0237V12.8632C114.645 12.1279 114.511 11.5262 114.237 11.0583C113.963 10.5904 113.535 10.3564 112.954 10.3564C112.372 10.3564 111.951 10.5904 111.684 11.0583C111.416 11.5262 111.283 12.1279 111.283 12.8565V13.017Z" fill="#0D70BA"/>
<path d="M125.358 15.5316C125.745 15.5316 126.06 15.418 126.287 15.184C126.514 14.95 126.634 14.6425 126.634 14.2481H128.68L128.693 14.2949C128.713 15.1372 128.399 15.8391 127.757 16.4006C127.109 16.9689 126.314 17.2496 125.364 17.2496C124.134 17.2496 123.185 16.8552 122.517 16.0731C121.848 15.2843 121.507 14.2815 121.507 13.0582V12.8309C121.507 11.6143 121.841 10.6049 122.51 9.81604C123.178 9.02722 124.121 8.63281 125.351 8.63281C126.367 8.63281 127.183 8.92695 127.798 9.50853C128.419 10.0901 128.713 10.8589 128.693 11.8148L128.68 11.8616H126.634C126.634 11.4338 126.521 11.0728 126.293 10.792C126.066 10.5046 125.752 10.3642 125.344 10.3642C124.763 10.3642 124.355 10.5982 124.114 11.0594C123.874 11.5207 123.747 12.1156 123.747 12.8376V13.0649C123.747 13.8002 123.867 14.4019 124.114 14.8564C124.355 15.3043 124.769 15.5316 125.358 15.5316Z" fill="#0D70BA"/>
<path d="M129.494 12.8565C129.494 11.6198 129.842 10.6037 130.53 9.80823C131.219 9.01941 132.181 8.625 133.405 8.625C134.635 8.625 135.597 9.01941 136.293 9.80823C136.988 10.597 137.336 11.6131 137.336 12.8565V13.017C137.336 14.2671 136.988 15.2831 136.293 16.072C135.597 16.8608 134.642 17.2485 133.418 17.2485C132.188 17.2485 131.226 16.8541 130.537 16.072C129.842 15.2831 129.494 14.2671 129.494 13.017V12.8565ZM131.727 13.017C131.727 13.7724 131.861 14.3807 132.128 14.8419C132.395 15.3032 132.823 15.5305 133.418 15.5305C134 15.5305 134.421 15.3032 134.688 14.8419C134.956 14.3807 135.089 13.7724 135.089 13.0237V12.8632C135.089 12.1279 134.956 11.5262 134.682 11.0583C134.408 10.5904 133.98 10.3564 133.398 10.3564C132.817 10.3564 132.395 10.5904 132.128 11.0583C131.861 11.5262 131.727 12.1279 131.727 12.8565V13.017Z" fill="#0D70BA"/>
<path d="M138.206 13.0054C138.206 11.6951 138.487 10.6389 139.055 9.83673C139.623 9.03454 140.418 8.63344 141.448 8.63344C141.862 8.63344 142.237 8.72034 142.571 8.90084C142.905 9.08133 143.193 9.33536 143.447 9.6696V5.11719H145.7V17.0965H143.788L143.594 16.0737C143.333 16.4548 143.026 16.7489 142.665 16.9561C142.304 17.1567 141.896 17.2569 141.435 17.2569C140.419 17.2569 139.623 16.8826 139.055 16.1339C138.487 15.3852 138.206 14.3958 138.206 13.1725V13.0054ZM140.439 13.1658C140.439 13.8945 140.559 14.4627 140.806 14.8838C141.054 15.2983 141.455 15.5122 142.003 15.5122C142.324 15.5122 142.604 15.4453 142.845 15.3183C143.086 15.1846 143.28 14.9975 143.433 14.7434V11.2004C143.28 10.9397 143.086 10.7392 142.845 10.5921C142.604 10.445 142.33 10.3715 142.01 10.3715C141.461 10.3715 141.06 10.6122 140.806 11.1002C140.552 11.5882 140.425 12.2232 140.425 13.0054V13.1658H140.439Z" fill="#0D70BA"/>
<path d="M150.877 17.2486C149.64 17.2486 148.671 16.8676 147.976 16.1055C147.28 15.3434 146.933 14.3674 146.933 13.1708V12.8633C146.933 11.6199 147.274 10.5971 147.949 9.80831C148.624 9.01281 149.553 8.6184 150.737 8.62508C151.853 8.62508 152.709 8.96602 153.304 9.64788C153.899 10.3297 154.199 11.2522 154.199 12.4087V13.5652H149.246L149.226 13.612C149.259 14.1802 149.433 14.6415 149.747 14.9958C150.055 15.3501 150.516 15.5239 151.124 15.5239C151.626 15.5239 152.053 15.4704 152.401 15.3701C152.749 15.2699 153.116 15.1094 153.491 14.9022L154.099 16.286C153.765 16.5601 153.317 16.7873 152.749 16.9678C152.167 17.155 151.545 17.2486 150.877 17.2486ZM150.73 10.3498C150.282 10.3498 149.934 10.5035 149.687 10.8177C149.446 11.1252 149.299 11.5397 149.246 12.0478L149.259 12.0879H151.993V11.9207C151.993 11.4327 151.893 11.0517 151.692 10.7709C151.499 10.4902 151.178 10.3498 150.73 10.3498Z" fill="#0D70BA"/>
</svg>
